<?xml version="1.0" encoding="utf-8"?>
<!-- Generator: Adobe Illustrator 24.3.0, SVG Export Plug-In . SVG Version: 6.00 Build 0)  -->
<svg version="1.1" xmlns="http://www.w3.org/2000/svg" xmlns:xlink="http://www.w3.org/1999/xlink" x="0px" y="0px"
	 width="494.48px" height="164.236px" viewBox="0 0 494.48 164.236" style="enable-background:new 0 0 494.48 164.236;"
	 xml:space="preserve">
<style type="text/css">
	.st0{fill:#E3E3E3;}
	.st1{fill:#CB4539;}
	.st2{fill:#67A659;}
	.st3{fill:#3D4047;}
	.st4{fill:#0A0A0A;}
	.st5{fill:#FFFFFF;}
	.st6{fill:#F9F9F9;}
	.st7{fill:#EBBB2D;}
	.st8{fill:#2D2D2D;}
</style>
<g id="BACKGROUND">
</g>
<g id="OBJECTS_1_">
	<g>
		<g>
			<g>
				<path class="st1" d="M163.467,79.953c-1.977-4.15-4.699-7.979-7.967-11.211c-0.443-0.435-0.906-0.875-1.381-1.31
					c-0.286-7.226-1.64-14.392-4.362-21.241c-5.401-13.6-15.957-24.815-30.118-29.255c-1-0.318-2.012-0.596-3.032-0.847
					c-2.887-2.001-6.064-3.613-9.426-4.805C94.68,6.847,80.896,8,68.551,12.731c-0.106,0.008-0.216,0.012-0.326,0.02
					c-12.239,0.824-25.74,5.272-34.343,14.38c-0.075,0.078,0.02,0.196,0.11,0.145c5.425-2.962,10.744-5.802,16.636-7.759
					c2.628-0.871,5.311-1.557,8.03-2.055c-1.757,1.02-3.464,2.106-5.107,3.264c-1.385,0.977-2.746,2.012-4.076,3.095
					c-0.255,0.129-0.514,0.263-0.765,0.396c-8.865,2.334-17.189,6.727-23.881,12.858C11.826,48.984,5.059,66.824,8.409,84.296
					c1.31,6.845,4.107,13.474,8.34,19.009c0.435,0.906,0.898,1.8,1.385,2.679c0.031,2.244,0.243,4.468,0.624,6.653
					c-2.558-3.311-4.805-6.853-6.967-10.517c-0.141-0.239-0.526-0.086-0.447,0.192c1.867,6.465,5.201,12.494,9.422,17.785
					c1.365,3.687,3.24,7.171,5.57,10.332c1.404,3.154,3.26,6.115,5.347,8.708c4.982,6.194,11.638,10.815,19.154,13.392
					c7.798,2.679,16.024,3.103,23.94,1.675c0.565,0.141,1.134,0.271,1.699,0.392c14.275,3.036,30.259-0.055,42.18-8.685
					c7.171-1.396,14.055-4.444,19.837-8.959c5.798-2.601,11.144-6.115,15.702-10.642c6.111-6.068,10.787-13.8,12.505-22.296
					C168.355,95.828,167.045,87.457,163.467,79.953z M134.553,28.414c10.63,9.458,15.828,23.065,17.134,36.959
					c-0.428-0.329-0.867-0.647-1.31-0.953c-0.494-1.702-1.039-3.397-1.636-5.088c-2.522-7.131-6.08-13.655-11.407-18.97
					c-0.22-0.22-0.604,0.063-0.431,0.341c3.358,5.421,6.516,11.18,8.724,17.201c0.557,1.526,1.028,3.06,1.428,4.605
					c-0.659-0.302-1.334-0.557-2.016-0.765c-0.683-0.93-1.389-1.836-2.13-2.695c-0.2-0.235-0.412-0.459-0.612-0.686
					c-2.742-7.896-6.547-15.29-11.599-21.649c-0.584-2.624-1.514-5.19-2.722-7.61c0.082,0.055,0.169,0.106,0.251,0.161
					c2.671,1.734,5.088,4.04,7.924,5.496c0.302,0.157,0.616-0.157,0.459-0.463c-1.291-2.53-3.648-4.538-5.798-6.331
					c-2.044-1.706-4.221-3.244-6.484-4.641c-0.726-0.926-1.498-1.808-2.31-2.648C126.524,22.51,130.76,25.04,134.553,28.414z
					 M148.09,92.592c-0.035-2.106-0.137-4.213-0.282-6.304c-0.365-5.127-1.047-10.293-2.091-15.381
					c1.208,1.691,2.338,3.444,3.366,5.299c0.016,0.2,0.031,0.4,0.043,0.6C149.456,82.134,149.099,87.434,148.09,92.592z
					 M108.527,14.885c-2.35-0.118-4.703-0.024-7.025,0.322c-4.244-0.553-8.536-0.659-12.792-0.322
					c-0.224-0.063-0.447-0.129-0.671-0.188c-3.158-0.836-6.394-1.424-9.654-1.757C88.313,10.774,99.238,11.033,108.527,14.885z
					 M66.966,16.56c0.42-0.016,0.839-0.027,1.259-0.031c1.079-0.012,2.154,0.008,3.224,0.055c-2.997,0.467-5.966,1.13-8.885,1.981
					C64.009,17.846,65.476,17.175,66.966,16.56z M19.165,95.542c-0.251,1.185-0.459,2.377-0.616,3.566
					c-1.279-2.911-2.283-5.947-3.001-9.057c-0.765-3.303-1.141-6.672-1.381-10.054c-0.228-3.217,0.424-6.786-0.263-9.92
					c-0.047-0.224-0.337-0.231-0.447-0.063c-1.318,2.067-1.514,4.935-1.742,7.343c-0.271,2.871-0.263,5.7,0.067,8.563
					c0.282,2.479,0.737,4.915,1.345,7.316c-4.013-9.862-4.856-20.88-1.648-31.416c4.323-14.18,14.914-25.729,28.204-31.915
					c-2.911,2.15-5.652,4.507-8.187,7.057c-3.699,3.727-7.025,7.869-9.767,12.352c-2.675,4.37-5.256,9.234-6.17,14.322
					c-0.055,0.326,0.38,0.557,0.561,0.239c2.146-3.781,3.899-7.759,6.202-11.458c2.358-3.785,5.064-7.375,8.069-10.67
					c3.079-3.37,6.484-6.429,10.156-9.12c-1.714,2.083-3.271,4.284-4.629,6.594C22.299,54.758,15.858,75.662,19.165,95.542z
					 M23.652,118.235c-0.02-0.02-0.039-0.039-0.059-0.055c-0.361-1.149-0.679-2.314-0.945-3.491
					c-0.196-0.851-0.357-1.706-0.494-2.569c1.781,2.33,3.758,4.503,5.896,6.492c1.334,2.079,2.809,4.111,4.433,6.084
					c0.902,1.098,1.848,2.15,2.816,3.17C31.141,125.091,27.257,121.843,23.652,118.235z M35.644,140.123
					c-0.581-0.581-1.134-1.181-1.667-1.785c0.863,0.686,1.75,1.342,2.66,1.961c2.122,1.44,4.821,3.409,7.402,3.711
					c0.188,0.024,0.278-0.251,0.153-0.373c-1-0.961-2.307-1.538-3.456-2.295c-1.408-0.934-2.758-1.953-4.04-3.064
					c-2.287-1.981-4.35-4.221-6.178-6.649c-0.996-1.326-1.918-2.707-2.762-4.131c1.573,1.412,3.205,2.738,4.88,3.962
					c4.911,3.593,10.43,6.394,16.228,8.347c3.95,3.789,8.473,7.029,13.31,9.571c-3.373-0.616-6.716-1.51-9.987-2.671
					c-0.683-0.243-1.145,0.871-0.494,1.208c4.072,2.118,8.453,3.581,12.957,4.444C53.916,152.009,43.466,147.96,35.644,140.123z
					 M72.376,150.314c-5.288-1.667-10.364-4.17-15.055-7.426c8.551,3.589,17.84,5.523,27.18,5.841
					c-0.31,0.129-0.62,0.255-0.934,0.381C79.88,149.933,76.13,150.318,72.376,150.314z M105.8,149.549
					c-7.202,2.691-14.671,3.64-21.986,3.028c0.471-0.075,0.938-0.157,1.404-0.243c4.484-0.843,8.787-2.299,12.843-4.284
					c1.192-0.161,2.381-0.337,3.562-0.553c1.345-0.243,2.699-0.545,4.052-0.894c2.091,0.188,4.201,0.224,6.308,0.118
					C109.994,147.807,107.926,148.753,105.8,149.549z M112.077,21.537c2.801,0.887,5.543,1.957,8.198,3.217
					c0.957,0.455,1.895,0.941,2.82,1.447c1.306,1.793,2.42,3.707,3.33,5.704C122.33,27.782,117.572,24.256,112.077,21.537z
					 M164.44,101.575c-1.761,11.988-9.285,21.837-19.025,28.561c0.447-0.557,0.887-1.122,1.306-1.706
					c4.813-6.676,8.394-15.4,8.469-23.767c0.004-0.404-0.545-0.455-0.663-0.094c-2.306,7.061-5.107,13.765-9.916,19.437
					c-4.793,5.656-10.281,10.222-16.962,13.349c-0.02,0.012-0.039,0.02-0.059,0.027c0.8-0.996,1.561-2.028,2.291-3.079
					c4.633-3.789,8.653-8.234,11.666-13.192c1.087-1.789,2.044-3.644,2.852-5.558c0.773-1.844,1.396-3.73,1.902-5.649
					c3.797-7.767,6.119-16.303,6.59-25.121c0.004-0.012,0.008-0.027,0.008-0.043c1.322,3.628,2.416,7.331,3.66,11.011
					c0.047,0.133,0.231,0.106,0.243-0.031c0.475-5.868-0.965-11.819-3.024-17.342c0.22-2.205,0.349-4.417,0.388-6.629
					c2.13,2.15,3.997,4.55,5.554,7.151C163.765,85.665,165.593,93.742,164.44,101.575z"/>
			</g>
			<g>
				<g>
					<path class="st5" d="M85.29,132.641c0,0,0.659,0.269,1.22,0.248c0.353-0.013,0.555-0.088,0.555-0.088s-0.181,0.278-0.143,0.53
						c0.044,0.288,0.323,0.729,0.683,0.713c0.19-0.009-0.157,0.241-0.157,0.373s0.103,1.432,0.347,1.659
						c0.291,0.27,0.464,0.106,0.541,0.106s0.208,0.23,0.351,0.274c0.143,0.044,0.636-0.115,0.713-0.713
						c0.064-0.502,0.438-0.384,0.406-0.077c-0.033,0.307-0.132,1.038-1.023,1.315c-0.351,0.088-0.431,0.373-0.183,0.46
						c0.248,0.088,0.614-0.055,0.592,0.395C89.172,138.261,86.277,138.868,85.29,132.641z"/>
					<path class="st5" d="M88.568,134.384c0,0,0.066-0.175,0.263-0.318c0.197-0.143,0.647-0.175,0.778-0.175
						s-0.093-0.493-0.702-0.307C88.319,133.764,88.469,134.417,88.568,134.384z"/>
					<path class="st5" d="M83.998,132.067c0,0,0.172-0.074,0.412-0.029s0.573,0.347,0.664,0.442
						c0.091,0.095,0.355-0.379-0.262-0.719C84.273,131.464,83.906,132.019,83.998,132.067z"/>
					<path class="st5" d="M88.206,133.628l0.928-0.811c0,0,0.195-0.018,0.3-0.022c0.208-0.007,0.246-0.176-0.172-0.227
						c-0.166-0.02-0.252-0.028-0.322,0.013C88.665,132.743,87.855,133.683,88.206,133.628z"/>
					<path class="st5" d="M84.282,131.161c0,0,0.047-0.399,0.449-0.23c0.482,0.203,0.844,0.702,0.921,0.954
						c0.073,0.241,0,0.252,0,0.252S85.334,131.54,84.282,131.161z"/>
					<path class="st5" d="M82.977,129.199c0,0-1.136,2.492-0.917,4.538c0.22,1.622,0.579,2.029,0.855,1.929
						c0.194-0.07-0.197-0.343-0.146-0.643c0.026-0.155,0.46-0.183,0.351-0.438c-0.11-0.256-0.468-0.256-0.468-0.256
						s0.007-0.453,0.365-0.3c0.358,0.153,0.731,0.402,1.06,0.65c0.243,0.184,0.468-0.168,0.314-0.365
						c-0.153-0.197-1.181-0.754-1.44-0.914c-0.38-0.234-0.526-0.672-0.216-1.1c0.252-0.347,0.86-0.978,0.663-0.965
						c-0.395,0.027-0.576-0.318-0.356-0.526c0.219-0.208,0.602-0.562,0.444-0.663C83.192,129.959,82.988,129.616,82.977,129.199z"/>
				</g>
				<path class="st5" d="M86.525,62.491c-9.937,0-17.993,8.056-17.993,17.993s8.056,17.993,17.993,17.993
					c9.937,0,17.993-8.056,17.993-17.993S96.462,62.491,86.525,62.491z M86.569,92.724c-6.765,0-12.248-5.484-12.248-12.248
					c0-6.765,5.484-12.248,12.248-12.248s12.248,5.484,12.248,12.248C98.818,87.241,93.334,92.724,86.569,92.724z"/>
				<path class="st5" d="M86.525,51.214c-16.165,0-29.269,13.104-29.269,29.269s13.104,29.269,29.269,29.269
					s29.269-13.104,29.269-29.269S102.69,51.214,86.525,51.214z M86.594,103.941c-12.865,0-23.294-10.429-23.294-23.294
					s10.429-23.294,23.294-23.294s23.294,10.429,23.294,23.294S99.459,103.941,86.594,103.941z"/>
				<polygon class="st5" points="94.754,26.308 94.754,32.973 78.033,32.973 78.033,26.308 76.104,26.308 76.104,32.973 
					76.104,34.23 78.033,34.23 83.763,34.23 83.777,43.234 80.62,43.234 86.672,51.127 92.942,43.146 89.609,43.146 89.609,34.23 
					94.754,34.23 96.684,34.23 96.684,32.973 96.684,26.308 				"/>
				<polygon class="st5" points="33.001,71.595 39.548,71.595 39.548,88.02 33.001,88.02 33.001,89.915 39.548,89.915 
					40.783,89.915 40.783,88.02 40.783,82.392 49.627,82.377 49.627,85.479 57.381,79.535 49.541,73.375 49.541,76.649 
					40.783,76.649 40.783,71.595 40.783,69.699 39.548,69.699 33.001,69.699 				"/>
				<polygon class="st5" points="60.795,51.271 62.621,53.098 58.04,57.679 56.214,55.853 55.685,56.382 57.511,58.208 
					57.856,58.552 58.384,58.023 59.954,56.454 62.425,58.917 61.56,59.782 65.381,60.286 64.912,56.382 63.999,57.295 
					61.556,54.852 62.966,53.442 63.494,52.913 63.15,52.569 61.324,50.743 				"/>
				<polygon class="st5" points="112.277,51.271 110.451,53.098 115.032,57.679 116.858,55.853 117.387,56.382 115.561,58.208 
					115.216,58.552 114.688,58.023 113.118,56.454 110.647,58.917 111.512,59.782 107.691,60.286 108.16,56.382 109.073,57.295 
					111.516,54.852 110.106,53.442 109.578,52.913 109.922,52.569 111.748,50.743 				"/>
				<polygon class="st5" points="111.662,110.315 109.836,108.489 114.417,103.907 116.243,105.734 116.772,105.205 
					114.946,103.379 114.601,103.034 114.073,103.563 112.503,105.133 110.032,102.67 110.897,101.805 107.077,101.3 
					107.545,105.205 108.458,104.292 110.901,106.735 109.491,108.144 108.963,108.673 109.307,109.017 111.133,110.844 				"/>
				<polygon class="st5" points="61.49,110.381 63.316,108.555 58.735,103.973 56.909,105.799 56.38,105.271 58.206,103.444 
					58.551,103.1 59.079,103.629 60.649,105.199 63.12,102.736 62.255,101.871 66.076,101.366 65.607,105.271 64.694,104.358 
					62.251,106.8 63.661,108.21 64.19,108.739 63.845,109.083 62.019,110.909 				"/>
				<polygon class="st5" points="140.079,71.595 133.532,71.595 133.532,88.02 140.079,88.02 140.079,89.915 133.532,89.915 
					132.297,89.915 132.297,88.02 132.297,82.392 123.453,82.377 123.453,85.479 115.699,79.535 123.539,73.375 123.539,76.649 
					132.297,76.649 132.297,71.595 132.297,69.699 133.532,69.699 140.079,69.699 				"/>
				<polygon class="st5" points="94.754,134.68 94.754,128.015 78.033,128.015 78.033,134.68 76.104,134.68 76.104,128.015 
					76.104,126.758 78.033,126.758 83.763,126.758 83.777,117.755 80.62,117.755 86.672,109.862 92.942,117.842 89.609,117.842 
					89.609,126.758 94.754,126.758 96.684,126.758 96.684,128.015 96.684,134.68 				"/>
				<g>
					<path class="st5" d="M79.842,27.604h1.612v0.199h-0.189c-0.137,0-0.227,0.012-0.273,0.035
						c-0.045,0.023-0.068,0.052-0.068,0.088c0,0.027,0.026,0.077,0.077,0.151l0.754,1.105l0.577-0.877
						c0.074-0.113,0.112-0.205,0.112-0.274c0-0.069-0.032-0.124-0.096-0.165c-0.064-0.041-0.183-0.062-0.358-0.064v-0.199h1.424
						v0.199c-0.155,0-0.277,0.027-0.367,0.08c-0.122,0.071-0.233,0.182-0.336,0.335l-0.81,1.18l1.241,1.79
						c0.035,0.051,0.079,0.088,0.131,0.11c0.052,0.022,0.142,0.034,0.271,0.036v0.199h-1.556v-0.199h0.216
						c0.105,0,0.177-0.013,0.217-0.039c0.04-0.026,0.06-0.058,0.06-0.097c0-0.041-0.027-0.1-0.08-0.178l-0.804-1.165l-0.594,0.852
						c-0.094,0.135-0.141,0.253-0.141,0.356c0,0.087,0.027,0.154,0.082,0.201c0.055,0.047,0.135,0.07,0.242,0.07h0.154v0.199h-1.498
						v-0.199c0.156-0.005,0.295-0.046,0.418-0.124s0.244-0.202,0.363-0.376l0.833-1.203l-1.075-1.538
						c-0.085-0.122-0.16-0.201-0.226-0.235c-0.066-0.035-0.17-0.053-0.313-0.054V27.604z"/>
					<path class="st5" d="M83.55,27.604h1.655v0.199h-0.287c-0.119,0-0.199,0.014-0.242,0.043c-0.043,0.028-0.064,0.066-0.064,0.114
						c0,0.037,0.016,0.091,0.048,0.162l0.021,0.056l1.034,2.632l0.915-2.513c0.018-0.05,0.027-0.11,0.027-0.181
						c0-0.099-0.029-0.176-0.086-0.231c-0.058-0.055-0.137-0.082-0.238-0.082h-0.268v-0.199h1.45v0.199h-0.117
						c-0.089,0-0.177,0.042-0.264,0.125c-0.088,0.083-0.167,0.22-0.238,0.412l-1.215,3.286h-0.193L84.1,28.113
						c-0.048-0.117-0.103-0.198-0.166-0.243c-0.063-0.045-0.148-0.068-0.257-0.068H83.55V27.604z"/>
					<path class="st5" d="M87.704,27.604h1.812v0.199h-0.311c-0.138,0-0.225,0.017-0.262,0.052
						c-0.036,0.035-0.054,0.108-0.054,0.219v2.975c0,0.119,0.016,0.193,0.048,0.223c0.042,0.041,0.12,0.061,0.231,0.061h0.348v0.199
						h-1.812v-0.199h0.343c0.12,0,0.198-0.018,0.234-0.053c0.035-0.035,0.053-0.112,0.053-0.231v-2.975
						c0-0.113-0.016-0.183-0.048-0.21c-0.05-0.041-0.141-0.061-0.274-0.061h-0.308V27.604z"/>
					<path class="st5" d="M89.919,27.604h1.812v0.199H91.42c-0.138,0-0.225,0.017-0.262,0.052c-0.036,0.035-0.054,0.108-0.054,0.219
						v2.975c0,0.119,0.016,0.193,0.048,0.223c0.042,0.041,0.12,0.061,0.231,0.061h0.348v0.199h-1.812v-0.199h0.343
						c0.12,0,0.198-0.018,0.234-0.053c0.035-0.035,0.053-0.112,0.053-0.231v-2.975c0-0.113-0.016-0.183-0.048-0.21
						c-0.049-0.041-0.141-0.061-0.274-0.061h-0.308V27.604z"/>
					<path class="st5" d="M92.134,27.604h1.812v0.199h-0.311c-0.138,0-0.225,0.017-0.262,0.052
						c-0.036,0.035-0.054,0.108-0.054,0.219v2.975c0,0.119,0.016,0.193,0.048,0.223c0.042,0.041,0.12,0.061,0.231,0.061h0.348v0.199
						h-1.812v-0.199h0.343c0.12,0,0.198-0.018,0.234-0.053c0.035-0.035,0.053-0.112,0.053-0.231v-2.975
						c0-0.113-0.016-0.183-0.048-0.21c-0.049-0.041-0.141-0.061-0.274-0.061h-0.308V27.604z"/>
				</g>
				<g>
					<g>
						<path class="st5" d="M35.116,75.529c0.481,0.132,0.736,0.503,0.936,0.917c0.121,0.25,0.203,0.518,0.303,0.778
							c0.01,0.026,0.017,0.052,0.027,0.081c0.176-0.042,0.347-0.091,0.521-0.124c0.363-0.068,0.729-0.117,1.097-0.042
							c0.322,0.066,0.59,0.209,0.71,0.541c0.078,0.216,0.055,0.435-0.011,0.65c-0.12,0.391-0.339,0.727-0.594,1.04
							c-0.125,0.153-0.258,0.3-0.389,0.45c0.133,0.154,0.27,0.304,0.398,0.462c0.251,0.309,0.466,0.641,0.584,1.026
							c0.065,0.212,0.088,0.428,0.016,0.642c-0.095,0.281-0.31,0.434-0.583,0.518c-0.298,0.092-0.602,0.085-0.905,0.04
							c-0.28-0.041-0.558-0.103-0.849-0.159c-0.004,0.011-0.014,0.039-0.022,0.067c-0.129,0.417-0.278,0.826-0.544,1.179
							c-0.095,0.126-0.206,0.246-0.331,0.341c-0.334,0.255-0.706,0.233-1.025-0.041c-0.276-0.237-0.455-0.542-0.593-0.871
							c-0.094-0.223-0.169-0.453-0.255-0.686c-0.139,0.035-0.283,0.076-0.429,0.105c-0.387,0.078-0.777,0.136-1.171,0.059
							c-0.352-0.069-0.636-0.232-0.738-0.606c-0.054-0.2-0.028-0.398,0.033-0.594c0.132-0.424,0.379-0.781,0.66-1.116
							c0.104-0.124,0.213-0.243,0.322-0.365c-0.132-0.153-0.267-0.301-0.394-0.456c-0.253-0.311-0.47-0.645-0.59-1.033
							c-0.066-0.212-0.088-0.428-0.015-0.642c0.096-0.28,0.31-0.434,0.583-0.517c0.298-0.091,0.602-0.085,0.905-0.04
							c0.28,0.042,0.558,0.104,0.847,0.159c0.01-0.028,0.026-0.072,0.039-0.116c0.1-0.326,0.221-0.643,0.397-0.937
							c0.197-0.327,0.436-0.607,0.826-0.711C34.96,75.529,35.038,75.529,35.116,75.529z M33.627,79.817
							c0.009,0.227,0.017,0.462,0.03,0.696c0.002,0.028,0.023,0.063,0.045,0.08c0.398,0.288,0.815,0.548,1.251,0.776
							c0.024,0.013,0.066,0.013,0.089,0.001c0.436-0.228,0.852-0.488,1.251-0.776c0.022-0.016,0.044-0.046,0.045-0.071
							c0.032-0.466,0.034-0.932,0.001-1.398c-0.002-0.025-0.021-0.057-0.042-0.073c-0.4-0.291-0.82-0.55-1.258-0.781
							c-0.022-0.012-0.06-0.012-0.082-0.001c-0.438,0.23-0.857,0.491-1.257,0.782c-0.023,0.016-0.042,0.052-0.043,0.08
							C33.645,79.357,33.637,79.583,33.627,79.817z M36.464,82.03c0.262,0.053,0.514,0.113,0.769,0.152
							c0.257,0.039,0.516,0.051,0.773-0.013c0.264-0.066,0.405-0.205,0.42-0.461c0.008-0.126-0.023-0.262-0.065-0.383
							c-0.14-0.403-0.402-0.73-0.678-1.046c-0.067-0.077-0.139-0.15-0.204-0.22c-0.253,0.208-0.496,0.413-0.745,0.611
							c-0.061,0.048-0.086,0.1-0.093,0.174c-0.016,0.178-0.036,0.355-0.063,0.531C36.546,81.586,36.505,81.796,36.464,82.03z
							 M32.518,80.058c-0.287,0.297-0.558,0.615-0.758,0.986c-0.1,0.185-0.18,0.377-0.191,0.591
							c-0.009,0.169,0.038,0.314,0.179,0.418c0.14,0.103,0.303,0.147,0.471,0.147c0.22,0,0.441-0.007,0.658-0.037
							c0.221-0.03,0.438-0.092,0.66-0.141c-0.024-0.121-0.049-0.221-0.064-0.323c-0.042-0.289-0.08-0.579-0.122-0.869
							c-0.006-0.042-0.014-0.096-0.042-0.12C33.05,80.492,32.786,80.278,32.518,80.058z M32.522,79.592
							c0.03-0.026,0.055-0.047,0.08-0.069c0.214-0.179,0.425-0.363,0.644-0.535c0.076-0.06,0.103-0.126,0.112-0.217
							c0.02-0.2,0.045-0.399,0.076-0.597c0.028-0.181,0.065-0.36,0.103-0.565c-0.271-0.052-0.537-0.11-0.806-0.152
							c-0.243-0.038-0.489-0.044-0.732,0.016c-0.279,0.069-0.435,0.242-0.424,0.493c0.005,0.118,0.026,0.24,0.067,0.35
							C31.823,78.816,32.166,79.205,32.522,79.592z M37.483,79.581c0.239-0.25,0.465-0.518,0.653-0.817
							c0.124-0.197,0.233-0.401,0.274-0.633c0.049-0.273,0.003-0.488-0.277-0.609c-0.103-0.044-0.219-0.079-0.33-0.08
							c-0.239-0.002-0.479,0.007-0.716,0.038c-0.211,0.028-0.416,0.091-0.608,0.134c0.06,0.428,0.118,0.836,0.177,1.244
							c0.004,0.025,0.016,0.054,0.035,0.07C36.952,79.146,37.215,79.361,37.483,79.581z M33.929,77.402
							c0.014,0.008,0.022,0.015,0.032,0.02c0.33,0.142,0.659,0.285,0.99,0.424c0.028,0.012,0.071,0.01,0.1-0.002
							c0.098-0.041,0.191-0.092,0.288-0.134c0.24-0.103,0.482-0.202,0.728-0.305c-0.094-0.342-0.21-0.678-0.391-0.988
							c-0.097-0.167-0.207-0.325-0.361-0.446c-0.201-0.158-0.403-0.166-0.607-0.018c-0.06,0.044-0.117,0.096-0.165,0.153
							C34.221,76.482,34.065,76.936,33.929,77.402z M36.066,82.249c-0.351-0.157-0.69-0.311-1.032-0.461
							c-0.027-0.012-0.069,0-0.1,0.013c-0.3,0.127-0.599,0.256-0.898,0.385c-0.035,0.015-0.07,0.029-0.106,0.043
							c0.088,0.328,0.193,0.642,0.358,0.931c0.086,0.151,0.188,0.299,0.307,0.426c0.262,0.278,0.537,0.273,0.807,0.006
							c0.032-0.031,0.061-0.066,0.089-0.1C35.788,83.124,35.937,82.688,36.066,82.249z M36.15,77.723
							c-0.276,0.116-0.531,0.223-0.797,0.335c0.321,0.2,0.626,0.389,0.949,0.589C36.25,78.334,36.202,78.039,36.15,77.723z
							 M33.848,81.918c0.277-0.116,0.532-0.224,0.794-0.334c-0.319-0.199-0.624-0.39-0.946-0.591
							C33.748,81.307,33.796,81.603,33.848,81.918z M33.691,78.65c0.324-0.203,0.628-0.393,0.945-0.592
							c-0.267-0.111-0.525-0.219-0.795-0.331C33.789,78.042,33.741,78.338,33.691,78.65z M35.362,81.582
							c0.264,0.11,0.522,0.218,0.795,0.333c0.051-0.313,0.099-0.611,0.149-0.923C35.98,81.196,35.676,81.386,35.362,81.582z
							 M33.305,80.297c0-0.324,0-0.631,0-0.956c-0.19,0.165-0.367,0.319-0.55,0.477c0.08,0.073,0.149,0.137,0.22,0.199
							C33.08,80.108,33.187,80.197,33.305,80.297z M36.695,79.342c0,0.323,0,0.63,0,0.955c0.186-0.162,0.364-0.315,0.55-0.477
							C37.059,79.659,36.883,79.506,36.695,79.342z"/>
						<path class="st5" d="M34.318,79.823c0.012-0.381,0.289-0.673,0.68-0.682c0.366-0.008,0.679,0.299,0.679,0.673
							c0,0.372-0.274,0.679-0.674,0.684C34.628,80.502,34.335,80.22,34.318,79.823z"/>
					</g>
				</g>
				<path class="st5" d="M88.762,73.665c-3.1,0-5.613,2.513-5.613,5.613c0,3.1,2.513,5.613,5.613,5.613
					c3.1,0,5.613-2.513,5.613-5.613C94.374,76.178,91.861,73.665,88.762,73.665z M92.883,80.147
					c-0.57-0.161-0.782,0.074-0.438,0.263c0.438,0.241,0.761,0.361,0.599,0.862c-0.219,0.68-0.848,1.681-1.125,1.622
					c-0.278-0.058-0.292-0.848-0.57-0.629c-0.278,0.219-0.146,0.57,0,0.848c0.146,0.278-2.192,1.491-2.236,0.702
					c-0.044-0.789-0.365-0.819-0.38-1.023c-0.015-0.205-0.102-0.424-0.248-0.336c-0.146,0.088-0.263,0.468-0.278,0.731
					c-0.015,0.263-0.088,1.009-0.614,0.848c-0.526-0.161-1.418-0.643-1.257-0.892c0.161-0.248-0.029-0.716-0.19-0.599
					c-0.161,0.117-0.387,0.559-0.745-0.029c-0.142-0.234-0.241-1.206,0.015-1.33c0.129-0.063-0.19-1.995,0.453-2.236
					c0,0,0.771-0.329,1.023,0.453c0.235,0.73,0.029,1.403,0.643,1.739s1.71,0.585,2.266,0.175s0.043-0.824-0.015-1.155
					c-0.088-0.501,0.351-0.789,0.687-0.658c0.336,0.132,0.57,0.599,0.76,0.614c0.19,0.015,0.395-0.132,0.482-0.322
					c0.088-0.19,0.519-0.497,1.009-0.219C93.224,79.861,93.453,80.308,92.883,80.147z"/>
				<path class="st5" d="M76.922,78.254c1.491-1.432,3.336-3.438,8.974-4.443c3.033-0.541,7.906-0.434,11.108,2.076
					c2.163,1.695,2.273,3.128,2.273,3.128l-0.088,2.039c0,0-2.741-3.676-8.032-4.144c-2.134-0.205-5.688-0.309-9.15,2.66
					c-2.279,1.955-2.66,2.01-2.543,2.28c0.147,0.339,1.11,0.737,1.695,1.959c0.672,1.403,2.368,2.865,5.613,3.508
					c1.516,0.365,1.703,0.365,2.339,0.438c0,0-6.694,1.725-11.868-4.619C76.068,81.695,75.7,79.429,76.922,78.254z"/>
				<line class="st5" x1="135.41" y1="78.376" x2="135.596" y2="78.305"/>
				<g>
					<path class="st6" d="M140.932,80.257c0.724-0.391,1.476-0.73,2.479-0.72c-0.038-0.042-0.074-0.08-0.108-0.118
						c-0.036-0.04-0.039-0.079,0.029-0.105c0.062-0.023,0.111-0.005,0.146,0.032c0.078,0.083,0.159,0.165,0.232,0.251
						c0.019,0.022,0.022,0.056,0.012,0.08c-0.055,0.123-0.121,0.245-0.175,0.368c-0.026,0.059-0.097,0.062-0.167,0.074
						c-0.371,0.062-0.75,0.109-1.11,0.192c-0.577,0.133-1.093,0.339-1.528,0.627c-0.035,0.024-0.11,0.033-0.165,0.031
						c-0.847-0.04-1.646,0.058-2.376,0.355c-0.361,0.147-0.676,0.33-0.929,0.556c-0.058,0.052-0.118,0.063-0.205,0.034
						c-0.195-0.063-0.393-0.122-0.587-0.187c-0.048-0.016-0.092-0.046-0.124-0.076c-0.411-0.398-0.749-0.823-1.052-1.259
						c-0.294-0.423-0.564-0.852-0.849-1.277c-0.046-0.069-0.028-0.113,0.072-0.147c0.045-0.015,0.085-0.036,0.129-0.053
						c0.057-0.022,0.112-0.023,0.152,0.017c0.041,0.041,0.013,0.072-0.041,0.097c-0.033,0.015-0.067,0.029-0.113,0.048
						c0.53,0.843,1.074,1.68,1.831,2.464c0.398-0.313,0.847-0.568,1.388-0.749c0.542-0.181,1.118-0.271,1.725-0.289
						c-0.279-0.044-0.558-0.063-0.844-0.047c-0.733,0.04-1.382,0.217-1.959,0.514c-0.099,0.051-0.156,0.042-0.212-0.035
						c-0.581-0.798-1.161-1.595-1.743-2.393c-0.041-0.057-0.02-0.093,0.052-0.128c0.605-0.292,1.262-0.506,2.01-0.581
						c0.46-0.046,0.918-0.039,1.367,0.053c0.068,0.014,0.101,0.005,0.142-0.032c0.556-0.505,1.305-0.809,2.24-0.896
						c0.334-0.031,0.679-0.008,1.019-0.005c0.038,0,0.088,0.024,0.112,0.046c0.66,0.623,1.284,1.261,1.76,1.955
						c0.089,0.129,0.071,0.147-0.142,0.164c-0.774,0.058-1.409,0.295-1.931,0.666c-0.179,0.127-0.327,0.273-0.488,0.412
						C140.961,80.215,140.948,80.237,140.932,80.257z M143.325,78.983c-0.002-0.008-0.001-0.016-0.006-0.022
						c-0.46-0.654-1.049-1.258-1.671-1.849c-0.017-0.016-0.058-0.028-0.089-0.03c-0.348-0.026-0.695-0.019-1.039,0.027
						c-0.815,0.109-1.462,0.391-1.946,0.834c-0.023,0.021-0.028,0.065-0.01,0.087c0.635,0.796,1.273,1.591,1.912,2.385
						c0.011,0.013,0.025,0.025,0.043,0.042C141.125,79.686,141.974,79.127,143.325,78.983z M140.261,80.489
						c-0.017-0.027-0.027-0.044-0.039-0.06c-0.577-0.783-1.176-1.558-1.832-2.314c-0.047-0.055-0.105-0.085-0.194-0.101
						c-0.46-0.083-0.923-0.089-1.388-0.029c-0.648,0.083-1.223,0.27-1.758,0.527c0.562,0.773,1.123,1.543,1.683,2.313
						C137.826,80.32,138.984,80.166,140.261,80.489z M143.5,79.689c-0.075-0.005-0.136-0.012-0.197-0.012
						c-0.486-0.003-0.922,0.107-1.336,0.263c-0.505,0.191-0.938,0.44-1.336,0.717c-0.065,0.045-0.128,0.056-0.221,0.043
						c-0.17-0.023-0.343-0.041-0.516-0.047c-0.948-0.03-1.805,0.136-2.556,0.524c-0.254,0.131-0.482,0.28-0.689,0.454
						c0.149,0.047,0.287,0.093,0.428,0.133c0.022,0.006,0.073-0.01,0.094-0.026c0.882-0.682,2.015-0.958,3.354-0.907
						c0.043,0.002,0.096-0.013,0.132-0.031c0.222-0.111,0.429-0.236,0.662-0.335c0.592-0.252,1.248-0.398,1.941-0.472
						c0.068-0.007,0.11-0.023,0.129-0.07C143.421,79.848,143.46,79.773,143.5,79.689z"/>
					<path class="st5" d="M143.5,79.689c-0.04,0.084-0.079,0.159-0.11,0.234c-0.019,0.047-0.061,0.062-0.129,0.07
						c-0.693,0.074-1.349,0.22-1.941,0.472c-0.233,0.099-0.44,0.225-0.662,0.335c-0.036,0.018-0.088,0.033-0.132,0.031
						c-1.339-0.051-2.473,0.225-3.354,0.907c-0.02,0.016-0.071,0.032-0.094,0.026c-0.142-0.04-0.28-0.086-0.428-0.133
						c0.207-0.174,0.435-0.323,0.689-0.454c0.75-0.388,1.608-0.555,2.556-0.524c0.173,0.006,0.346,0.024,0.516,0.047
						c0.094,0.013,0.156,0.002,0.221-0.043c0.398-0.277,0.831-0.526,1.336-0.717c0.414-0.156,0.849-0.267,1.336-0.263
						C143.364,79.677,143.425,79.684,143.5,79.689z"/>
				</g>
				<ellipse class="st5" cx="86.178" cy="79.796" rx="0.765" ry="1.093"/>
				
					<ellipse transform="matrix(0.866 -0.5 0.5 0.866 -27.9461 55.9539)" class="st5" cx="90.438" cy="80.125" rx="0.666" ry="0.861"/>
			</g>
		</g>
		<g>
			<path class="st7" d="M201.631,83.014c-4.878-0.042-9.035-1.781-12.471-5.217s-5.154-7.572-5.154-12.408
				c0-3.139,0.752-6.013,2.259-8.621c1.505-2.61,3.488-4.699,5.949-6.268c-0.213-0.594-0.381-1.187-0.509-1.782
				c-0.127-0.593-0.19-1.208-0.19-1.844c0-2.757,0.986-5.122,2.958-7.094c1.973-1.973,4.359-2.959,7.158-2.959h5.027v9.099h-5.027
				c-0.34,0-0.594,0.106-0.764,0.319c-0.17,0.213-0.255,0.444-0.255,0.699c0,0.042,0,0.086,0,0.127
				c0.042,0.213,0.148,0.404,0.318,0.572c0.169,0.17,0.403,0.255,0.7,0.255h5.027v9.099h-6.108c-2.079,0.255-3.85,1.177-5.313,2.768
				c-1.464,1.591-2.195,3.468-2.195,5.631c0,2.333,0.848,4.338,2.545,6.013c1.696,1.676,3.711,2.513,6.045,2.513h5.027v9.099
				H201.631z"/>
			<path class="st7" d="M230.009,63.544l8.272,19.47h-9.862l-3.309-7.699l-3.309,7.699h-9.862l8.208-19.47L208.948,36.82h9.862
				l6.299,14.953l6.236-14.953h9.863L230.009,63.544z"/>
			<path class="st7" d="M264.623,51.486c-3.522,4.221-7.912,6.862-13.171,7.922V82.95h-9.099V36.82h27.614
				C269.924,42.377,268.143,47.266,264.623,51.486z M251.451,45.919v4.136c1.23-0.423,2.343-0.986,3.34-1.686
				c0.996-0.701,1.898-1.516,2.704-2.45H251.451z"/>
			<path class="st2" d="M299.872,66.98c-3.606,3.606-7.975,5.409-13.107,5.409c-5.091,0-9.449-1.802-13.076-5.409
				c-3.627-3.605-5.44-7.975-5.44-13.107c0-5.09,1.813-9.449,5.44-13.075c3.627-3.628,7.985-5.44,13.076-5.44
				c5.09,0,9.449,1.803,13.075,5.409c3.627,3.605,5.44,7.975,5.44,13.107S303.477,63.374,299.872,66.98z M269.267,82.95v-9.035
				h35.059v9.035H269.267z M293.35,46.905c-1.931-1.548-4.062-2.323-6.395-2.323c-0.042,0-0.074,0-0.095,0c-0.022,0-0.053,0-0.095,0
				c-2.333,0-4.486,0.775-6.458,2.323c-1.973,1.549-2.959,3.871-2.959,6.967c0,3.14,0.986,5.493,2.959,7.063
				s4.146,2.355,6.522,2.355c2.375,0,4.539-0.785,6.49-2.355c1.951-1.569,2.927-3.923,2.927-7.063
				C296.245,50.776,295.28,48.454,293.35,46.905z"/>
			<path class="st7" d="M308.334,64.244v-6.236h17.816v6.236H308.334z"/>
			<path class="st1" d="M328.567,82.95V36.82h9.099v46.13H328.567z"/>
			<path class="st1" d="M360.348,76.205c-4.518,4.497-9.958,6.745-16.32,6.745l-4.518,0.063c0-7.72,0-15.43,0-23.129
				c0-7.7,0-15.388,0-23.065h4.518c6.363,0,11.803,2.258,16.32,6.776s6.776,9.958,6.776,16.321S364.866,71.71,360.348,76.205z
				 M355.354,51.677c-1.781-2.396-4.051-4.06-6.808-4.995c0,2.206,0,4.413,0,6.618c0,2.205,0,4.412,0,6.617c0,2.206,0,4.412,0,6.617
				c0,2.206,0,4.413,0,6.617c2.841-0.975,5.132-2.682,6.872-5.122c1.739-2.438,2.609-5.143,2.609-8.112
				C358.026,56.821,357.135,54.075,355.354,51.677z"/>
			<path class="st1" d="M385.64,82.95c-2.758,0-5.133-0.986-7.126-2.959c-1.995-1.973-2.991-4.337-2.991-7.094
				c0-0.636,0.064-1.261,0.19-1.877c0.128-0.614,0.296-1.198,0.509-1.749c-2.46-1.569-4.444-3.659-5.949-6.268
				c-1.506-2.609-2.259-5.482-2.259-8.621c0-4.836,1.717-8.972,5.154-12.408c3.436-3.436,7.593-5.154,12.471-5.154h5.027v9.035
				h-5.027c-2.333,0-4.349,0.826-6.045,2.482c-1.697,1.654-2.545,3.669-2.545,6.045c0,2.206,0.721,4.167,2.163,5.886
				c1.442,1.717,3.223,2.577,5.345,2.577h6.108v9.035h-5.027c-0.043,0-0.117,0-0.223,0c-0.106,0-0.202,0.022-0.286,0.063
				c-0.127,0.042-0.254,0.139-0.382,0.287c-0.128,0.148-0.191,0.371-0.191,0.668c0,0.254,0.105,0.488,0.318,0.699
				c0.212,0.213,0.466,0.319,0.763,0.319h5.027v9.035H385.64z"/>
			<path class="st1" d="M414.082,82.95v-8.272h-13.171v8.272h-9.035V41.401v-4.136l5.918-0.446c6.956,0,12.916,2.482,17.879,7.445
				c4.963,4.962,7.445,10.923,7.445,17.879V82.95H414.082z M414.082,62.144c0-3.902-1.241-7.348-3.722-10.339
				s-5.631-4.846-9.449-5.567v19.406h13.171V62.144z"/>
			<path class="st1" d="M456.202,45.856c-1.613,0-3.076,0.509-4.39,1.527c-1.315,1.018-2.185,2.333-2.609,3.945l-4.645,19.342
				c-0.891,3.564-2.811,6.502-5.759,8.813c-2.949,2.312-6.246,3.468-9.894,3.468l-4.327,0.063v-9.035h4.327
				c1.612,0,3.054-0.519,4.327-1.559c1.273-1.039,2.1-2.343,2.482-3.913c0.975-4.03,1.76-7.253,2.355-9.671
				c0.593-2.418,1.378-5.641,2.354-9.672c0.891-3.648,2.81-6.617,5.758-8.907c2.948-2.291,6.289-3.436,10.021-3.436h4.454v9.035
				H456.202z"/>
			<g>
				<path class="st8" d="M206.948,125.806v-12.284c0-2.077-0.635-3.936-1.906-5.574c-1.271-1.638-2.922-2.713-4.95-3.228v21.085
					h-5.207v-18.994c-0.538-0.489-1.137-0.917-1.797-1.284c-0.66-0.367-1.345-0.636-2.053-0.807v21.085h-5.243V99.222
					c0.097,0,0.202,0,0.312,0c0.11,0,0.214,0,0.312,0c0.757,0,1.485,0.006,2.182,0.018c0.697,0.013,1.399,0.068,2.109,0.165
					c0.684,0.073,1.369,0.202,2.053,0.385c0.684,0.183,1.394,0.447,2.127,0.788v-1.357h3.007c3.936,0,7.303,1.399,10.102,4.198
					c2.798,2.8,4.199,6.167,4.199,10.103v12.284H206.948z"/>
				<path class="st8" d="M225.649,125.806V99.222h5.244v26.585H225.649z"/>
				<path class="st8" d="M248.548,122.36c-2.75-2.738-4.125-6.026-4.125-9.864c0-3.863,1.369-7.163,4.107-9.901
					c2.737-2.738,6.038-4.107,9.9-4.107v5.206c-2.42,0-4.486,0.861-6.197,2.585c-1.711,1.724-2.567,3.796-2.567,6.216
					c0,2.42,0.856,4.486,2.567,6.197c1.711,1.711,3.777,2.566,6.197,2.566v5.243C254.592,126.478,251.299,125.097,248.548,122.36z"
					/>
				<path class="st8" d="M284.759,125.806v-6.417h-6.454v6.417h-5.243V99.222h5.243v14.96h6.454v-14.96h5.207v26.585H284.759z"/>
				<path class="st2" d="M321.978,116.602c-2.078,2.078-4.596,3.118-7.554,3.118c-2.934,0-5.446-1.039-7.536-3.118
					c-2.09-2.077-3.136-4.595-3.136-7.554c0-2.933,1.046-5.445,3.136-7.536c2.09-2.09,4.602-3.134,7.536-3.134
					c2.933,0,5.445,1.039,7.535,3.116c2.091,2.078,3.135,4.596,3.135,7.554C325.095,112.007,324.055,114.525,321.978,116.602z
					 M304.34,125.806v-5.208h20.205v5.208H304.34z M318.219,105.033c-1.112-0.892-2.341-1.339-3.685-1.339c-0.025,0-0.043,0-0.055,0
					c-0.013,0-0.031,0-0.055,0c-1.345,0-2.585,0.447-3.722,1.339c-1.137,0.892-1.705,2.231-1.705,4.015
					c0,1.81,0.568,3.166,1.705,4.071c1.137,0.905,2.389,1.357,3.759,1.357c1.369,0,2.615-0.452,3.74-1.357
					c1.124-0.905,1.687-2.261,1.687-4.071C319.888,107.264,319.331,105.926,318.219,105.033z"/>
				<path class="st8" d="M351.715,125.806v-4.767h-7.59v4.767h-5.207v-23.944v-2.384l3.41-0.256c4.009,0,7.444,1.43,10.304,4.29
					c2.86,2.86,4.291,6.295,4.291,10.304v11.991H351.715z M351.715,113.816c0-2.249-0.715-4.235-2.145-5.959
					c-1.43-1.724-3.245-2.793-5.445-3.209v11.184h7.59V113.816z"/>
				<path class="st8" d="M374.285,122.36c-2.75-2.738-4.125-6.026-4.125-9.864c0-3.863,1.369-7.163,4.107-9.901
					c2.737-2.738,6.038-4.107,9.9-4.107v5.206c-2.42,0-4.486,0.861-6.197,2.585c-1.711,1.724-2.567,3.796-2.567,6.216
					c0,2.42,0.856,4.486,2.567,6.197s3.777,2.566,6.197,2.566v5.243C380.329,126.478,377.035,125.097,374.285,122.36z"/>
				<path class="st8" d="M411.448,125.806v-4.767h-7.59v4.767h-5.207v-23.944v-2.384l3.41-0.256c4.009,0,7.444,1.43,10.304,4.29
					s4.291,6.295,4.291,10.304v11.991H411.448z M404.371,98.561l-0.66-1.54l6.82-3.448l1.064,2.604L404.371,98.561z
					 M411.448,113.816c0-2.249-0.715-4.235-2.145-5.959c-1.43-1.724-3.245-2.793-5.445-3.209v11.184h7.59V113.816z"/>
				<path class="st8" d="M442.397,125.806v-12.284c0-2.077-0.636-3.936-1.907-5.574c-1.271-1.638-2.921-2.713-4.95-3.228v21.085
					h-5.207V99.222c1.687,0,3.282,0.061,4.785,0.183c1.504,0.123,2.989,0.538,4.456,1.247c0.464,0.244,0.935,0.513,1.412,0.806
					c0.477,0.294,0.947,0.636,1.412,1.028v-3.264h5.243v26.585H442.397z"/>
			</g>
			<g>
				<g>
					<path class="st8" d="M486.985,124.696l-12.924-6.462c-0.095-0.057-0.191-0.099-0.287-0.128
						c-0.095-0.029-0.191-0.062-0.287-0.101c-0.095-0.019-0.191-0.029-0.286-0.029c-0.097,0-0.192,0-0.287,0
						c-0.728,0-1.374,0.269-1.939,0.805s-0.847,1.206-0.847,2.009c0,0.9,0.297,1.594,0.889,2.083
						c0.594,0.488,1.254,0.732,1.982,0.732c0.019,0,0.039,0,0.058,0c0.019,0,0.039,0,0.057,0c0.555-0.019,1.073-0.191,1.551-0.517
						c0.479-0.326,0.813-0.813,1.005-1.465l3.704,1.838c-0.575,1.436-1.454,2.494-2.642,3.174c-1.186,0.679-2.431,1.019-3.733,1.019
						c-1.741,0-3.335-0.588-4.781-1.766c-1.446-1.177-2.168-2.877-2.168-5.097c0-2.009,0.708-3.665,2.125-4.968
						c1.417-1.302,3.024-1.953,4.824-1.953c0.229,0,0.464,0.014,0.703,0.043c0.24,0.029,0.485,0.072,0.733,0.128
						c0.249,0.058,0.493,0.13,0.732,0.215c0.239,0.087,0.474,0.188,0.703,0.302l7.036,3.504v-4.049h4.078V124.696z"/>
					<path class="st8" d="M478.067,86.646c0.431,0.039,0.858,0.087,1.277,0.144c2.03,0.345,3.882,1.126,5.557,2.341
						c1.675,1.215,2.514,2.991,2.514,5.326c0,2.337-0.838,4.117-2.514,5.342c-1.675,1.225-3.527,2.009-5.557,2.355
						c-0.42,0.058-0.847,0.105-1.277,0.144c-0.431,0.039-0.847,0.058-1.248,0.058c-3.141,0-5.701-0.737-7.683-2.212
						c-1.982-1.474-2.972-3.368-2.972-5.686c0-2.316,0.99-4.207,2.972-5.671c1.982-1.464,4.542-2.196,7.683-2.196
						C477.221,86.589,477.636,86.608,478.067,86.646z M471.879,91.872c-1.091,0.784-1.627,1.656-1.608,2.613
						c0.018,0.938,0.573,1.8,1.666,2.584c1.091,0.786,2.718,1.178,4.882,1.178c0.115,0,0.235,0,0.359,0s0.243-0.01,0.358-0.029
						c1.456-0.076,2.791-0.421,4.006-1.033c1.217-0.613,1.824-1.522,1.824-2.729c0-1.186-0.608-2.087-1.824-2.7
						c-1.215-0.612-2.551-0.957-4.006-1.033c-0.115-0.019-0.233-0.029-0.358-0.029s-0.244,0-0.359,0
						C474.617,90.694,472.97,91.087,471.879,91.872z"/>
					<path class="st8" d="M486.985,72.114l-12.924-6.462c-0.095-0.057-0.191-0.099-0.287-0.128
						c-0.095-0.029-0.191-0.062-0.287-0.101c-0.095-0.019-0.191-0.029-0.286-0.029c-0.097,0-0.192,0-0.287,0
						c-0.728,0-1.374,0.269-1.939,0.805s-0.847,1.206-0.847,2.009c0,0.9,0.297,1.594,0.889,2.083
						c0.594,0.488,1.254,0.732,1.982,0.732c0.019,0,0.039,0,0.058,0c0.019,0,0.039,0,0.057,0c0.555-0.019,1.073-0.191,1.551-0.517
						c0.479-0.326,0.813-0.813,1.005-1.465l3.704,1.838c-0.575,1.436-1.454,2.494-2.642,3.174c-1.186,0.679-2.431,1.019-3.733,1.019
						c-1.741,0-3.335-0.588-4.781-1.766c-1.446-1.177-2.168-2.877-2.168-5.097c0-2.009,0.708-3.665,2.125-4.968
						c1.417-1.302,3.024-1.953,4.824-1.953c0.229,0,0.464,0.014,0.703,0.043c0.24,0.029,0.485,0.072,0.733,0.128
						c0.249,0.058,0.493,0.13,0.732,0.215c0.239,0.087,0.474,0.188,0.703,0.302l7.036,3.504v-4.049h4.078V72.114z"/>
					<path class="st8" d="M471.592,42.191c0.747-1.858,1.805-3.216,3.174-4.078c1.369-0.862,2.799-1.293,4.294-1.293
						c2.087,0,4.001,0.79,5.742,2.37c1.743,1.58,2.614,3.767,2.614,6.561c0,0.46-0.029,0.91-0.087,1.351
						c-0.057,0.441-0.153,0.871-0.287,1.291h-4.307c0.192-0.402,0.34-0.827,0.446-1.277c0.105-0.449,0.157-0.905,0.157-1.364
						c-0.019-1.225-0.373-2.345-1.062-3.36c-0.691-1.014-1.724-1.522-3.102-1.522c-1.149,0-2.13,0.479-2.944,1.436
						c-0.813,0.957-1.229,2.116-1.248,3.475l-0.029,4.107l-4.68-3.562v3.562h-4.107V38.084L471.592,42.191z"/>
				</g>
			</g>
		</g>
	</g>
</g>
</svg>
