<?xml version="1.0" encoding="utf-8"?>
<!-- Generator: Adobe Illustrator 24.3.0, SVG Export Plug-In . SVG Version: 6.00 Build 0)  -->
<svg version="1.1" xmlns="http://www.w3.org/2000/svg" xmlns:xlink="http://www.w3.org/1999/xlink" x="0px" y="0px" width="256px"
	 height="293.89px" viewBox="0 0 256 293.89" style="enable-background:new 0 0 256 293.89;" xml:space="preserve">
<style type="text/css">
	.st0{fill:#E3E3E3;}
	.st1{fill:#CB4539;}
	.st2{fill:#67A659;}
	.st3{fill:#3D4047;}
	.st4{fill:#0A0A0A;}
	.st5{fill:#FFFFFF;}
	.st6{fill:#F9F9F9;}
	.st7{fill:#EBBB2D;}
	.st8{fill:#2D2D2D;}
</style>
<g id="BACKGROUND">
</g>
<g id="OBJECTS_1_">
	<g>
		<g>
			<g>
				<path class="st4" d="M216.435,99.376c-2.301-4.83-5.469-9.286-9.272-13.048c-0.516-0.507-1.055-1.018-1.607-1.525
					c-0.333-8.41-1.908-16.751-5.077-24.722c-6.287-15.828-18.572-28.881-35.054-34.049c-1.164-0.37-2.342-0.694-3.529-0.986
					c-3.36-2.328-7.058-4.205-10.971-5.593c-14.55-5.164-30.593-3.821-44.961,1.685c-0.123,0.009-0.251,0.014-0.379,0.023
					c-14.244,0.959-29.959,6.136-39.971,16.737c-0.087,0.091,0.023,0.228,0.128,0.169c6.314-3.447,12.505-6.752,19.362-9.03
					c3.059-1.014,6.182-1.812,9.345-2.392c-2.045,1.187-4.031,2.452-5.944,3.798c-1.612,1.137-3.196,2.342-4.743,3.602
					c-0.297,0.151-0.598,0.306-0.89,0.461c-10.318,2.716-20.006,7.83-27.794,14.966c-15.135,13.861-23.01,34.624-19.111,54.959
					c1.525,7.967,4.78,15.682,9.706,22.124c0.507,1.055,1.045,2.096,1.612,3.118c0.037,2.611,0.283,5.2,0.726,7.743
					c-2.977-3.853-5.593-7.976-8.108-12.24c-0.164-0.278-0.612-0.1-0.52,0.224c2.173,7.524,6.054,14.541,10.966,20.7
					c1.589,4.292,3.771,8.346,6.483,12.025c1.634,3.671,3.794,7.118,6.223,10.135c5.798,7.209,13.546,12.587,22.293,15.586
					c9.076,3.118,18.65,3.611,27.863,1.949c0.657,0.164,1.319,0.315,1.977,0.457c16.614,3.534,35.218-0.064,49.092-10.108
					c8.346-1.625,16.358-5.173,23.088-10.427c6.748-3.027,12.97-7.118,18.275-12.386c7.113-7.063,12.555-16.061,14.555-25.95
					C222.124,117.853,220.599,108.11,216.435,99.376z M182.783,39.391c12.372,11.007,18.422,26.845,19.942,43.016
					c-0.498-0.383-1.009-0.753-1.525-1.109c-0.575-1.981-1.21-3.954-1.904-5.921c-2.936-8.3-7.076-15.892-13.276-22.079
					c-0.256-0.256-0.703,0.073-0.502,0.397c3.908,6.309,7.583,13.012,10.154,20.02c0.648,1.776,1.196,3.561,1.662,5.36
					c-0.767-0.352-1.552-0.648-2.347-0.89c-0.794-1.082-1.616-2.137-2.479-3.136c-0.233-0.274-0.479-0.534-0.712-0.799
					c-3.191-9.19-7.62-17.796-13.5-25.197c-0.68-3.054-1.762-6.04-3.168-8.857c0.096,0.064,0.196,0.123,0.292,0.187
					c3.109,2.018,5.921,4.702,9.222,6.396c0.352,0.183,0.717-0.183,0.534-0.539c-1.502-2.945-4.246-5.282-6.748-7.369
					c-2.379-1.986-4.912-3.776-7.547-5.401c-0.845-1.077-1.744-2.105-2.689-3.082C173.438,32.52,178.369,35.465,182.783,39.391z
					 M198.539,114.086c-0.041-2.452-0.16-4.903-0.329-7.337c-0.425-5.967-1.219-11.98-2.433-17.901
					c1.406,1.968,2.721,4.008,3.917,6.168c0.018,0.233,0.036,0.466,0.05,0.699C200.128,101.915,199.712,108.083,198.539,114.086z
					 M152.492,23.645c-2.735-0.137-5.474-0.027-8.177,0.374c-4.94-0.644-9.934-0.767-14.888-0.374
					c-0.26-0.073-0.52-0.151-0.781-0.219c-3.675-0.972-7.442-1.657-11.236-2.045C128.966,18.86,141.681,19.161,152.492,23.645z
					 M104.121,25.594c0.489-0.018,0.977-0.032,1.466-0.037c1.255-0.014,2.506,0.009,3.753,0.064
					c-3.488,0.543-6.944,1.315-10.341,2.306C100.678,27.092,102.386,26.311,104.121,25.594z M48.486,117.52
					c-0.292,1.379-0.534,2.767-0.717,4.15c-1.488-3.388-2.657-6.921-3.493-10.542c-0.89-3.844-1.329-7.766-1.607-11.701
					c-0.265-3.744,0.493-7.898-0.306-11.546c-0.055-0.26-0.393-0.269-0.52-0.073c-1.534,2.406-1.762,5.743-2.027,8.547
					c-0.315,3.342-0.306,6.634,0.078,9.966c0.329,2.885,0.858,5.72,1.566,8.515c-4.67-11.478-5.652-24.302-1.917-36.565
					C44.573,61.766,56.9,48.326,72.368,41.126c-3.388,2.502-6.579,5.246-9.528,8.213c-4.305,4.337-8.177,9.158-11.368,14.377
					c-3.114,5.086-6.118,10.747-7.181,16.669c-0.064,0.379,0.443,0.648,0.653,0.278c2.497-4.401,4.538-9.03,7.218-13.336
					c2.744-4.406,5.894-8.583,9.391-12.418c3.584-3.922,7.547-7.483,11.82-10.615c-1.995,2.424-3.808,4.985-5.387,7.675
					C52.134,70.053,44.637,94.382,48.486,117.52z M53.709,143.931c-0.023-0.023-0.046-0.046-0.068-0.064
					c-0.42-1.338-0.79-2.694-1.1-4.063c-0.228-0.991-0.415-1.986-0.575-2.99c2.073,2.712,4.374,5.241,6.862,7.556
					c1.552,2.42,3.269,4.785,5.159,7.081c1.05,1.278,2.15,2.502,3.278,3.689C62.424,151.911,57.905,148.131,53.709,143.931z
					 M67.666,169.406c-0.676-0.676-1.319-1.374-1.94-2.077c1.004,0.799,2.036,1.561,3.095,2.283c2.47,1.676,5.611,3.967,8.615,4.319
					c0.219,0.027,0.324-0.292,0.178-0.434c-1.164-1.119-2.684-1.79-4.022-2.671c-1.639-1.087-3.21-2.274-4.702-3.566
					c-2.662-2.306-5.063-4.912-7.191-7.738c-1.16-1.543-2.233-3.15-3.214-4.807c1.831,1.644,3.73,3.187,5.679,4.611
					c5.716,4.182,12.14,7.442,18.887,9.715c4.597,4.41,9.861,8.181,15.491,11.14c-3.926-0.717-7.816-1.758-11.624-3.109
					c-0.794-0.283-1.333,1.014-0.575,1.406c4.739,2.465,9.839,4.168,15.08,5.173C88.931,183.239,76.769,178.528,67.666,169.406z
					 M110.416,181.267c-6.154-1.94-12.062-4.853-17.522-8.642c9.953,4.177,20.764,6.428,31.634,6.798
					c-0.361,0.151-0.721,0.297-1.087,0.443C119.15,180.824,114.786,181.272,110.416,181.267z M149.319,180.377
					c-8.382,3.132-17.075,4.237-25.589,3.525c0.548-0.087,1.091-0.183,1.634-0.283c5.218-0.982,10.227-2.675,14.947-4.985
					c1.388-0.187,2.771-0.393,4.145-0.644c1.566-0.283,3.141-0.635,4.716-1.041c2.433,0.219,4.89,0.26,7.341,0.137
					C154.199,178.35,151.793,179.45,149.319,180.377z M156.623,31.388c3.26,1.032,6.451,2.278,9.542,3.744
					c1.114,0.53,2.205,1.096,3.283,1.685c1.52,2.086,2.817,4.314,3.876,6.638C168.558,38.656,163.02,34.552,156.623,31.388z
					 M217.568,124.541c-2.05,13.952-10.806,25.416-22.142,33.241c0.52-0.648,1.032-1.306,1.52-1.986
					c5.602-7.77,9.77-17.924,9.857-27.662c0.005-0.47-0.635-0.53-0.772-0.11c-2.684,8.218-5.944,16.02-11.541,22.622
					c-5.579,6.583-11.966,11.898-19.741,15.536c-0.023,0.014-0.046,0.023-0.068,0.032c0.931-1.16,1.817-2.36,2.666-3.584
					c5.392-4.41,10.071-9.583,13.578-15.354c1.265-2.082,2.379-4.241,3.319-6.469c0.899-2.146,1.625-4.342,2.214-6.574
					c4.419-9.04,7.122-18.974,7.67-29.237c0.005-0.014,0.009-0.032,0.009-0.05c1.539,4.223,2.812,8.533,4.26,12.815
					c0.055,0.155,0.269,0.123,0.283-0.037c0.552-6.83-1.123-13.756-3.52-20.184c0.256-2.566,0.406-5.141,0.452-7.716
					c2.479,2.502,4.652,5.296,6.465,8.323C216.782,106.024,218.91,115.424,217.568,124.541z"/>
			</g>
			<g>
				<g>
					<path class="st5" d="M125.448,160.698c0,0,0.766,0.313,1.42,0.289c0.41-0.015,0.646-0.102,0.646-0.102
						s-0.211,0.323-0.166,0.617c0.051,0.335,0.376,0.848,0.795,0.829c0.221-0.01-0.183,0.281-0.183,0.434
						c0,0.153,0.12,1.667,0.404,1.931c0.339,0.314,0.54,0.123,0.629,0.123s0.242,0.268,0.408,0.319
						c0.166,0.051,0.74-0.134,0.829-0.829c0.075-0.584,0.51-0.447,0.472-0.089c-0.038,0.357-0.153,1.208-1.191,1.531
						c-0.408,0.102-0.502,0.434-0.213,0.536c0.289,0.102,0.714-0.064,0.689,0.459C129.966,167.239,126.596,167.945,125.448,160.698z
						"/>
					<path class="st5" d="M129.262,162.727c0,0,0.077-0.204,0.306-0.37c0.23-0.166,0.753-0.204,0.906-0.204
						c0.153,0-0.108-0.574-0.817-0.357C128.973,162.005,129.147,162.765,129.262,162.727z"/>
					<path class="st5" d="M123.944,160.03c0,0,0.201-0.086,0.479-0.034c0.279,0.052,0.667,0.404,0.773,0.514
						c0.106,0.111,0.413-0.442-0.305-0.837C124.263,159.328,123.837,159.974,123.944,160.03z"/>
					<path class="st5" d="M128.841,161.847l1.08-0.944c0,0,0.227-0.021,0.349-0.026c0.242-0.008,0.286-0.204-0.2-0.264
						c-0.194-0.024-0.294-0.033-0.374,0.015C129.375,160.817,128.433,161.91,128.841,161.847z"/>
					<path class="st5" d="M124.274,158.976c0,0,0.055-0.465,0.523-0.268c0.561,0.236,0.982,0.817,1.072,1.11
						c0.085,0.281,0,0.293,0,0.293S125.499,159.416,124.274,158.976z"/>
					<path class="st5" d="M122.755,156.692c0,0-1.323,2.9-1.067,5.282c0.256,1.888,0.674,2.362,0.995,2.245
						c0.226-0.082-0.23-0.4-0.17-0.749c0.031-0.181,0.536-0.213,0.408-0.51c-0.128-0.298-0.544-0.298-0.544-0.298
						s0.008-0.527,0.425-0.349s0.851,0.468,1.233,0.757c0.283,0.214,0.544-0.196,0.366-0.425c-0.179-0.23-1.374-0.878-1.676-1.063
						c-0.442-0.272-0.613-0.782-0.251-1.28c0.293-0.404,1.001-1.139,0.772-1.123c-0.459,0.032-0.67-0.37-0.415-0.612
						c0.255-0.242,0.7-0.654,0.517-0.772C123.006,157.576,122.768,157.177,122.755,156.692z"/>
				</g>
				<path class="st5" d="M126.885,79.052c-11.565,0-20.941,9.376-20.941,20.941s9.376,20.941,20.941,20.941
					s20.941-9.376,20.941-20.941S138.45,79.052,126.885,79.052z M126.936,114.24c-7.873,0-14.256-6.382-14.256-14.256
					s6.382-14.256,14.256-14.256s14.256,6.382,14.256,14.256S134.809,114.24,126.936,114.24z"/>
				<path class="st5" d="M126.885,65.928c-18.814,0-34.065,15.252-34.065,34.065s15.252,34.065,34.065,34.065
					s34.065-15.252,34.065-34.065S145.699,65.928,126.885,65.928z M126.965,127.294c-14.973,0-27.111-12.138-27.111-27.111
					s12.138-27.111,27.111-27.111s27.111,12.138,27.111,27.111S141.938,127.294,126.965,127.294z"/>
				<polygon class="st5" points="136.462,36.941 136.462,44.698 117.001,44.698 117.001,36.941 114.756,36.941 114.756,44.698 
					114.756,46.161 117.001,46.161 123.67,46.161 123.687,56.64 120.012,56.64 127.055,65.826 134.353,56.538 130.474,56.538 
					130.474,46.161 136.462,46.161 138.708,46.161 138.708,44.698 138.708,36.941 				"/>
				<polygon class="st5" points="64.589,89.648 72.209,89.648 72.209,108.765 64.589,108.765 64.589,110.971 72.209,110.971 
					73.647,110.971 73.647,108.765 73.647,102.214 83.94,102.198 83.94,105.807 92.964,98.889 83.84,91.72 83.84,95.53 
					73.647,95.53 73.647,89.648 73.647,87.442 72.209,87.442 64.589,87.442 				"/>
				<polygon class="st5" points="96.939,65.994 99.064,68.12 93.732,73.452 91.606,71.326 90.991,71.942 93.116,74.067 
					93.517,74.468 94.133,73.853 95.96,72.026 98.836,74.892 97.829,75.899 102.275,76.486 101.73,71.942 100.667,73.004 
					97.824,70.161 99.465,68.521 100.08,67.905 99.679,67.504 97.554,65.379 				"/>
				<polygon class="st5" points="156.856,65.994 154.731,68.12 160.063,73.452 162.189,71.326 162.804,71.942 160.678,74.067 
					160.278,74.468 159.662,73.853 157.835,72.026 154.959,74.892 155.966,75.899 151.52,76.486 152.065,71.942 153.128,73.004 
					155.971,70.161 154.33,68.521 153.715,67.905 154.116,67.504 156.241,65.379 				"/>
				<polygon class="st5" points="156.141,134.713 154.015,132.588 159.348,127.256 161.473,129.381 162.088,128.766 159.963,126.64 
					159.562,126.24 158.947,126.855 157.12,128.682 154.244,125.815 155.251,124.809 150.804,124.221 151.349,128.766 
					152.412,127.703 155.255,130.546 153.614,132.187 152.999,132.802 153.4,133.203 155.526,135.329 				"/>
				<polygon class="st5" points="97.747,134.79 99.873,132.664 94.541,127.332 92.415,129.458 91.8,128.842 93.925,126.717 
					94.326,126.316 94.941,126.931 96.769,128.759 99.644,125.892 98.638,124.885 103.084,124.298 102.539,128.842 101.476,127.78 
					98.633,130.623 100.274,132.264 100.889,132.879 100.488,133.28 98.363,135.405 				"/>
				<polygon class="st5" points="189.215,89.648 181.594,89.648 181.594,108.765 189.215,108.765 189.215,110.971 181.594,110.971 
					180.157,110.971 180.157,108.765 180.157,102.214 169.864,102.198 169.864,105.807 160.84,98.889 169.964,91.72 169.964,95.53 
					180.157,95.53 180.157,89.648 180.157,87.442 181.594,87.442 189.215,87.442 				"/>
				<polygon class="st5" points="136.462,163.071 136.462,155.314 117.001,155.314 117.001,163.071 114.756,163.071 
					114.756,155.314 114.756,153.851 117.001,153.851 123.67,153.851 123.687,143.372 120.012,143.372 127.055,134.186 
					134.353,143.474 130.474,143.474 130.474,153.851 136.462,153.851 138.708,153.851 138.708,155.314 138.708,163.071 				"/>
				<g>
					<path class="st5" d="M119.106,38.448h1.877v0.232h-0.22c-0.159,0-0.265,0.013-0.317,0.04c-0.053,0.027-0.079,0.061-0.079,0.102
						c0,0.031,0.03,0.09,0.09,0.176l0.878,1.286l0.671-1.02c0.087-0.132,0.13-0.238,0.13-0.318c0-0.08-0.037-0.144-0.111-0.192
						c-0.074-0.047-0.213-0.072-0.417-0.074v-0.232h1.657v0.232c-0.18,0-0.323,0.031-0.427,0.093
						c-0.141,0.082-0.272,0.212-0.391,0.39l-0.943,1.373l1.445,2.083c0.041,0.06,0.092,0.103,0.152,0.128
						c0.06,0.026,0.166,0.04,0.315,0.042v0.232h-1.812v-0.232h0.252c0.122,0,0.206-0.015,0.253-0.045
						c0.046-0.03,0.07-0.067,0.07-0.113c0-0.047-0.031-0.116-0.093-0.207l-0.936-1.356l-0.692,0.991
						c-0.109,0.157-0.164,0.295-0.164,0.414c0,0.101,0.032,0.179,0.096,0.233c0.064,0.055,0.158,0.082,0.281,0.082h0.179v0.232
						h-1.744v-0.232c0.181-0.006,0.344-0.054,0.487-0.144c0.143-0.09,0.284-0.235,0.422-0.437l0.969-1.4l-1.251-1.79
						c-0.099-0.142-0.187-0.233-0.263-0.274c-0.076-0.04-0.198-0.061-0.365-0.063V38.448z"/>
					<path class="st5" d="M123.422,38.448h1.926v0.232h-0.334c-0.138,0-0.232,0.017-0.281,0.049
						c-0.049,0.033-0.074,0.077-0.074,0.133c0,0.043,0.019,0.106,0.056,0.189l0.025,0.065l1.204,3.064l1.065-2.924
						c0.021-0.058,0.031-0.128,0.031-0.21c0-0.115-0.033-0.205-0.1-0.269c-0.067-0.064-0.159-0.096-0.277-0.096h-0.312v-0.232h1.688
						v0.232h-0.136c-0.103,0-0.206,0.049-0.308,0.145c-0.102,0.097-0.194,0.257-0.277,0.479l-1.414,3.824h-0.225l-1.615-4.087
						c-0.056-0.136-0.12-0.23-0.194-0.283c-0.073-0.052-0.173-0.079-0.299-0.079h-0.149V38.448z"/>
					<path class="st5" d="M128.257,38.448h2.108v0.232h-0.362c-0.161,0-0.262,0.02-0.304,0.06c-0.042,0.04-0.063,0.125-0.063,0.255
						v3.462c0,0.138,0.018,0.225,0.056,0.26c0.049,0.047,0.139,0.071,0.269,0.071h0.405v0.232h-2.108v-0.232h0.399
						c0.14,0,0.231-0.021,0.272-0.062c0.041-0.041,0.062-0.131,0.062-0.269v-3.462c0-0.132-0.018-0.213-0.056-0.244
						c-0.058-0.047-0.164-0.071-0.318-0.071h-0.359V38.448z"/>
					<path class="st5" d="M130.835,38.448h2.108v0.232h-0.362c-0.161,0-0.262,0.02-0.304,0.06c-0.042,0.04-0.063,0.125-0.063,0.255
						v3.462c0,0.138,0.018,0.225,0.056,0.26c0.049,0.047,0.139,0.071,0.269,0.071h0.405v0.232h-2.108v-0.232h0.399
						c0.14,0,0.231-0.021,0.272-0.062c0.041-0.041,0.062-0.131,0.062-0.269v-3.462c0-0.132-0.019-0.213-0.056-0.244
						c-0.058-0.047-0.164-0.071-0.318-0.071h-0.359V38.448z"/>
					<path class="st5" d="M133.413,38.448h2.108v0.232h-0.362c-0.161,0-0.262,0.02-0.304,0.06c-0.042,0.04-0.063,0.125-0.063,0.255
						v3.462c0,0.138,0.018,0.225,0.056,0.26c0.049,0.047,0.139,0.071,0.269,0.071h0.405v0.232h-2.108v-0.232h0.399
						c0.14,0,0.231-0.021,0.272-0.062c0.041-0.041,0.062-0.131,0.062-0.269v-3.462c0-0.132-0.018-0.213-0.056-0.244
						c-0.058-0.047-0.164-0.071-0.318-0.071h-0.359V38.448z"/>
				</g>
				<g>
					<g>
						<path class="st5" d="M67.051,94.226c0.56,0.154,0.856,0.586,1.089,1.067c0.14,0.291,0.237,0.603,0.352,0.905
							c0.011,0.03,0.02,0.061,0.031,0.095c0.205-0.049,0.404-0.106,0.607-0.144c0.423-0.079,0.849-0.136,1.277-0.048
							c0.374,0.077,0.687,0.244,0.826,0.63c0.091,0.252,0.064,0.506-0.013,0.756c-0.139,0.455-0.394,0.846-0.692,1.21
							c-0.146,0.178-0.301,0.349-0.452,0.524c0.155,0.179,0.314,0.354,0.463,0.538c0.292,0.36,0.542,0.746,0.68,1.194
							c0.076,0.247,0.102,0.498,0.018,0.747c-0.111,0.327-0.361,0.505-0.678,0.603c-0.347,0.107-0.701,0.099-1.053,0.047
							c-0.326-0.048-0.649-0.12-0.988-0.185c-0.004,0.013-0.016,0.045-0.026,0.078c-0.15,0.486-0.323,0.962-0.633,1.372
							c-0.11,0.146-0.24,0.286-0.385,0.397c-0.388,0.297-0.822,0.271-1.193-0.048c-0.321-0.276-0.529-0.631-0.69-1.014
							c-0.109-0.259-0.197-0.527-0.297-0.798c-0.162,0.04-0.33,0.088-0.5,0.123c-0.451,0.091-0.904,0.158-1.363,0.068
							c-0.41-0.081-0.74-0.27-0.859-0.705c-0.063-0.232-0.033-0.464,0.038-0.691c0.154-0.494,0.441-0.909,0.768-1.299
							c0.121-0.144,0.248-0.282,0.374-0.425c-0.154-0.178-0.311-0.35-0.458-0.531c-0.295-0.362-0.547-0.751-0.687-1.202
							c-0.076-0.247-0.103-0.498-0.018-0.747c0.111-0.326,0.361-0.505,0.679-0.602c0.347-0.106,0.701-0.098,1.053-0.046
							c0.326,0.048,0.649,0.12,0.986,0.185c0.011-0.033,0.03-0.083,0.046-0.135c0.117-0.379,0.257-0.749,0.463-1.09
							c0.229-0.381,0.507-0.707,0.961-0.828C66.869,94.226,66.96,94.226,67.051,94.226z M65.319,99.217
							c0.011,0.264,0.02,0.537,0.035,0.81c0.002,0.032,0.026,0.073,0.053,0.093c0.464,0.336,0.949,0.637,1.456,0.904
							c0.028,0.015,0.076,0.015,0.104,0.001c0.507-0.266,0.992-0.568,1.456-0.903c0.025-0.018,0.051-0.054,0.053-0.083
							c0.037-0.542,0.04-1.085,0.001-1.628c-0.002-0.03-0.025-0.067-0.049-0.085c-0.466-0.338-0.955-0.64-1.464-0.909
							c-0.025-0.013-0.07-0.014-0.096-0.001c-0.51,0.268-0.998,0.571-1.464,0.91c-0.026,0.019-0.049,0.061-0.05,0.094
							C65.339,98.682,65.33,98.945,65.319,99.217z M68.62,101.793c0.304,0.061,0.598,0.131,0.895,0.177
							c0.299,0.046,0.601,0.059,0.9-0.015c0.307-0.076,0.471-0.239,0.489-0.537c0.009-0.147-0.027-0.304-0.076-0.446
							c-0.163-0.469-0.467-0.85-0.79-1.217c-0.078-0.089-0.161-0.175-0.237-0.256c-0.294,0.242-0.577,0.481-0.867,0.711
							c-0.071,0.056-0.1,0.116-0.108,0.203c-0.019,0.207-0.042,0.413-0.073,0.618C68.715,101.277,68.668,101.521,68.62,101.793z
							 M64.027,99.498c-0.334,0.346-0.649,0.715-0.882,1.148c-0.116,0.215-0.209,0.439-0.222,0.688
							c-0.01,0.196,0.044,0.365,0.208,0.486c0.163,0.12,0.352,0.171,0.548,0.171c0.256,0,0.513-0.008,0.766-0.043
							c0.258-0.035,0.51-0.107,0.768-0.164c-0.028-0.141-0.057-0.258-0.074-0.376c-0.049-0.337-0.093-0.674-0.142-1.011
							c-0.007-0.049-0.017-0.112-0.049-0.139C64.647,100.003,64.339,99.754,64.027,99.498z M64.032,98.956
							c0.035-0.03,0.064-0.055,0.093-0.08c0.249-0.209,0.494-0.422,0.749-0.623c0.089-0.07,0.12-0.147,0.13-0.252
							c0.023-0.232,0.053-0.464,0.088-0.695c0.032-0.211,0.076-0.42,0.12-0.657c-0.316-0.06-0.625-0.128-0.938-0.177
							c-0.283-0.044-0.569-0.051-0.851,0.019c-0.325,0.08-0.506,0.282-0.493,0.573c0.006,0.137,0.031,0.279,0.077,0.408
							C63.218,98.053,63.618,98.506,64.032,98.956z M69.806,98.943c0.278-0.291,0.541-0.602,0.76-0.95
							c0.144-0.229,0.271-0.467,0.319-0.736c0.057-0.318,0.003-0.568-0.323-0.709c-0.12-0.052-0.255-0.092-0.384-0.093
							c-0.278-0.002-0.558,0.008-0.833,0.044c-0.245,0.032-0.485,0.106-0.707,0.156c0.07,0.499,0.137,0.974,0.206,1.448
							c0.004,0.029,0.019,0.063,0.041,0.081C69.188,98.437,69.494,98.687,69.806,98.943z M65.67,96.407
							c0.016,0.01,0.026,0.018,0.037,0.023c0.384,0.166,0.767,0.332,1.153,0.494c0.033,0.014,0.082,0.012,0.116-0.003
							c0.114-0.047,0.222-0.107,0.335-0.156c0.28-0.119,0.561-0.235,0.847-0.354c-0.11-0.398-0.245-0.789-0.455-1.15
							c-0.113-0.195-0.241-0.378-0.42-0.519c-0.233-0.184-0.469-0.193-0.707-0.021c-0.07,0.051-0.136,0.112-0.193,0.178
							C66.009,95.336,65.828,95.865,65.67,96.407z M68.157,102.048c-0.408-0.183-0.803-0.362-1.201-0.536
							c-0.031-0.014-0.081,0-0.116,0.015c-0.349,0.148-0.697,0.298-1.046,0.448c-0.041,0.017-0.082,0.033-0.124,0.051
							c0.102,0.381,0.225,0.748,0.417,1.084c0.1,0.176,0.219,0.348,0.357,0.496c0.305,0.324,0.625,0.318,0.94,0.007
							c0.037-0.036,0.071-0.076,0.103-0.117C67.834,103.067,68.007,102.559,68.157,102.048z M68.254,96.78
							c-0.322,0.135-0.618,0.259-0.928,0.389c0.374,0.232,0.729,0.453,1.104,0.686C68.371,97.492,68.315,97.149,68.254,96.78z
							 M65.576,101.663c0.322-0.135,0.619-0.26,0.924-0.388c-0.371-0.232-0.726-0.453-1.101-0.688
							C65.459,100.952,65.515,101.296,65.576,101.663z M65.392,97.859c0.377-0.236,0.731-0.458,1.1-0.689
							c-0.311-0.13-0.611-0.254-0.925-0.385C65.507,97.152,65.451,97.496,65.392,97.859z M67.338,101.272
							c0.307,0.128,0.607,0.254,0.925,0.387c0.059-0.364,0.115-0.711,0.174-1.074C68.056,100.822,67.703,101.044,67.338,101.272z
							 M64.944,99.776c0-0.377,0-0.734,0-1.113c-0.221,0.192-0.428,0.371-0.64,0.555c0.093,0.084,0.173,0.16,0.256,0.231
							C64.682,99.556,64.806,99.659,64.944,99.776z M68.889,98.665c0,0.376,0,0.734,0,1.112c0.217-0.188,0.423-0.367,0.641-0.555
							C69.313,99.034,69.108,98.856,68.889,98.665z"/>
						<path class="st5" d="M66.122,99.225c0.015-0.443,0.336-0.784,0.792-0.793c0.427-0.009,0.79,0.348,0.791,0.783
							c0,0.433-0.318,0.79-0.785,0.796C66.483,100.015,66.142,99.687,66.122,99.225z"/>
					</g>
				</g>
				<path class="st5" d="M129.488,92.057c-3.608,0-6.532,2.925-6.532,6.532s2.925,6.532,6.532,6.532
					c3.608,0,6.532-2.925,6.532-6.532S133.095,92.057,129.488,92.057z M134.285,99.602c-0.663-0.187-0.91,0.086-0.51,0.306
					c0.51,0.281,0.886,0.42,0.697,1.004c-0.255,0.791-0.987,1.956-1.31,1.888c-0.323-0.068-0.34-0.987-0.663-0.732
					c-0.323,0.255-0.17,0.663,0,0.987s-2.552,1.735-2.603,0.817c-0.051-0.919-0.425-0.953-0.442-1.191
					c-0.017-0.238-0.119-0.493-0.289-0.391c-0.17,0.102-0.306,0.544-0.323,0.851c-0.017,0.306-0.102,1.174-0.714,0.987
					c-0.612-0.187-1.65-0.749-1.463-1.038c0.187-0.289-0.034-0.834-0.221-0.697c-0.187,0.136-0.45,0.651-0.868-0.034
					c-0.166-0.272-0.281-1.403,0.017-1.548c0.151-0.073-0.221-2.322,0.527-2.603c0,0,0.897-0.383,1.191,0.527
					c0.274,0.85,0.034,1.633,0.749,2.024c0.714,0.391,1.99,0.68,2.637,0.204c0.646-0.476,0.051-0.959-0.017-1.344
					c-0.102-0.583,0.408-0.919,0.8-0.766c0.391,0.153,0.663,0.697,0.885,0.714c0.221,0.017,0.459-0.153,0.561-0.374
					c0.102-0.221,0.604-0.578,1.174-0.255C134.681,99.269,134.948,99.789,134.285,99.602z"/>
				<path class="st5" d="M115.709,97.399c1.735-1.667,3.883-4.001,10.445-5.171c3.53-0.629,9.202-0.505,12.929,2.416
					c2.518,1.973,2.645,3.64,2.645,3.64l-0.102,2.373c0,0-3.19-4.278-9.348-4.823c-2.484-0.238-6.62-0.359-10.649,3.096
					c-2.653,2.275-3.096,2.339-2.96,2.654c0.171,0.395,1.292,0.857,1.973,2.28c0.783,1.633,2.756,3.334,6.532,4.083
					c1.764,0.424,1.982,0.425,2.722,0.51c0,0-7.791,2.007-13.813-5.376C114.714,101.403,114.285,98.766,115.709,97.399z"/>
				<line class="st5" x1="183.781" y1="97.541" x2="183.997" y2="97.458"/>
				<g>
					<path class="st6" d="M190.208,99.729c0.843-0.455,1.718-0.85,2.885-0.838c-0.044-0.049-0.086-0.093-0.125-0.138
						c-0.042-0.047-0.045-0.092,0.034-0.122c0.072-0.027,0.129-0.006,0.17,0.038c0.091,0.097,0.185,0.193,0.27,0.292
						c0.022,0.025,0.026,0.065,0.013,0.094c-0.064,0.144-0.14,0.285-0.204,0.429c-0.031,0.069-0.112,0.073-0.194,0.086
						c-0.432,0.072-0.873,0.127-1.292,0.224c-0.671,0.155-1.273,0.394-1.779,0.73c-0.041,0.027-0.128,0.039-0.192,0.036
						c-0.986-0.047-1.916,0.067-2.765,0.414c-0.42,0.172-0.787,0.384-1.081,0.647c-0.067,0.06-0.137,0.073-0.238,0.04
						c-0.227-0.074-0.458-0.142-0.683-0.217c-0.056-0.019-0.108-0.053-0.144-0.088c-0.479-0.463-0.871-0.958-1.224-1.465
						c-0.342-0.492-0.656-0.992-0.988-1.487c-0.054-0.08-0.032-0.131,0.083-0.171c0.052-0.018,0.099-0.042,0.15-0.062
						c0.066-0.026,0.131-0.026,0.177,0.02c0.048,0.047,0.015,0.084-0.047,0.113c-0.038,0.018-0.078,0.033-0.132,0.056
						c0.617,0.981,1.25,1.955,2.131,2.867c0.463-0.364,0.986-0.661,1.615-0.871c0.63-0.211,1.301-0.316,2.007-0.336
						c-0.324-0.052-0.65-0.074-0.982-0.055c-0.853,0.047-1.609,0.252-2.28,0.598c-0.115,0.06-0.181,0.049-0.246-0.041
						c-0.676-0.928-1.351-1.857-2.029-2.785c-0.048-0.066-0.024-0.108,0.061-0.149c0.704-0.339,1.469-0.589,2.339-0.676
						c0.535-0.054,1.069-0.045,1.591,0.061c0.08,0.016,0.118,0.006,0.165-0.037c0.647-0.587,1.519-0.942,2.607-1.042
						c0.388-0.036,0.79-0.009,1.186-0.006c0.044,0,0.103,0.027,0.13,0.053c0.768,0.725,1.495,1.467,2.049,2.276
						c0.103,0.15,0.082,0.172-0.166,0.19c-0.9,0.068-1.64,0.343-2.248,0.775c-0.208,0.148-0.38,0.318-0.568,0.479
						C190.241,99.681,190.226,99.706,190.208,99.729z M192.993,98.247c-0.002-0.009-0.001-0.018-0.006-0.025
						c-0.535-0.762-1.22-1.465-1.945-2.152c-0.02-0.019-0.067-0.032-0.104-0.035c-0.405-0.031-0.809-0.022-1.209,0.031
						c-0.949,0.127-1.701,0.455-2.265,0.971c-0.026,0.024-0.033,0.075-0.012,0.101c0.739,0.926,1.482,1.851,2.225,2.776
						c0.012,0.015,0.029,0.029,0.05,0.049C190.432,99.065,191.42,98.414,192.993,98.247z M189.426,99.999
						c-0.02-0.031-0.032-0.051-0.046-0.07c-0.671-0.911-1.369-1.813-2.132-2.693c-0.055-0.064-0.123-0.099-0.226-0.118
						c-0.535-0.097-1.074-0.103-1.616-0.034c-0.754,0.096-1.424,0.315-2.046,0.613c0.655,0.899,1.307,1.795,1.959,2.692
						C186.592,99.803,187.94,99.624,189.426,99.999z M193.196,99.069c-0.087-0.006-0.158-0.014-0.229-0.014
						c-0.566-0.004-1.073,0.125-1.555,0.306c-0.587,0.222-1.091,0.512-1.555,0.834c-0.076,0.053-0.148,0.065-0.258,0.05
						c-0.198-0.027-0.399-0.048-0.6-0.055c-1.103-0.035-2.101,0.158-2.974,0.61c-0.296,0.153-0.561,0.326-0.802,0.529
						c0.173,0.055,0.334,0.108,0.499,0.154c0.026,0.007,0.085-0.012,0.109-0.03c1.026-0.794,2.345-1.115,3.904-1.056
						c0.05,0.002,0.111-0.015,0.153-0.036c0.258-0.129,0.499-0.275,0.77-0.39c0.689-0.293,1.452-0.463,2.259-0.549
						c0.079-0.009,0.128-0.027,0.15-0.081C193.104,99.253,193.15,99.167,193.196,99.069z"/>
					<path class="st5" d="M193.196,99.069c-0.047,0.098-0.092,0.185-0.128,0.273c-0.022,0.054-0.071,0.072-0.15,0.081
						c-0.807,0.087-1.57,0.256-2.259,0.549c-0.271,0.115-0.512,0.261-0.77,0.39c-0.042,0.021-0.103,0.038-0.153,0.036
						c-1.558-0.059-2.878,0.262-3.904,1.056c-0.024,0.018-0.083,0.037-0.109,0.03c-0.165-0.046-0.326-0.1-0.499-0.154
						c0.241-0.202,0.506-0.376,0.802-0.529c0.873-0.452,1.871-0.646,2.974-0.61c0.201,0.006,0.403,0.028,0.6,0.055
						c0.109,0.015,0.182,0.002,0.258-0.05c0.463-0.322,0.967-0.613,1.555-0.834c0.481-0.182,0.989-0.31,1.555-0.306
						C193.038,99.055,193.109,99.063,193.196,99.069z"/>
				</g>
				<ellipse class="st5" cx="126.481" cy="99.193" rx="0.89" ry="1.273"/>
				
					<ellipse transform="matrix(0.866 -0.5 0.5 0.866 -32.1786 79.0603)" class="st5" cx="131.439" cy="99.576" rx="0.775" ry="1.002"/>
			</g>
		</g>
		<g>
			<g>
				<path d="M28.403,240.091c-3.564-0.031-6.601-1.302-9.11-3.812c-2.51-2.51-3.765-5.531-3.765-9.063
					c0-2.293,0.55-4.393,1.65-6.299c1.1-1.906,2.549-3.432,4.346-4.579c-0.155-0.434-0.279-0.867-0.372-1.301
					c-0.093-0.434-0.14-0.884-0.14-1.349c0-2.014,0.721-3.741,2.162-5.183s3.184-2.161,5.229-2.161h3.672v6.646h-3.672
					c-0.248,0-0.434,0.078-0.558,0.232c-0.124,0.155-0.186,0.326-0.186,0.512c0,0.031,0,0.062,0,0.093
					c0.031,0.155,0.108,0.295,0.232,0.418c0.124,0.125,0.294,0.187,0.511,0.187h3.672v6.647h-4.462
					c-1.519,0.186-2.812,0.859-3.881,2.021s-1.604,2.533-1.604,4.114c0,1.704,0.62,3.169,1.859,4.393
					c1.239,1.225,2.711,1.836,4.416,1.836h3.672v6.647H28.403z"/>
				<path d="M49.135,225.866l6.043,14.225h-7.205l-2.417-5.625l-2.417,5.625h-7.205l5.996-14.225l-8.181-19.522h7.205l4.602,10.923
					l4.555-10.923h7.205L49.135,225.866z"/>
				<path d="M74.422,217.058c-2.573,3.084-5.78,5.014-9.622,5.787v17.199h-6.647v-33.7h20.174
					C78.295,210.403,76.994,213.975,74.422,217.058z M64.8,212.99v3.021c0.898-0.31,1.712-0.721,2.44-1.231
					c0.728-0.512,1.386-1.107,1.976-1.79H64.8z"/>
				<path d="M100.173,228.377c-2.634,2.634-5.826,3.951-9.576,3.951c-3.719,0-6.903-1.317-9.552-3.951s-3.974-5.826-3.974-9.576
					c0-3.719,1.325-6.902,3.974-9.552c2.649-2.65,5.833-3.975,9.552-3.975s6.903,1.317,9.552,3.951
					c2.65,2.634,3.975,5.826,3.975,9.575C104.124,222.551,102.807,225.743,100.173,228.377z M77.815,240.044v-6.601h25.612v6.601
					H77.815z M95.409,213.711c-1.41-1.131-2.968-1.696-4.671-1.696c-0.031,0-0.055,0-0.07,0c-0.016,0-0.039,0-0.07,0
					c-1.705,0-3.277,0.565-4.718,1.696c-1.441,1.132-2.162,2.828-2.162,5.09c0,2.294,0.72,4.014,2.162,5.16
					c1.441,1.146,3.028,1.72,4.764,1.72c1.735,0,3.316-0.573,4.742-1.72c1.425-1.146,2.138-2.866,2.138-5.16
					C97.524,216.539,96.818,214.843,95.409,213.711z"/>
				<path d="M106.355,226.378v-4.556h13.015v4.556H106.355z"/>
				<path d="M121.137,240.044v-33.7h6.647v33.7H121.137z"/>
				<path d="M144.354,235.116c-3.3,3.285-7.275,4.928-11.923,4.928l-3.3,0.047c0-5.641,0-11.272,0-16.897c0-5.624,0-11.24,0-16.85
					h3.3c4.648,0,8.623,1.649,11.923,4.95c3.3,3.3,4.95,7.274,4.95,11.923S147.655,231.832,144.354,235.116z M140.705,217.197
					c-1.302-1.75-2.96-2.967-4.974-3.648c0,1.611,0,3.223,0,4.834s0,3.224,0,4.834c0,1.611,0,3.224,0,4.834c0,1.612,0,3.224,0,4.835
					c2.076-0.713,3.749-1.96,5.02-3.742c1.271-1.781,1.906-3.757,1.906-5.927C142.658,220.955,142.007,218.948,140.705,217.197z"/>
				<path d="M162.831,240.044c-2.015,0-3.75-0.721-5.206-2.161c-1.457-1.441-2.185-3.169-2.185-5.184
					c0-0.465,0.046-0.921,0.14-1.371c0.093-0.448,0.216-0.875,0.372-1.278c-1.797-1.146-3.247-2.673-4.346-4.578
					c-1.1-1.906-1.65-4.005-1.65-6.299c0-3.533,1.255-6.554,3.765-9.064c2.51-2.51,5.546-3.765,9.11-3.765h3.672v6.601h-3.672
					c-1.705,0-3.177,0.604-4.416,1.812c-1.24,1.209-1.859,2.681-1.859,4.416c0,1.611,0.526,3.045,1.58,4.3
					c1.053,1.255,2.355,1.883,3.905,1.883h4.462v6.601h-3.672c-0.031,0-0.085,0-0.163,0c-0.078,0-0.147,0.016-0.209,0.046
					c-0.093,0.031-0.186,0.102-0.279,0.21c-0.093,0.108-0.14,0.271-0.14,0.487c0,0.187,0.077,0.357,0.232,0.512
					c0.155,0.155,0.341,0.232,0.558,0.232h3.672v6.601H162.831z"/>
				<path d="M183.609,240.044v-6.043h-9.622v6.043h-6.601v-30.354v-3.021l4.323-0.325c5.082,0,9.436,1.812,13.062,5.438
					c3.625,3.625,5.438,7.979,5.438,13.062v15.2H183.609z M183.609,224.844c0-2.851-0.906-5.369-2.719-7.554
					s-4.114-3.54-6.903-4.067v14.178h9.622V224.844z"/>
				<path d="M214.38,212.944c-1.178,0-2.247,0.372-3.207,1.115c-0.961,0.744-1.597,1.705-1.906,2.882l-3.394,14.131
					c-0.651,2.604-2.053,4.75-4.207,6.438c-2.154,1.689-4.563,2.533-7.229,2.533l-3.161,0.047v-6.601h3.161
					c1.178,0,2.231-0.38,3.161-1.14c0.93-0.759,1.534-1.712,1.813-2.858c0.712-2.943,1.285-5.299,1.72-7.065
					c0.434-1.767,1.007-4.121,1.72-7.065c0.651-2.665,2.053-4.834,4.207-6.508c2.153-1.674,4.594-2.51,7.321-2.51h3.254v6.601
					H214.38z"/>
			</g>
			<g>
				<path d="M32.287,271.353v-8.975c0-1.518-0.465-2.875-1.393-4.071c-0.929-1.196-2.134-1.982-3.617-2.357v15.403h-3.804v-13.876
					c-0.393-0.357-0.831-0.67-1.312-0.938c-0.482-0.268-0.982-0.464-1.5-0.589v15.403H16.83v-19.422c0.071,0,0.147,0,0.228,0
					c0.081,0,0.156,0,0.228,0c0.553,0,1.085,0.005,1.594,0.014s1.022,0.05,1.541,0.12c0.5,0.054,1,0.147,1.5,0.281
					c0.5,0.135,1.018,0.326,1.554,0.576v-0.991h2.197c2.875,0,5.335,1.022,7.38,3.067c2.045,2.045,3.067,4.505,3.067,7.38v8.975
					H32.287z"/>
				<path d="M45.95,271.353v-19.422h3.831v19.422H45.95z"/>
				<path d="M62.679,268.834c-2.009-1.999-3.014-4.401-3.014-7.206c0-2.821,1-5.232,3-7.232c2-2,4.411-3,7.233-3v3.804
					c-1.768,0-3.277,0.629-4.527,1.889c-1.25,1.259-1.875,2.772-1.875,4.54c0,1.769,0.625,3.277,1.875,4.527
					c1.25,1.251,2.759,1.876,4.527,1.876v3.83C67.094,271.844,64.688,270.835,62.679,268.834z"/>
				<path d="M89.132,271.353v-4.688h-4.715v4.688h-3.831v-19.422h3.831v10.93h4.715v-10.93h3.804v19.422H89.132z"/>
				<path d="M116.322,264.629c-1.518,1.518-3.357,2.276-5.518,2.276c-2.143,0-3.979-0.759-5.505-2.276s-2.29-3.357-2.29-5.519
					c0-2.144,0.763-3.979,2.29-5.505c1.527-1.527,3.362-2.291,5.505-2.291s3.978,0.76,5.505,2.277
					c1.527,1.519,2.291,3.357,2.291,5.519S117.84,263.111,116.322,264.629z M103.437,271.353v-3.804h14.761v3.804H103.437z
					 M113.577,256.177c-0.813-0.651-1.71-0.978-2.692-0.978c-0.018,0-0.031,0-0.04,0c-0.009,0-0.022,0-0.04,0
					c-0.982,0-1.889,0.326-2.719,0.978c-0.831,0.652-1.246,1.63-1.246,2.934c0,1.321,0.415,2.312,1.246,2.974
					s1.746,0.991,2.746,0.991s1.911-0.33,2.732-0.991s1.232-1.652,1.232-2.974C114.795,257.807,114.389,256.829,113.577,256.177z"/>
				<path d="M138.048,271.353v-3.482h-5.545v3.482h-3.804V253.86v-1.741l2.492-0.188c2.929,0,5.438,1.045,7.527,3.135
					c2.089,2.089,3.134,4.599,3.134,7.527v8.76H138.048z M138.048,262.593c0-1.643-0.522-3.094-1.567-4.354
					c-1.045-1.259-2.371-2.04-3.978-2.344v8.171h5.545V262.593z"/>
				<path d="M154.535,268.834c-2.009-1.999-3.014-4.401-3.014-7.206c0-2.821,1-5.232,3-7.232c2-2,4.411-3,7.233-3v3.804
					c-1.768,0-3.277,0.629-4.527,1.889c-1.25,1.259-1.875,2.772-1.875,4.54c0,1.769,0.625,3.277,1.875,4.527
					c1.25,1.251,2.759,1.876,4.527,1.876v3.83C158.951,271.844,156.544,270.835,154.535,268.834z"/>
				<path d="M181.685,271.353v-3.482h-5.545v3.482h-3.804V253.86v-1.741l2.492-0.188c2.929,0,5.438,1.045,7.527,3.135
					c2.089,2.089,3.134,4.599,3.134,7.527v8.76H181.685z M176.515,251.448l-0.482-1.125l4.983-2.518l0.777,1.901L176.515,251.448z
					 M181.685,262.593c0-1.643-0.522-3.094-1.567-4.354c-1.045-1.259-2.371-2.04-3.978-2.344v8.171h5.545V262.593z"/>
				<path d="M204.294,271.353v-8.975c0-1.518-0.465-2.875-1.393-4.071c-0.929-1.196-2.134-1.982-3.617-2.357v15.403h-3.804v-19.422
					c1.232,0,2.397,0.045,3.496,0.134c1.099,0.09,2.184,0.394,3.255,0.911c0.339,0.179,0.683,0.375,1.031,0.59
					c0.349,0.214,0.692,0.464,1.032,0.75v-2.385h3.831v19.422H204.294z"/>
			</g>
			<g>
				<path d="M236.517,269.408l-9.138-4.569c-0.067-0.04-0.135-0.07-0.203-0.091c-0.067-0.021-0.135-0.044-0.203-0.071
					c-0.067-0.014-0.135-0.021-0.203-0.021s-0.135,0-0.203,0c-0.515,0-0.971,0.19-1.371,0.569c-0.399,0.379-0.599,0.853-0.599,1.421
					c0,0.637,0.21,1.127,0.629,1.473c0.42,0.345,0.887,0.518,1.401,0.518c0.014,0,0.027,0,0.041,0s0.027,0,0.041,0
					c0.393-0.014,0.758-0.135,1.097-0.365s0.575-0.575,0.71-1.036l2.62,1.3c-0.406,1.016-1.029,1.764-1.868,2.244
					s-1.719,0.721-2.64,0.721c-1.231,0-2.358-0.416-3.381-1.249c-1.022-0.832-1.533-2.034-1.533-3.604
					c0-1.421,0.501-2.592,1.503-3.513s2.139-1.381,3.411-1.381c0.163,0,0.329,0.01,0.498,0.03c0.169,0.021,0.342,0.051,0.518,0.091
					c0.176,0.041,0.349,0.092,0.518,0.152c0.169,0.062,0.335,0.133,0.498,0.214l4.975,2.478v-2.863h2.884V269.408z"/>
				<path d="M230.212,242.502c0.305,0.027,0.606,0.062,0.903,0.102c1.436,0.244,2.745,0.796,3.93,1.655s1.777,2.115,1.777,3.767
					c0,1.652-0.592,2.911-1.777,3.777s-2.494,1.421-3.93,1.665c-0.297,0.041-0.599,0.074-0.903,0.102s-0.599,0.041-0.883,0.041
					c-2.22,0-4.031-0.521-5.432-1.564c-1.401-1.042-2.102-2.382-2.102-4.021c0-1.638,0.701-2.975,2.102-4.011
					c1.401-1.035,3.212-1.553,5.432-1.553C229.613,242.462,229.908,242.476,230.212,242.502z M225.836,246.198
					c-0.771,0.555-1.15,1.171-1.137,1.848c0.013,0.663,0.406,1.272,1.178,1.827c0.771,0.556,1.922,0.833,3.452,0.833
					c0.081,0,0.166,0,0.254,0s0.172-0.007,0.253-0.021c1.029-0.054,1.974-0.298,2.833-0.73c0.86-0.434,1.29-1.076,1.29-1.93
					c0-0.839-0.43-1.476-1.29-1.909c-0.859-0.433-1.804-0.677-2.833-0.73c-0.081-0.014-0.166-0.021-0.253-0.021s-0.173,0-0.254,0
					C227.772,245.365,226.608,245.643,225.836,246.198z"/>
				<path d="M236.517,232.227l-9.138-4.569c-0.067-0.04-0.135-0.07-0.203-0.091c-0.067-0.021-0.135-0.044-0.203-0.071
					c-0.067-0.014-0.135-0.021-0.203-0.021s-0.135,0-0.203,0c-0.515,0-0.971,0.19-1.371,0.569c-0.399,0.379-0.599,0.853-0.599,1.421
					c0,0.637,0.21,1.127,0.629,1.473c0.42,0.345,0.887,0.518,1.401,0.518c0.014,0,0.027,0,0.041,0s0.027,0,0.041,0
					c0.393-0.014,0.758-0.135,1.097-0.365s0.575-0.575,0.71-1.036l2.62,1.3c-0.406,1.016-1.029,1.764-1.868,2.244
					s-1.719,0.721-2.64,0.721c-1.231,0-2.358-0.416-3.381-1.249c-1.022-0.832-1.533-2.034-1.533-3.604
					c0-1.421,0.501-2.592,1.503-3.513s2.139-1.381,3.411-1.381c0.163,0,0.329,0.01,0.498,0.03c0.169,0.021,0.342,0.051,0.518,0.091
					c0.176,0.041,0.349,0.092,0.518,0.152c0.169,0.062,0.335,0.133,0.498,0.214l4.975,2.478v-2.863h2.884V232.227z"/>
				<path d="M225.633,211.068c0.528-1.313,1.276-2.274,2.244-2.884c0.968-0.609,1.98-0.914,3.036-0.914
					c1.476,0,2.83,0.559,4.061,1.676c1.232,1.117,1.848,2.664,1.848,4.64c0,0.325-0.021,0.644-0.061,0.955s-0.108,0.616-0.203,0.913
					h-3.046c0.135-0.284,0.24-0.585,0.315-0.903c0.074-0.317,0.111-0.64,0.111-0.965c-0.013-0.866-0.264-1.658-0.751-2.376
					c-0.488-0.717-1.219-1.076-2.193-1.076c-0.812,0-1.506,0.339-2.082,1.016c-0.575,0.677-0.87,1.496-0.883,2.457l-0.021,2.904
					l-3.31-2.519v2.519h-2.904v-8.347L225.633,211.068z"/>
			</g>
		</g>
	</g>
</g>
</svg>
