<?xml version="1.0" encoding="utf-8"?>
<!-- Generator: Adobe Illustrator 24.3.0, SVG Export Plug-In . SVG Version: 6.00 Build 0)  -->
<svg version="1.1" xmlns="http://www.w3.org/2000/svg" xmlns:xlink="http://www.w3.org/1999/xlink" x="0px" y="0px"
	 width="494.48px" height="164.236px" viewBox="0 0 494.48 164.236" style="enable-background:new 0 0 494.48 164.236;"
	 xml:space="preserve">
<style type="text/css">
	.st0{fill:#E3E3E3;}
	.st1{fill:#CB4539;}
	.st2{fill:#67A659;}
	.st3{fill:#3D4047;}
	.st4{fill:#0A0A0A;}
	.st5{fill:#FFFFFF;}
	.st6{fill:#F9F9F9;}
	.st7{fill:#EBBB2D;}
	.st8{fill:#2D2D2D;}
</style>
<g id="BACKGROUND">
</g>
<g id="OBJECTS_1_">
	<g>
		<g>
			<g>
				<path class="st4" d="M162.257,79.953c-1.977-4.15-4.699-7.979-7.967-11.211c-0.443-0.435-0.906-0.875-1.381-1.31
					c-0.286-7.226-1.64-14.392-4.362-21.241c-5.401-13.6-15.957-24.815-30.118-29.255c-1-0.318-2.012-0.596-3.032-0.847
					c-2.887-2.001-6.064-3.613-9.426-4.805C93.47,6.847,79.685,8,67.341,12.731c-0.106,0.008-0.216,0.012-0.326,0.02
					c-12.239,0.824-25.74,5.272-34.343,14.38c-0.075,0.078,0.02,0.196,0.11,0.145c5.425-2.962,10.744-5.802,16.636-7.759
					c2.628-0.871,5.311-1.557,8.03-2.055c-1.757,1.02-3.464,2.106-5.107,3.264c-1.385,0.977-2.746,2.012-4.076,3.095
					c-0.255,0.129-0.514,0.263-0.765,0.396c-8.865,2.334-17.189,6.727-23.881,12.858C10.615,48.984,3.849,66.824,7.199,84.296
					c1.31,6.845,4.107,13.474,8.34,19.009c0.435,0.906,0.898,1.8,1.385,2.679c0.031,2.244,0.243,4.468,0.624,6.653
					c-2.558-3.311-4.805-6.853-6.967-10.517c-0.141-0.239-0.526-0.086-0.447,0.192c1.867,6.465,5.201,12.494,9.422,17.785
					c1.365,3.687,3.24,7.171,5.57,10.332c1.404,3.154,3.26,6.115,5.347,8.708c4.982,6.194,11.638,10.815,19.154,13.392
					c7.798,2.679,16.024,3.103,23.94,1.675c0.565,0.141,1.134,0.271,1.699,0.392c14.275,3.036,30.259-0.055,42.18-8.685
					c7.171-1.396,14.055-4.444,19.837-8.959c5.798-2.601,11.144-6.115,15.702-10.642c6.111-6.068,10.787-13.8,12.505-22.296
					C167.145,95.828,165.835,87.457,162.257,79.953z M133.343,28.414c10.63,9.458,15.828,23.065,17.134,36.959
					c-0.428-0.329-0.867-0.647-1.31-0.953c-0.494-1.702-1.039-3.397-1.636-5.088c-2.522-7.131-6.08-13.655-11.407-18.97
					c-0.22-0.22-0.604,0.063-0.431,0.341c3.358,5.421,6.516,11.18,8.724,17.201c0.557,1.526,1.028,3.06,1.428,4.605
					c-0.659-0.302-1.334-0.557-2.016-0.765c-0.683-0.93-1.389-1.836-2.13-2.695c-0.2-0.235-0.412-0.459-0.612-0.686
					c-2.742-7.896-6.547-15.29-11.599-21.649c-0.584-2.624-1.514-5.19-2.722-7.61c0.082,0.055,0.169,0.106,0.251,0.161
					c2.671,1.734,5.088,4.04,7.924,5.496c0.302,0.157,0.616-0.157,0.459-0.463c-1.291-2.53-3.648-4.538-5.798-6.331
					c-2.044-1.706-4.221-3.244-6.484-4.641c-0.726-0.926-1.498-1.808-2.31-2.648C125.314,22.51,129.55,25.04,133.343,28.414z
					 M146.88,92.592c-0.035-2.106-0.137-4.213-0.282-6.304c-0.365-5.127-1.047-10.293-2.091-15.381
					c1.208,1.691,2.338,3.444,3.366,5.299c0.016,0.2,0.031,0.4,0.043,0.6C148.245,82.134,147.888,87.434,146.88,92.592z
					 M107.317,14.885c-2.35-0.118-4.703-0.024-7.025,0.322c-4.244-0.553-8.536-0.659-12.792-0.322
					c-0.224-0.063-0.447-0.129-0.671-0.188c-3.158-0.836-6.394-1.424-9.654-1.757C87.103,10.774,98.028,11.033,107.317,14.885z
					 M65.756,16.56c0.42-0.016,0.839-0.027,1.259-0.031c1.079-0.012,2.154,0.008,3.224,0.055c-2.997,0.467-5.966,1.13-8.885,1.981
					C62.798,17.846,64.265,17.175,65.756,16.56z M17.955,95.542c-0.251,1.185-0.459,2.377-0.616,3.566
					c-1.279-2.911-2.283-5.947-3.001-9.057c-0.765-3.303-1.141-6.672-1.381-10.054c-0.228-3.217,0.424-6.786-0.263-9.92
					c-0.047-0.224-0.337-0.231-0.447-0.063c-1.318,2.067-1.514,4.935-1.742,7.343c-0.271,2.871-0.263,5.7,0.067,8.563
					c0.282,2.479,0.737,4.915,1.345,7.316c-4.013-9.862-4.856-20.88-1.648-31.416c4.323-14.18,14.914-25.729,28.204-31.915
					c-2.911,2.15-5.652,4.507-8.187,7.057c-3.699,3.727-7.025,7.869-9.767,12.352c-2.675,4.37-5.256,9.234-6.17,14.322
					c-0.055,0.326,0.38,0.557,0.561,0.239c2.146-3.781,3.899-7.759,6.202-11.458c2.358-3.785,5.064-7.375,8.069-10.67
					c3.079-3.37,6.484-6.429,10.156-9.12c-1.714,2.083-3.271,4.284-4.629,6.594C21.089,54.758,14.648,75.662,17.955,95.542z
					 M22.442,118.235c-0.02-0.02-0.039-0.039-0.059-0.055c-0.361-1.149-0.679-2.314-0.945-3.491
					c-0.196-0.851-0.357-1.706-0.494-2.569c1.781,2.33,3.758,4.503,5.896,6.492c1.334,2.079,2.809,4.111,4.433,6.084
					c0.902,1.098,1.848,2.15,2.816,3.17C29.931,125.091,26.047,121.843,22.442,118.235z M34.434,140.123
					c-0.581-0.581-1.134-1.181-1.667-1.785c0.863,0.686,1.75,1.342,2.66,1.961c2.122,1.44,4.821,3.409,7.402,3.711
					c0.188,0.024,0.278-0.251,0.153-0.373c-1-0.961-2.306-1.538-3.456-2.295c-1.408-0.934-2.758-1.953-4.04-3.064
					c-2.287-1.981-4.35-4.221-6.178-6.649c-0.996-1.326-1.918-2.707-2.762-4.131c1.573,1.412,3.205,2.738,4.88,3.962
					c4.911,3.593,10.43,6.394,16.228,8.347c3.95,3.789,8.473,7.029,13.31,9.571c-3.373-0.616-6.716-1.51-9.987-2.671
					c-0.683-0.243-1.145,0.871-0.494,1.208c4.072,2.118,8.453,3.581,12.957,4.444C52.705,152.009,42.255,147.96,34.434,140.123z
					 M71.165,150.314c-5.288-1.667-10.364-4.17-15.055-7.426c8.551,3.589,17.84,5.523,27.18,5.841
					c-0.31,0.129-0.62,0.255-0.934,0.381C78.669,149.933,74.919,150.318,71.165,150.314z M104.59,149.549
					c-7.202,2.691-14.671,3.64-21.986,3.028c0.471-0.075,0.938-0.157,1.404-0.243c4.484-0.843,8.787-2.299,12.843-4.284
					c1.192-0.161,2.381-0.337,3.562-0.553c1.345-0.243,2.699-0.545,4.052-0.894c2.091,0.188,4.201,0.224,6.308,0.118
					C108.784,147.807,106.716,148.753,104.59,149.549z M110.866,21.537c2.801,0.887,5.543,1.957,8.198,3.217
					c0.957,0.455,1.895,0.941,2.82,1.447c1.306,1.793,2.42,3.707,3.33,5.704C121.12,27.782,116.362,24.256,110.866,21.537z
					 M163.23,101.575c-1.761,11.988-9.285,21.837-19.025,28.561c0.447-0.557,0.887-1.122,1.306-1.706
					c4.813-6.676,8.394-15.4,8.469-23.767c0.004-0.404-0.545-0.455-0.663-0.094c-2.307,7.061-5.107,13.765-9.916,19.437
					c-4.793,5.656-10.281,10.222-16.962,13.349c-0.02,0.012-0.039,0.02-0.059,0.027c0.8-0.996,1.561-2.028,2.291-3.079
					c4.633-3.789,8.653-8.234,11.666-13.192c1.087-1.789,2.044-3.644,2.852-5.558c0.773-1.844,1.396-3.73,1.902-5.649
					c3.797-7.767,6.119-16.303,6.59-25.121c0.004-0.012,0.008-0.027,0.008-0.043c1.322,3.628,2.416,7.331,3.66,11.011
					c0.047,0.133,0.231,0.106,0.243-0.031c0.475-5.868-0.965-11.819-3.024-17.342c0.22-2.205,0.349-4.417,0.388-6.629
					c2.13,2.15,3.997,4.55,5.554,7.151C162.555,85.665,164.383,93.742,163.23,101.575z"/>
			</g>
			<g>
				<g>
					<path class="st5" d="M84.08,132.641c0,0,0.659,0.269,1.22,0.248c0.353-0.013,0.555-0.088,0.555-0.088s-0.181,0.278-0.143,0.53
						c0.044,0.288,0.323,0.729,0.683,0.713c0.19-0.009-0.157,0.241-0.157,0.373s0.103,1.432,0.347,1.659
						c0.291,0.27,0.464,0.106,0.541,0.106s0.208,0.23,0.351,0.274s0.636-0.115,0.713-0.713c0.064-0.502,0.438-0.384,0.406-0.077
						c-0.033,0.307-0.132,1.038-1.023,1.315c-0.351,0.088-0.431,0.373-0.183,0.46c0.248,0.088,0.614-0.055,0.592,0.395
						C87.962,138.261,85.067,138.868,84.08,132.641z"/>
					<path class="st5" d="M87.358,134.384c0,0,0.066-0.175,0.263-0.318c0.197-0.143,0.647-0.175,0.778-0.175
						s-0.093-0.493-0.702-0.307C87.109,133.764,87.259,134.417,87.358,134.384z"/>
					<path class="st5" d="M82.788,132.067c0,0,0.172-0.074,0.412-0.029s0.573,0.347,0.664,0.442
						c0.091,0.095,0.355-0.379-0.262-0.719C83.063,131.464,82.696,132.019,82.788,132.067z"/>
					<path class="st5" d="M86.996,133.628l0.928-0.811c0,0,0.195-0.018,0.3-0.022c0.208-0.007,0.246-0.176-0.172-0.227
						c-0.166-0.02-0.252-0.028-0.322,0.013C87.455,132.743,86.645,133.683,86.996,133.628z"/>
					<path class="st5" d="M83.072,131.161c0,0,0.047-0.399,0.449-0.23c0.482,0.203,0.844,0.702,0.921,0.954
						c0.073,0.241,0,0.252,0,0.252S84.124,131.54,83.072,131.161z"/>
					<path class="st5" d="M81.767,129.199c0,0-1.136,2.492-0.917,4.538c0.22,1.622,0.579,2.029,0.855,1.929
						c0.194-0.07-0.197-0.343-0.146-0.643c0.026-0.155,0.46-0.183,0.351-0.438c-0.11-0.256-0.468-0.256-0.468-0.256
						s0.007-0.453,0.365-0.3c0.358,0.153,0.731,0.402,1.06,0.65c0.243,0.184,0.468-0.168,0.314-0.365
						c-0.153-0.197-1.181-0.754-1.44-0.914c-0.38-0.234-0.526-0.672-0.216-1.1c0.252-0.347,0.86-0.978,0.663-0.965
						c-0.395,0.027-0.576-0.318-0.356-0.526c0.219-0.208,0.602-0.562,0.444-0.663C81.982,129.959,81.778,129.616,81.767,129.199z"/>
				</g>
				<path class="st5" d="M85.315,62.491c-9.937,0-17.993,8.056-17.993,17.993s8.056,17.993,17.993,17.993
					c9.937,0,17.993-8.056,17.993-17.993S95.252,62.491,85.315,62.491z M85.359,92.724c-6.765,0-12.248-5.484-12.248-12.248
					c0-6.765,5.484-12.248,12.248-12.248c6.765,0,12.248,5.484,12.248,12.248C97.607,87.241,92.124,92.724,85.359,92.724z"/>
				<path class="st5" d="M85.315,51.214c-16.165,0-29.269,13.104-29.269,29.269s13.104,29.269,29.269,29.269
					s29.269-13.104,29.269-29.269S101.48,51.214,85.315,51.214z M85.384,103.941c-12.865,0-23.294-10.429-23.294-23.294
					s10.429-23.294,23.294-23.294s23.294,10.429,23.294,23.294S98.248,103.941,85.384,103.941z"/>
				<polygon class="st5" points="93.544,26.308 93.544,32.973 76.823,32.973 76.823,26.308 74.894,26.308 74.894,32.973 
					74.894,34.23 76.823,34.23 82.553,34.23 82.567,43.234 79.41,43.234 85.461,51.127 91.732,43.146 88.399,43.146 88.399,34.23 
					93.544,34.23 95.473,34.23 95.473,32.973 95.473,26.308 				"/>
				<polygon class="st5" points="31.791,71.595 38.338,71.595 38.338,88.02 31.791,88.02 31.791,89.915 38.338,89.915 
					39.573,89.915 39.573,88.02 39.573,82.392 48.417,82.377 48.417,85.479 56.17,79.535 48.331,73.375 48.331,76.649 
					39.573,76.649 39.573,71.595 39.573,69.699 38.338,69.699 31.791,69.699 				"/>
				<polygon class="st5" points="59.585,51.271 61.411,53.098 56.83,57.679 55.004,55.853 54.475,56.382 56.301,58.208 
					56.646,58.552 57.174,58.023 58.744,56.454 61.215,58.917 60.35,59.782 64.171,60.286 63.702,56.382 62.789,57.295 
					60.346,54.852 61.756,53.442 62.284,52.913 61.94,52.569 60.114,50.743 				"/>
				<polygon class="st5" points="111.067,51.271 109.241,53.098 113.822,57.679 115.648,55.853 116.177,56.382 114.351,58.208 
					114.006,58.552 113.478,58.023 111.908,56.454 109.437,58.917 110.302,59.782 106.481,60.286 106.95,56.382 107.863,57.295 
					110.306,54.852 108.896,53.442 108.367,52.913 108.712,52.569 110.538,50.743 				"/>
				<polygon class="st5" points="110.452,110.315 108.626,108.489 113.207,103.907 115.033,105.734 115.562,105.205 
					113.736,103.379 113.391,103.034 112.863,103.563 111.293,105.133 108.822,102.67 109.687,101.805 105.866,101.3 
					106.335,105.205 107.248,104.292 109.691,106.735 108.281,108.144 107.753,108.673 108.097,109.017 109.923,110.844 				"/>
				<polygon class="st5" points="60.28,110.381 62.106,108.555 57.525,103.973 55.699,105.799 55.17,105.271 56.996,103.444 
					57.341,103.1 57.869,103.629 59.439,105.199 61.91,102.736 61.045,101.871 64.866,101.366 64.397,105.271 63.484,104.358 
					61.041,106.8 62.451,108.21 62.979,108.739 62.635,109.083 60.809,110.909 				"/>
				<polygon class="st5" points="138.869,71.595 132.322,71.595 132.322,88.02 138.869,88.02 138.869,89.915 132.322,89.915 
					131.087,89.915 131.087,88.02 131.087,82.392 122.242,82.377 122.242,85.479 114.489,79.535 122.329,73.375 122.329,76.649 
					131.087,76.649 131.087,71.595 131.087,69.699 132.322,69.699 138.869,69.699 				"/>
				<polygon class="st5" points="93.544,134.68 93.544,128.015 76.823,128.015 76.823,134.68 74.894,134.68 74.894,128.015 
					74.894,126.758 76.823,126.758 82.553,126.758 82.567,117.755 79.41,117.755 85.461,109.862 91.732,117.842 88.399,117.842 
					88.399,126.758 93.544,126.758 95.473,126.758 95.473,128.015 95.473,134.68 				"/>
				<g>
					<path class="st5" d="M78.632,27.604h1.612v0.199h-0.189c-0.137,0-0.227,0.012-0.273,0.035
						c-0.045,0.023-0.068,0.052-0.068,0.088c0,0.027,0.026,0.077,0.077,0.151l0.754,1.105l0.577-0.877
						c0.074-0.113,0.112-0.205,0.112-0.274c0-0.069-0.032-0.124-0.096-0.165c-0.064-0.041-0.183-0.062-0.358-0.064v-0.199h1.424
						v0.199c-0.155,0-0.277,0.027-0.367,0.08c-0.122,0.071-0.233,0.182-0.336,0.335l-0.81,1.18l1.241,1.79
						c0.035,0.051,0.079,0.088,0.131,0.11c0.052,0.022,0.142,0.034,0.271,0.036v0.199h-1.556v-0.199h0.216
						c0.105,0,0.177-0.013,0.217-0.039c0.04-0.026,0.06-0.058,0.06-0.097c0-0.041-0.027-0.1-0.08-0.178l-0.804-1.165l-0.594,0.852
						c-0.094,0.135-0.141,0.253-0.141,0.356c0,0.087,0.027,0.154,0.082,0.201c0.055,0.047,0.135,0.07,0.242,0.07h0.154v0.199h-1.498
						v-0.199c0.156-0.005,0.295-0.046,0.418-0.124s0.244-0.202,0.363-0.376l0.833-1.203l-1.075-1.538
						c-0.085-0.122-0.16-0.201-0.226-0.235c-0.066-0.035-0.17-0.053-0.313-0.054V27.604z"/>
					<path class="st5" d="M82.34,27.604h1.655v0.199h-0.287c-0.119,0-0.199,0.014-0.242,0.043c-0.043,0.028-0.064,0.066-0.064,0.114
						c0,0.037,0.016,0.091,0.048,0.162l0.021,0.056l1.034,2.632l0.915-2.513c0.018-0.05,0.027-0.11,0.027-0.181
						c0-0.099-0.029-0.176-0.086-0.231c-0.058-0.055-0.137-0.082-0.238-0.082h-0.268v-0.199h1.45v0.199h-0.117
						c-0.089,0-0.177,0.042-0.264,0.125c-0.088,0.083-0.167,0.22-0.238,0.412l-1.215,3.286h-0.193l-1.388-3.512
						c-0.048-0.117-0.103-0.198-0.166-0.243c-0.063-0.045-0.148-0.068-0.257-0.068H82.34V27.604z"/>
					<path class="st5" d="M86.494,27.604h1.812v0.199h-0.311c-0.138,0-0.225,0.017-0.262,0.052
						c-0.036,0.035-0.054,0.108-0.054,0.219v2.975c0,0.119,0.016,0.193,0.048,0.223c0.042,0.041,0.12,0.061,0.231,0.061h0.348v0.199
						h-1.812v-0.199h0.343c0.12,0,0.198-0.018,0.234-0.053c0.035-0.035,0.053-0.112,0.053-0.231v-2.975
						c0-0.113-0.016-0.183-0.048-0.21c-0.049-0.041-0.141-0.061-0.274-0.061h-0.308V27.604z"/>
					<path class="st5" d="M88.709,27.604h1.812v0.199H90.21c-0.138,0-0.225,0.017-0.262,0.052c-0.036,0.035-0.054,0.108-0.054,0.219
						v2.975c0,0.119,0.016,0.193,0.048,0.223c0.042,0.041,0.12,0.061,0.231,0.061h0.348v0.199h-1.812v-0.199h0.343
						c0.12,0,0.198-0.018,0.234-0.053c0.035-0.035,0.053-0.112,0.053-0.231v-2.975c0-0.113-0.016-0.183-0.048-0.21
						c-0.049-0.041-0.141-0.061-0.274-0.061h-0.308V27.604z"/>
					<path class="st5" d="M90.924,27.604h1.812v0.199h-0.311c-0.138,0-0.225,0.017-0.262,0.052
						c-0.036,0.035-0.054,0.108-0.054,0.219v2.975c0,0.119,0.016,0.193,0.048,0.223c0.042,0.041,0.12,0.061,0.231,0.061h0.348v0.199
						h-1.812v-0.199h0.343c0.12,0,0.198-0.018,0.234-0.053c0.035-0.035,0.053-0.112,0.053-0.231v-2.975
						c0-0.113-0.016-0.183-0.048-0.21c-0.05-0.041-0.141-0.061-0.274-0.061h-0.308V27.604z"/>
				</g>
				<g>
					<g>
						<path class="st5" d="M33.906,75.529c0.481,0.132,0.736,0.503,0.936,0.917c0.121,0.25,0.203,0.518,0.303,0.778
							c0.01,0.026,0.017,0.052,0.027,0.081c0.176-0.042,0.347-0.091,0.521-0.124c0.363-0.068,0.729-0.117,1.097-0.042
							c0.322,0.066,0.59,0.209,0.71,0.541c0.078,0.216,0.055,0.435-0.011,0.65c-0.12,0.391-0.339,0.727-0.594,1.04
							c-0.125,0.153-0.258,0.3-0.389,0.45c0.133,0.154,0.27,0.304,0.398,0.462c0.251,0.309,0.466,0.641,0.584,1.026
							c0.065,0.212,0.088,0.428,0.016,0.642c-0.095,0.281-0.31,0.434-0.583,0.518c-0.298,0.092-0.602,0.085-0.905,0.04
							c-0.28-0.041-0.558-0.103-0.849-0.159c-0.004,0.011-0.014,0.039-0.022,0.067c-0.129,0.417-0.278,0.826-0.544,1.179
							c-0.095,0.126-0.206,0.246-0.331,0.341c-0.334,0.255-0.706,0.233-1.025-0.041c-0.276-0.237-0.455-0.542-0.593-0.871
							c-0.094-0.223-0.169-0.453-0.255-0.686c-0.139,0.035-0.283,0.076-0.429,0.105c-0.387,0.078-0.777,0.136-1.171,0.059
							c-0.352-0.069-0.636-0.232-0.738-0.606c-0.054-0.2-0.028-0.398,0.033-0.594c0.132-0.424,0.379-0.781,0.66-1.116
							c0.104-0.124,0.213-0.243,0.322-0.365c-0.132-0.153-0.267-0.301-0.394-0.456c-0.253-0.311-0.47-0.645-0.59-1.033
							c-0.066-0.212-0.088-0.428-0.015-0.642c0.096-0.28,0.31-0.434,0.583-0.517c0.298-0.091,0.602-0.085,0.905-0.04
							c0.28,0.042,0.558,0.104,0.847,0.159c0.01-0.028,0.026-0.072,0.039-0.116c0.1-0.326,0.221-0.643,0.397-0.937
							c0.197-0.327,0.436-0.607,0.826-0.711C33.749,75.529,33.828,75.529,33.906,75.529z M32.417,79.817
							c0.009,0.227,0.017,0.462,0.03,0.696c0.002,0.028,0.023,0.063,0.045,0.08c0.398,0.288,0.815,0.548,1.251,0.776
							c0.024,0.013,0.066,0.013,0.089,0.001c0.436-0.228,0.852-0.488,1.251-0.776c0.022-0.016,0.044-0.046,0.045-0.071
							c0.032-0.466,0.034-0.932,0.001-1.398c-0.002-0.025-0.021-0.057-0.042-0.073c-0.4-0.291-0.82-0.55-1.258-0.781
							c-0.022-0.012-0.06-0.012-0.082-0.001c-0.438,0.23-0.857,0.491-1.257,0.782c-0.023,0.016-0.042,0.052-0.043,0.08
							C32.435,79.357,32.427,79.583,32.417,79.817z M35.253,82.03c0.262,0.053,0.514,0.113,0.769,0.152
							c0.257,0.039,0.516,0.051,0.773-0.013c0.264-0.066,0.405-0.205,0.42-0.461c0.008-0.126-0.023-0.262-0.065-0.383
							c-0.14-0.403-0.402-0.73-0.678-1.046c-0.067-0.077-0.139-0.15-0.204-0.22c-0.253,0.208-0.496,0.413-0.745,0.611
							c-0.061,0.048-0.086,0.1-0.093,0.174c-0.016,0.178-0.036,0.355-0.063,0.531C35.336,81.586,35.295,81.796,35.253,82.03z
							 M31.308,80.058c-0.287,0.297-0.558,0.615-0.758,0.986c-0.1,0.185-0.18,0.377-0.191,0.591
							c-0.009,0.169,0.038,0.314,0.179,0.418c0.14,0.103,0.303,0.147,0.471,0.147c0.22,0,0.441-0.007,0.658-0.037
							c0.221-0.03,0.438-0.092,0.66-0.141c-0.024-0.121-0.049-0.221-0.064-0.323c-0.042-0.289-0.08-0.579-0.122-0.869
							c-0.006-0.042-0.014-0.096-0.042-0.12C31.84,80.492,31.576,80.278,31.308,80.058z M31.312,79.592
							c0.03-0.026,0.055-0.047,0.08-0.069c0.214-0.179,0.425-0.363,0.644-0.535c0.076-0.06,0.103-0.126,0.112-0.217
							c0.02-0.2,0.045-0.399,0.076-0.597c0.028-0.181,0.065-0.36,0.103-0.565c-0.271-0.052-0.537-0.11-0.806-0.152
							c-0.243-0.038-0.489-0.044-0.732,0.016c-0.279,0.069-0.435,0.242-0.424,0.493c0.005,0.118,0.026,0.24,0.067,0.35
							C30.613,78.816,30.956,79.205,31.312,79.592z M36.272,79.581c0.239-0.25,0.465-0.518,0.653-0.817
							c0.124-0.197,0.233-0.401,0.274-0.633c0.049-0.273,0.003-0.488-0.277-0.609c-0.103-0.044-0.219-0.079-0.33-0.08
							c-0.239-0.002-0.479,0.007-0.716,0.038c-0.211,0.028-0.416,0.091-0.608,0.134c0.06,0.428,0.118,0.836,0.177,1.244
							c0.004,0.025,0.016,0.054,0.035,0.07C35.742,79.146,36.005,79.361,36.272,79.581z M32.719,77.402
							c0.014,0.008,0.022,0.015,0.032,0.02c0.33,0.142,0.659,0.285,0.99,0.424c0.028,0.012,0.071,0.01,0.1-0.002
							c0.098-0.041,0.191-0.092,0.288-0.134c0.24-0.103,0.482-0.202,0.728-0.305c-0.094-0.342-0.21-0.678-0.391-0.988
							c-0.097-0.167-0.207-0.325-0.361-0.446c-0.201-0.158-0.403-0.166-0.607-0.018c-0.06,0.044-0.117,0.096-0.165,0.153
							C33.01,76.482,32.855,76.936,32.719,77.402z M34.856,82.249c-0.351-0.157-0.69-0.311-1.032-0.461
							c-0.027-0.012-0.069,0-0.1,0.013c-0.3,0.127-0.599,0.256-0.898,0.385c-0.035,0.015-0.07,0.029-0.106,0.043
							c0.088,0.328,0.193,0.642,0.358,0.931c0.086,0.151,0.188,0.299,0.307,0.426c0.262,0.278,0.537,0.273,0.807,0.006
							c0.032-0.031,0.061-0.066,0.089-0.1C34.578,83.124,34.727,82.688,34.856,82.249z M34.939,77.723
							c-0.276,0.116-0.531,0.223-0.797,0.335c0.321,0.2,0.626,0.389,0.949,0.589C35.04,78.334,34.991,78.039,34.939,77.723z
							 M32.638,81.918c0.277-0.116,0.532-0.224,0.794-0.334c-0.319-0.199-0.624-0.39-0.946-0.591
							C32.538,81.307,32.586,81.603,32.638,81.918z M32.481,78.65c0.324-0.203,0.628-0.393,0.945-0.592
							c-0.267-0.111-0.525-0.219-0.795-0.331C32.579,78.042,32.531,78.338,32.481,78.65z M34.152,81.582
							c0.264,0.11,0.522,0.218,0.795,0.333c0.051-0.313,0.099-0.611,0.149-0.923C34.77,81.196,34.466,81.386,34.152,81.582z
							 M32.095,80.297c0-0.324,0-0.631,0-0.956c-0.19,0.165-0.367,0.319-0.55,0.477c0.08,0.073,0.149,0.137,0.22,0.199
							C31.87,80.108,31.977,80.197,32.095,80.297z M35.485,79.342c0,0.323,0,0.63,0,0.955c0.186-0.162,0.364-0.315,0.55-0.477
							C35.849,79.659,35.673,79.506,35.485,79.342z"/>
						<path class="st5" d="M33.108,79.823c0.012-0.381,0.289-0.673,0.68-0.682c0.366-0.008,0.679,0.299,0.679,0.673
							c0,0.372-0.274,0.679-0.674,0.684C33.418,80.502,33.125,80.22,33.108,79.823z"/>
					</g>
				</g>
				<path class="st5" d="M87.551,73.665c-3.1,0-5.613,2.513-5.613,5.613c0,3.1,2.513,5.613,5.613,5.613
					c3.1,0,5.613-2.513,5.613-5.613C93.164,76.178,90.651,73.665,87.551,73.665z M91.673,80.147
					c-0.57-0.161-0.782,0.074-0.438,0.263c0.438,0.241,0.761,0.361,0.599,0.862c-0.219,0.68-0.848,1.681-1.125,1.622
					c-0.278-0.058-0.292-0.848-0.57-0.629c-0.278,0.219-0.146,0.57,0,0.848c0.146,0.278-2.192,1.491-2.236,0.702
					c-0.044-0.789-0.365-0.819-0.38-1.023c-0.015-0.205-0.102-0.424-0.248-0.336c-0.146,0.088-0.263,0.468-0.278,0.731
					c-0.015,0.263-0.088,1.009-0.614,0.848c-0.526-0.161-1.418-0.643-1.257-0.892c0.161-0.248-0.029-0.716-0.19-0.599
					c-0.161,0.117-0.387,0.559-0.745-0.029c-0.142-0.234-0.241-1.206,0.015-1.33c0.129-0.063-0.19-1.995,0.453-2.236
					c0,0,0.771-0.329,1.023,0.453c0.235,0.73,0.029,1.403,0.643,1.739c0.614,0.336,1.71,0.585,2.266,0.175
					c0.555-0.409,0.043-0.824-0.015-1.155c-0.088-0.501,0.351-0.789,0.687-0.658c0.336,0.132,0.57,0.599,0.76,0.614
					c0.19,0.015,0.395-0.132,0.482-0.322c0.088-0.19,0.519-0.497,1.009-0.219C92.013,79.861,92.243,80.308,91.673,80.147z"/>
				<path class="st5" d="M75.712,78.254c1.491-1.432,3.336-3.438,8.974-4.443c3.033-0.541,7.906-0.434,11.108,2.076
					c2.163,1.695,2.273,3.128,2.273,3.128l-0.088,2.039c0,0-2.741-3.676-8.032-4.144c-2.134-0.205-5.688-0.309-9.15,2.66
					c-2.279,1.955-2.66,2.01-2.543,2.28c0.147,0.339,1.11,0.737,1.695,1.959c0.672,1.403,2.368,2.865,5.613,3.508
					c1.516,0.365,1.703,0.365,2.339,0.438c0,0-6.694,1.725-11.868-4.619C74.858,81.695,74.49,79.429,75.712,78.254z"/>
				<line class="st5" x1="134.2" y1="78.376" x2="134.386" y2="78.305"/>
				<g>
					<path class="st6" d="M139.722,80.257c0.724-0.391,1.476-0.73,2.479-0.72c-0.038-0.042-0.074-0.08-0.108-0.118
						c-0.036-0.04-0.039-0.079,0.029-0.105c0.062-0.023,0.111-0.005,0.146,0.032c0.078,0.083,0.159,0.165,0.232,0.251
						c0.019,0.022,0.022,0.056,0.012,0.08c-0.055,0.123-0.121,0.245-0.175,0.368c-0.026,0.059-0.097,0.062-0.167,0.074
						c-0.371,0.062-0.75,0.109-1.11,0.192c-0.577,0.133-1.093,0.339-1.528,0.627c-0.035,0.024-0.11,0.033-0.165,0.031
						c-0.847-0.04-1.646,0.058-2.376,0.355c-0.361,0.147-0.676,0.33-0.929,0.556c-0.058,0.052-0.118,0.063-0.205,0.034
						c-0.195-0.063-0.393-0.122-0.587-0.187c-0.048-0.016-0.092-0.046-0.124-0.076c-0.411-0.398-0.749-0.823-1.052-1.259
						c-0.294-0.423-0.564-0.852-0.849-1.277c-0.046-0.069-0.028-0.113,0.072-0.147c0.045-0.015,0.085-0.036,0.129-0.053
						c0.057-0.022,0.112-0.023,0.152,0.017c0.041,0.041,0.013,0.072-0.041,0.097c-0.033,0.015-0.067,0.029-0.113,0.048
						c0.53,0.843,1.074,1.68,1.831,2.464c0.398-0.313,0.847-0.568,1.388-0.749c0.542-0.181,1.118-0.271,1.725-0.289
						c-0.279-0.044-0.558-0.063-0.844-0.047c-0.733,0.04-1.382,0.217-1.959,0.514c-0.099,0.051-0.156,0.042-0.212-0.035
						c-0.581-0.798-1.161-1.595-1.743-2.393c-0.041-0.057-0.02-0.093,0.052-0.128c0.605-0.292,1.262-0.506,2.01-0.581
						c0.46-0.046,0.918-0.039,1.367,0.053c0.068,0.014,0.101,0.005,0.142-0.032c0.556-0.505,1.305-0.809,2.24-0.896
						c0.334-0.031,0.679-0.008,1.019-0.005c0.038,0,0.088,0.024,0.112,0.046c0.66,0.623,1.284,1.261,1.76,1.955
						c0.089,0.129,0.071,0.147-0.142,0.164c-0.774,0.058-1.409,0.295-1.931,0.666c-0.179,0.127-0.327,0.273-0.488,0.412
						C139.751,80.215,139.738,80.237,139.722,80.257z M142.115,78.983c-0.002-0.008-0.001-0.016-0.006-0.022
						c-0.46-0.654-1.049-1.258-1.671-1.849c-0.017-0.016-0.058-0.028-0.089-0.03c-0.348-0.026-0.695-0.019-1.039,0.027
						c-0.815,0.109-1.462,0.391-1.946,0.834c-0.023,0.021-0.028,0.065-0.01,0.087c0.635,0.796,1.273,1.591,1.912,2.385
						c0.011,0.013,0.025,0.025,0.043,0.042C139.915,79.686,140.764,79.127,142.115,78.983z M139.051,80.489
						c-0.017-0.027-0.027-0.044-0.039-0.06c-0.577-0.783-1.176-1.558-1.832-2.314c-0.047-0.055-0.105-0.085-0.194-0.101
						c-0.46-0.083-0.923-0.089-1.388-0.029c-0.648,0.083-1.223,0.27-1.758,0.527c0.562,0.773,1.123,1.543,1.683,2.313
						C136.615,80.32,137.774,80.166,139.051,80.489z M142.29,79.689c-0.075-0.005-0.136-0.012-0.197-0.012
						c-0.486-0.003-0.922,0.107-1.336,0.263c-0.505,0.191-0.938,0.44-1.336,0.717c-0.065,0.045-0.128,0.056-0.221,0.043
						c-0.17-0.023-0.343-0.041-0.516-0.047c-0.948-0.03-1.805,0.136-2.556,0.524c-0.254,0.131-0.482,0.28-0.689,0.454
						c0.149,0.047,0.287,0.093,0.428,0.133c0.022,0.006,0.073-0.01,0.094-0.026c0.882-0.682,2.015-0.958,3.354-0.907
						c0.043,0.002,0.096-0.013,0.132-0.031c0.222-0.111,0.429-0.236,0.662-0.335c0.592-0.252,1.248-0.398,1.941-0.472
						c0.068-0.007,0.11-0.023,0.129-0.07C142.211,79.848,142.25,79.773,142.29,79.689z"/>
					<path class="st5" d="M142.29,79.689c-0.04,0.084-0.079,0.159-0.11,0.234c-0.019,0.047-0.061,0.062-0.129,0.07
						c-0.693,0.074-1.349,0.22-1.941,0.472c-0.233,0.099-0.44,0.225-0.662,0.335c-0.036,0.018-0.088,0.033-0.132,0.031
						c-1.339-0.051-2.473,0.225-3.354,0.907c-0.02,0.016-0.071,0.032-0.094,0.026c-0.142-0.04-0.28-0.086-0.428-0.133
						c0.207-0.174,0.435-0.323,0.689-0.454c0.75-0.388,1.608-0.555,2.556-0.524c0.173,0.006,0.346,0.024,0.516,0.047
						c0.094,0.013,0.156,0.002,0.221-0.043c0.398-0.277,0.831-0.526,1.336-0.717c0.414-0.156,0.849-0.267,1.336-0.263
						C142.154,79.677,142.215,79.684,142.29,79.689z"/>
				</g>
				<ellipse class="st5" cx="84.968" cy="79.796" rx="0.765" ry="1.093"/>
				
					<ellipse transform="matrix(0.866 -0.5 0.5 0.866 -28.1082 55.3488)" class="st5" cx="89.228" cy="80.125" rx="0.666" ry="0.861"/>
			</g>
		</g>
		<g>
			<path d="M200.755,82.52c-4.914-0.043-9.102-1.795-12.562-5.256s-5.191-7.627-5.191-12.498c0-3.162,0.758-6.058,2.275-8.685
				c1.516-2.628,3.514-4.732,5.993-6.313c-0.214-0.598-0.385-1.196-0.513-1.795c-0.128-0.598-0.192-1.218-0.192-1.858
				c0-2.777,0.993-5.16,2.98-7.146c1.987-1.987,4.39-2.98,7.21-2.98h5.063v9.165h-5.063c-0.343,0-0.599,0.107-0.769,0.32
				c-0.171,0.215-0.256,0.449-0.256,0.705c0,0.043,0,0.087,0,0.129c0.042,0.214,0.149,0.406,0.32,0.576
				c0.17,0.172,0.406,0.257,0.705,0.257h5.063v9.165h-6.153c-2.094,0.257-3.877,1.186-5.352,2.788s-2.211,3.493-2.211,5.673
				c0,2.35,0.854,4.369,2.564,6.057c1.708,1.688,3.738,2.531,6.089,2.531h5.063v9.166H200.755z"/>
			<path d="M229.34,62.907l8.332,19.613h-9.935l-3.333-7.756l-3.333,7.756h-9.935l8.268-19.613l-11.28-26.919h9.935l6.345,15.062
				l6.281-15.062h9.934L229.34,62.907z"/>
			<path d="M264.207,50.762c-3.547,4.252-7.97,6.912-13.268,7.979v23.715h-9.165V35.988h27.816
				C269.548,41.586,267.753,46.511,264.207,50.762z M250.939,45.153v4.166c1.239-0.427,2.361-0.993,3.365-1.698
				c1.003-0.705,1.912-1.527,2.724-2.468H250.939z"/>
			<path d="M299.715,66.368c-3.632,3.633-8.034,5.448-13.204,5.448c-5.127,0-9.518-1.815-13.171-5.448
				c-3.653-3.631-5.48-8.032-5.48-13.203c0-5.127,1.827-9.518,5.48-13.171s8.043-5.48,13.171-5.48c5.128,0,9.518,1.817,13.171,5.448
				c3.653,3.633,5.48,8.034,5.48,13.203C305.162,58.336,303.346,62.737,299.715,66.368z M268.885,82.456v-9.102h35.315v9.102
				H268.885z M293.145,46.147c-1.945-1.56-4.092-2.34-6.441-2.34c-0.043,0-0.075,0-0.096,0c-0.022,0-0.054,0-0.096,0
				c-2.35,0-4.519,0.78-6.505,2.34s-2.98,3.899-2.98,7.018c0,3.163,0.994,5.534,2.98,7.114c1.987,1.582,4.176,2.372,6.57,2.372
				c2.393,0,4.572-0.79,6.538-2.372c1.965-1.58,2.948-3.951,2.948-7.114C296.061,50.047,295.089,47.707,293.145,46.147z"/>
			<path d="M308.238,63.612v-6.281h17.945v6.281H308.238z"/>
			<path d="M328.62,82.456V35.988h9.165v46.468H328.62z"/>
			<path d="M360.633,75.662c-4.551,4.529-10.03,6.794-16.439,6.794l-4.551,0.064c0-7.776,0-15.543,0-23.299
				c0-7.755,0-15.499,0-23.233h4.551c6.409,0,11.889,2.275,16.439,6.826s6.826,10.03,6.826,16.439S365.183,71.134,360.633,75.662z
				 M355.601,50.954c-1.794-2.413-4.081-4.091-6.857-5.031c0,2.222,0,4.444,0,6.666s0,4.444,0,6.665c0,2.223,0,4.444,0,6.666
				c0,2.223,0,4.444,0,6.666c2.861-0.982,5.169-2.702,6.922-5.16c1.751-2.456,2.628-5.181,2.628-8.172
				C358.294,56.136,357.396,53.368,355.601,50.954z"/>
			<path d="M386.11,82.456c-2.777,0-5.17-0.993-7.178-2.98c-2.01-1.986-3.013-4.368-3.013-7.146c0-0.641,0.064-1.271,0.192-1.891
				c0.128-0.619,0.298-1.207,0.513-1.763c-2.479-1.58-4.477-3.686-5.993-6.313c-1.517-2.627-2.275-5.521-2.275-8.685
				c0-4.871,1.73-9.037,5.192-12.498c3.461-3.461,7.647-5.191,12.562-5.191h5.063v9.102h-5.063c-2.35,0-4.38,0.833-6.089,2.499
				c-1.709,1.667-2.563,3.696-2.563,6.089c0,2.223,0.727,4.198,2.18,5.929c1.452,1.73,3.246,2.596,5.384,2.596h6.152v9.102h-5.063
				c-0.043,0-0.118,0-0.224,0c-0.107,0-0.203,0.022-0.289,0.064c-0.128,0.043-0.256,0.139-0.384,0.288
				c-0.129,0.15-0.192,0.375-0.192,0.673c0,0.257,0.105,0.492,0.32,0.705c0.213,0.215,0.47,0.32,0.769,0.32h5.063v9.102H386.11z"/>
			<path d="M414.759,82.456v-8.332h-13.268v8.332h-9.102V40.602v-4.166l5.961-0.448c7.007,0,13.011,2.5,18.01,7.499
				c5,4.999,7.499,11.003,7.499,18.01v20.959H414.759z M414.759,61.497c0-3.931-1.25-7.402-3.75-10.415
				c-2.5-3.012-5.672-4.881-9.518-5.608v19.549h13.268V61.497z"/>
			<path d="M457.188,45.09c-1.624,0-3.099,0.513-4.422,1.538c-1.325,1.025-2.201,2.351-2.628,3.974l-4.679,19.484
				c-0.897,3.589-2.831,6.549-5.801,8.877c-2.971,2.329-6.292,3.493-9.967,3.493l-4.358,0.064v-9.102h4.358
				c1.624,0,3.077-0.522,4.358-1.57c1.282-1.047,2.115-2.36,2.5-3.941c0.982-4.06,1.772-7.307,2.371-9.742
				c0.598-2.436,1.389-5.683,2.372-9.742c0.896-3.675,2.83-6.666,5.8-8.974s6.335-3.461,10.095-3.461h4.487v9.102H457.188z"/>
		</g>
		<g>
			<path d="M206.11,125.624V113.25c0-2.093-0.641-3.964-1.921-5.614c-1.281-1.649-2.943-2.733-4.986-3.251v21.239h-5.245V106.49
				c-0.542-0.492-1.145-0.923-1.81-1.293c-0.665-0.369-1.354-0.64-2.068-0.812v21.239h-5.282V98.845c0.098,0,0.203,0,0.314,0
				s0.215,0,0.314,0c0.763,0,1.496,0.006,2.198,0.019c0.702,0.013,1.41,0.067,2.124,0.166c0.689,0.074,1.379,0.203,2.068,0.388
				s1.404,0.449,2.143,0.794v-1.366h3.029c3.964,0,7.356,1.41,10.176,4.229c2.819,2.819,4.229,6.212,4.229,10.176v12.374H206.11z"/>
			<path d="M224.947,125.624V98.845h5.282v26.779H224.947z"/>
			<path d="M248.014,122.152c-2.77-2.758-4.155-6.07-4.155-9.937c0-3.891,1.379-7.215,4.137-9.973s6.082-4.138,9.973-4.138v5.245
				c-2.438,0-4.519,0.868-6.242,2.604c-1.724,1.736-2.586,3.823-2.586,6.261s0.862,4.519,2.586,6.242
				c1.723,1.725,3.804,2.586,6.242,2.586v5.282C254.102,126.301,250.784,124.91,248.014,122.152z"/>
			<path d="M284.489,125.624v-6.464h-6.501v6.464h-5.282V98.845h5.282v15.07h6.501v-15.07h5.245v26.779H284.489z"/>
			<path d="M321.98,116.352c-2.093,2.094-4.63,3.14-7.608,3.14c-2.955,0-5.485-1.046-7.591-3.14
				c-2.105-2.093-3.158-4.629-3.158-7.608c0-2.955,1.053-5.485,3.158-7.591s4.636-3.158,7.591-3.158c2.954,0,5.484,1.047,7.59,3.14
				s3.158,4.63,3.158,7.609S324.073,114.26,321.98,116.352z M304.214,125.624v-5.245h20.353v5.245H304.214z M318.194,104.699
				c-1.12-0.898-2.358-1.349-3.712-1.349c-0.024,0-0.043,0-0.056,0s-0.031,0-0.055,0c-1.355,0-2.604,0.45-3.75,1.349
				c-1.145,0.899-1.718,2.247-1.718,4.045c0,1.822,0.573,3.188,1.718,4.1c1.146,0.911,2.407,1.366,3.786,1.366
				s2.635-0.455,3.768-1.366s1.699-2.277,1.699-4.1C319.875,106.946,319.314,105.599,318.194,104.699z"/>
			<path d="M351.936,125.624v-4.802h-7.646v4.802h-5.245v-24.12v-2.4l3.435-0.259c4.038,0,7.498,1.44,10.38,4.321
				c2.881,2.881,4.321,6.341,4.321,10.38v12.078H351.936z M351.936,113.546c0-2.266-0.72-4.267-2.161-6.003
				c-1.44-1.735-3.269-2.812-5.484-3.231v11.266h7.646V113.546z"/>
			<path d="M374.671,122.152c-2.771-2.758-4.155-6.07-4.155-9.937c0-3.891,1.379-7.215,4.137-9.973s6.082-4.138,9.974-4.138v5.245
				c-2.438,0-4.52,0.868-6.243,2.604s-2.585,3.823-2.585,6.261s0.861,4.519,2.585,6.242c1.724,1.725,3.805,2.586,6.243,2.586v5.282
				C380.758,126.301,377.441,124.91,374.671,122.152z"/>
			<path d="M412.106,125.624v-4.802h-7.646v4.802h-5.245v-24.12v-2.4l3.435-0.259c4.038,0,7.498,1.44,10.38,4.321
				c2.881,2.881,4.321,6.341,4.321,10.38v12.078H412.106z M404.977,98.18l-0.665-1.552l6.871-3.472l1.07,2.622L404.977,98.18z
				 M412.106,113.546c0-2.266-0.72-4.267-2.161-6.003c-1.44-1.735-3.269-2.812-5.484-3.231v11.266h7.646V113.546z"/>
			<path d="M443.281,125.624V113.25c0-2.093-0.641-3.964-1.921-5.614c-1.28-1.649-2.943-2.733-4.986-3.251v21.239h-5.245V98.845
				c1.699,0,3.306,0.062,4.82,0.185s3.01,0.542,4.487,1.256c0.468,0.246,0.942,0.517,1.423,0.812
				c0.479,0.296,0.953,0.641,1.422,1.034v-3.287h5.282v26.779H443.281z"/>
		</g>
		<g>
			<path d="M486.985,124.696l-12.924-6.462c-0.095-0.057-0.191-0.099-0.287-0.128c-0.095-0.029-0.191-0.062-0.287-0.101
				c-0.095-0.019-0.191-0.029-0.286-0.029c-0.097,0-0.192,0-0.287,0c-0.728,0-1.374,0.269-1.939,0.805s-0.847,1.206-0.847,2.009
				c0,0.9,0.297,1.594,0.889,2.083c0.594,0.488,1.254,0.732,1.982,0.732c0.019,0,0.039,0,0.058,0c0.019,0,0.039,0,0.057,0
				c0.555-0.019,1.073-0.191,1.551-0.517c0.479-0.326,0.813-0.813,1.005-1.465l3.704,1.838c-0.575,1.436-1.454,2.494-2.642,3.174
				c-1.186,0.679-2.431,1.019-3.733,1.019c-1.741,0-3.335-0.588-4.781-1.766c-1.446-1.177-2.168-2.877-2.168-5.097
				c0-2.009,0.708-3.665,2.125-4.968c1.417-1.302,3.024-1.953,4.824-1.953c0.229,0,0.464,0.014,0.703,0.043
				c0.24,0.029,0.485,0.072,0.733,0.128c0.249,0.058,0.493,0.13,0.732,0.215c0.239,0.087,0.474,0.188,0.703,0.302l7.036,3.504
				v-4.049h4.078V124.696z"/>
			<path d="M478.067,86.646c0.431,0.039,0.858,0.087,1.277,0.144c2.03,0.345,3.882,1.126,5.557,2.341
				c1.675,1.215,2.514,2.991,2.514,5.326c0,2.337-0.838,4.117-2.514,5.342c-1.675,1.225-3.527,2.009-5.557,2.355
				c-0.42,0.058-0.847,0.105-1.277,0.144c-0.431,0.039-0.847,0.058-1.248,0.058c-3.141,0-5.701-0.737-7.683-2.212
				c-1.982-1.474-2.972-3.368-2.972-5.686c0-2.316,0.99-4.207,2.972-5.671c1.982-1.464,4.542-2.196,7.683-2.196
				C477.221,86.589,477.636,86.608,478.067,86.646z M471.879,91.872c-1.091,0.784-1.627,1.656-1.608,2.613
				c0.018,0.938,0.573,1.8,1.666,2.584c1.091,0.786,2.718,1.178,4.882,1.178c0.115,0,0.235,0,0.359,0s0.243-0.01,0.358-0.029
				c1.456-0.076,2.791-0.421,4.006-1.033c1.217-0.613,1.824-1.522,1.824-2.729c0-1.186-0.608-2.087-1.824-2.7
				c-1.215-0.612-2.551-0.957-4.006-1.033c-0.115-0.019-0.233-0.029-0.358-0.029s-0.244,0-0.359,0
				C474.617,90.694,472.97,91.087,471.879,91.872z"/>
			<path d="M486.985,72.114l-12.924-6.462c-0.095-0.057-0.191-0.099-0.287-0.128c-0.095-0.029-0.191-0.062-0.287-0.101
				c-0.095-0.019-0.191-0.029-0.286-0.029c-0.097,0-0.192,0-0.287,0c-0.728,0-1.374,0.269-1.939,0.805s-0.847,1.206-0.847,2.009
				c0,0.9,0.297,1.594,0.889,2.083c0.594,0.488,1.254,0.732,1.982,0.732c0.019,0,0.039,0,0.058,0c0.019,0,0.039,0,0.057,0
				c0.555-0.019,1.073-0.191,1.551-0.517c0.479-0.326,0.813-0.813,1.005-1.465l3.704,1.838c-0.575,1.436-1.454,2.494-2.642,3.174
				c-1.186,0.679-2.431,1.019-3.733,1.019c-1.741,0-3.335-0.588-4.781-1.766c-1.446-1.177-2.168-2.877-2.168-5.097
				c0-2.009,0.708-3.665,2.125-4.968c1.417-1.302,3.024-1.953,4.824-1.953c0.229,0,0.464,0.014,0.703,0.043
				c0.24,0.029,0.485,0.072,0.733,0.128c0.249,0.058,0.493,0.13,0.732,0.215c0.239,0.087,0.474,0.188,0.703,0.302l7.036,3.504
				v-4.049h4.078V72.114z"/>
			<path d="M471.592,42.191c0.747-1.858,1.805-3.216,3.174-4.078c1.369-0.862,2.799-1.293,4.294-1.293
				c2.087,0,4.001,0.79,5.742,2.37c1.743,1.58,2.614,3.767,2.614,6.561c0,0.46-0.029,0.91-0.087,1.351
				c-0.057,0.441-0.153,0.871-0.287,1.291h-4.307c0.192-0.402,0.34-0.827,0.446-1.277c0.105-0.449,0.157-0.905,0.157-1.364
				c-0.019-1.225-0.373-2.345-1.062-3.36c-0.691-1.014-1.724-1.522-3.102-1.522c-1.149,0-2.13,0.479-2.944,1.436
				c-0.813,0.957-1.229,2.116-1.248,3.475l-0.029,4.107l-4.68-3.562v3.562h-4.107V38.084L471.592,42.191z"/>
		</g>
	</g>
</g>
</svg>
