<?xml version="1.0" encoding="utf-8"?>
<!-- Generator: Adobe Illustrator 16.0.0, SVG Export Plug-In . SVG Version: 6.00 Build 0)  -->
<!DOCTYPE svg PUBLIC "-//W3C//DTD SVG 1.1//EN" "http://www.w3.org/Graphics/SVG/1.1/DTD/svg11.dtd">
<svg version="1.1" id="Layer_1" xmlns="http://www.w3.org/2000/svg" xmlns:xlink="http://www.w3.org/1999/xlink" x="0px" y="0px"
	 width="1000px" height="1000px" viewBox="0 0 1000 1000" enable-background="new 0 0 1000 1000" xml:space="preserve">
<g>
	<g>
		<path fill="#FCBA27" d="M0,0h1000v1000h-30.2c2.45-19.61,4.93-39.23,5.94-58.98c5.03-85.01-6.65-171.27-36.56-251.12
			c-12.09-32.41-27.05-63.74-44.72-93.48c-4-6.91-7.87-13.95-12.77-20.29c-0.6,0.12-1.8,0.36-2.4,0.48
			c-14.11-24.82-26.73-50.46-40.46-75.49c-3.82-7.01-7.52-14.08-11.18-21.17c0.89-2.42,1.82-4.82,2.76-7.22
			c12.23-6.02,23.59-15.07,29.79-27.45c3.41-6.28,3.31-13.83,7.15-19.94c5.75-9.67,8.77-21.1,7.57-32.36
			c-1.31-13.84-8.55-26.85-19.35-35.56c2.1-10.05,2.44-21.12-2.54-30.42c-3.53-6.48-2.01-14.27-4.88-20.95
			c-1.6-4.5-4.78-8.2-6.6-12.58c-1.52-5.26-1.48-10.96-3.93-15.97c-5.21-12.2-16.24-20.72-27.9-26.36
			c-2.16-14.25-11.63-26.74-24.04-33.79c-16.35-9.71-35.9-12.21-54.6-11.51c-3.72,0.02-7.51,0.93-11.17-0.05
			c-31.73-8.51-66.46-3.04-95.01,12.84c-4.93,2.88-10.57,3.89-15.98,5.45c-25.74,7.63-50.59,22.94-64.03,46.83
			c-2.42,5.02-8.57,5.91-12.15,9.78c-4,3.93-5.71,9.49-9.32,13.73c-8.08,9.68-14.23,21.71-14.3,34.56
			c0.01,3.78-0.24,7.67-2.08,11.06c-5.44,11.42-5.56,25.05-0.66,36.68c-2.7,3.91-5.36,8.3-4.95,13.25
			c0.14,8.26,7.12,15.21,15.12,16.39c-3.54,2.85-7.3,6.85-6.41,11.8c0.9,5.46,6.67,8.46,11.77,8.76
			c8.18,0.94,15.96-3.81,20.27-10.57c7.77-0.17,15.12-3.08,21.81-6.85c0.229,0.65,0.68,1.94,0.9,2.58
			c4.09,12.14,9.33,24,16.71,34.53c-3.94,6.29-7.19,13.85-5.03,21.37c5.16-2.57,9.46-6.48,13.96-10.01
			c10.34,11.24,24.49,18.46,33.84,30.66c2.57,6.14,1.11,13.15-0.54,19.37c-0.98,3.71-2.64,7.24-3.22,11.05
			c-0.57,7.93,8.18,14.77,15.76,12.52c4.44-1.32,8.76-3.16,13.42-3.63c1.78,6.71-0.05,13.47-1.11,20.11
			c0.08,4.42,5.57,4.69,8.59,6.33c1.93,1.55,3.81,3.18,5.86,4.59c3.25,2.14,6.57,5.36,10.82,4.44c3.12,0.02,7.35-2.12,9.64,0.95
			c3.58,5.99,3.82,13.88,9.34,18.71c3.95,3.99,10.16,3.49,15.13,2.09c14.88-4.42,27.19-14.28,39.22-23.69
			c8,17.05,16.28,33.97,24.44,50.95c-2.93,0.94-3.97,3.89-4.46,6.63c-12.26,56.3-24.71,112.61-34.09,169.47
			c-3.75,9.35-7.95,18.51-11.79,27.82c-0.92,1.8-1.76,4.57-4.26,4.43c-36.39,1.84-72.78,3.58-109.17,5.49
			c-1.96-0.08-4.48,0.48-5.77-1.41c-3.22-3.83-6.03-7.99-8.88-12.09c-5.51-7.85-6.79-17.9-12.91-25.39
			c-9.58-58.12-25.61-115.24-48.65-169.48c13.09-9.76,26.3-19.36,39.45-29.03c-12.45-12.98-25.29-25.59-37.84-38.47
			c19.33-11.14,38.81-22.01,58.25-32.96c-7.43-15.37-15.22-30.55-22.8-45.83c-23.3,13.92-47.29,26.73-70.1,41.44l-0.48,0.48
			c-2.23-1.27-4.32-2.8-6.06-4.69c-6.39-6.69-12.98-13.18-19.43-19.81c-75.37,66.4-150.61,132.96-225.92,199.43
			c5.71,7.19,11.71,14.15,17.36,21.4c-16.89,18.63-33.69,37.35-50.62,55.94c8.18,9.89,16.52,19.63,24.81,29.43
			c21.26-13.04,42.43-26.21,63.7-39.23c5.27,6.32,10.4,12.75,15.7,19.05c54.77-40.21,109.46-80.54,164.32-120.63
			c7.99,34.67,12.66,70.25,11.85,105.87c-3.25,0.39-6.54,1.28-9.05,3.5c-3.03,2.97-5.56,7.42-4.2,11.75
			c2.73,4.83,7.61,7.82,11.78,11.28c-1.95,20-5.53,39.9-11.61,59.07c-0.3,0.36-0.9,1.08-1.19,1.43l0.42,0.81
			c-5.82,18.85-14.21,36.99-25.46,53.23c-0.06,0.08-0.17,0.24-0.23,0.32c-12.72,18.17-29.8,34.6-51.35,41.42l-0.8-0.43
			c-0.36,0.3-1.08,0.9-1.43,1.2c-18.41,5.45-38.28,2.81-56.11-3.55c-20.76-7.56-39.77-19.41-56.94-33.21
			c7.46-0.23,14.94,0.29,22.38-0.22c6.63-0.52,11.84-7.47,10.63-13.98c-0.96-5.97-6.75-10.67-12.8-10.35
			c-41.67-0.02-83.35-0.01-125.02,0c-4.45-0.23-8.75,2.06-11.26,5.69c-0.07,0.14-0.23,0.43-0.31,0.58c-0.8,2.31-1.84,4.71-1.43,7.23
			c0.62,5.95,5.99,10.98,12.03,10.94c10.89,0.26,21.79-0.07,32.68,0.12c10.13,30.95,19.77,62.07,30.28,92.89H0V0z M184.5,23.78
			c-14.8,1.36-29.43,4.58-43.46,9.52c-33.16,11.54-62.57,32.94-84.71,60.09c-24.93,30.53-40.72,68.37-44.97,107.55
			c-4.26,37.47,1.58,76.12,17.27,110.46c15.84,34.9,41.59,65.43,74,86.04c26.63,17.13,57.73,27.25,89.36,28.84
			c31.81,1.6,63.99-5.3,92.39-19.7c41.77-21.3,74.81-58.37,92.62-101.6c13.59-32.73,18.44-68.95,14.47-104.14
			c-4.03-36.8-18.22-72.42-40.6-101.91C331.46,73.48,306,52.4,276.73,39.29C248,26.33,215.9,20.71,184.5,23.78z M896.33,73.88
			c-3.05,14.15-6.89,28.81-16.36,40.16c-6.8,8.32-16.09,14.17-25.72,18.69c15.8,1.49,32.26,7.89,41.49,21.43
			c5.43,7.63,7.95,16.75,10.52,25.62c4.18,14.78,6.99,29.96,8.24,45.28c0.23,3.03,0.6,6.1,1.81,8.92c2.47-17.96,3.4-36.1,6.09-54.04
			c1.68-13.77,3.15-28.45,11.49-40.05c7.89-11.55,20.54-18.68,33.39-23.45c-10.4-1.54-20.76-4.44-29.76-10.01
			c-10.53-6.34-18.48-16.22-24.1-27.03c-6.97-13.54-10.99-28.44-12.91-43.5C899.93,48.62,899.36,61.46,896.33,73.88z M782.46,107.83
			c0.29,10.2-1.54,20.56-5.84,29.85c-2.64,5.82-8.17,9.51-13.42,12.78c6.79,1.57,14.24,4.17,17.98,10.51
			c5.73,10.53,6.72,22.72,8.55,34.35c2.33-12.38,1.69-25.32,5.73-37.37c2.85-7.18,9.79-11.71,16.71-14.46
			c-6.99-1.51-14.21-4.11-18.94-9.74C786.73,126.58,784.87,116.86,782.46,107.83z M414.51,267.69c-4.49,0.76-8.79,2.62-12.42,5.37
			c-13.29,9.72-17.01,29.56-8.93,43.75c6.06,11.9,20.7,19.24,33.72,14.96c16.84-4.69,25.81-24.59,21.07-40.84
			C444.52,276.42,429.62,264.89,414.51,267.69z M475.4,285.57c-6.25,2.22-10.46,8.83-10.2,15.41c-0.13,8.59,8.02,16.62,16.73,15.42
			c9-0.85,15.32-10.81,13.13-19.4C493.48,288.48,483.68,282.22,475.4,285.57z M85.89,685.07c-2.71,4.17-7.34,6.25-11.06,9.28
			c4.77,1.49,9.76,2.86,13.75,6.02c3.38,2.57,5.17,6.58,6.69,10.43c3.49,9.12,4.07,18.97,6.09,28.45
			c2.07-12.12,1.77-24.66,5.34-36.52c2.71-7.71,10.07-12.51,17.31-15.45c-6.5-1.29-13.17-3.42-17.9-8.3
			c-7.19-7.21-10-17.37-11.6-27.14C93.28,663.19,92.43,675.31,85.89,685.07z"/>
	</g>
	<path fill="#FCBA27" d="M589.11,897.08c39.98,13.24,83.57,15.82,124.74,6.74c-4.07,27.65-7.76,55.35-11.28,83.07
		c-0.5,4.36-1.46,8.69-1.25,13.11H582.49C587.1,965.9,589.37,931.48,589.11,897.08z"/>
</g>
<g>
	<g>
		<path fill="#010007" d="M184.5,23.78c31.4-3.07,63.5,2.55,92.23,15.51C306,52.4,331.46,73.48,350.87,98.93
			c22.38,29.49,36.57,65.11,40.6,101.91c3.97,35.19-0.88,71.41-14.47,104.14c-17.81,43.23-50.85,80.3-92.62,101.6
			c-28.4,14.4-60.58,21.3-92.39,19.7c-31.63-1.59-62.73-11.71-89.36-28.84c-32.41-20.61-58.16-51.14-74-86.04
			C12.94,277.06,7.1,238.41,11.36,200.94c4.25-39.18,20.04-77.02,44.97-107.55c22.14-27.15,51.55-48.55,84.71-60.09
			C155.07,28.36,169.7,25.14,184.5,23.78z M188.1,27.24c-37.39,2.57-73.52,17.72-102.32,41.56c-28.71,23.78-50.33,55.88-61.9,91.29
			c-13.5,40.84-13.8,85.93-0.78,126.93c10.97,35.37,32.13,67.5,60.24,91.6c23.78,20.48,52.84,34.89,83.67,40.85
			c30.34,5.88,62.18,3.76,91.46-6.1c25.69-8.67,49.25-23.34,68.78-42.11c38.99-37.12,61.41-90.59,61.63-144.32
			c0.48-34.02-7.65-68.15-23.61-98.21c-17.54-33.43-44.88-61.76-78.03-79.92C257.19,32.25,222.3,24.65,188.1,27.24z"/>
	</g>
	<path fill="#010007" d="M896.33,73.88c3.03-12.42,3.6-25.26,4.18-37.98c1.92,15.06,5.94,29.96,12.91,43.5
		c5.62,10.81,13.57,20.69,24.1,27.03c9,5.57,19.36,8.47,29.76,10.01c-12.85,4.77-25.5,11.9-33.39,23.45
		c-8.34,11.6-9.81,26.28-11.49,40.05c-2.69,17.94-3.62,36.08-6.09,54.04c-1.21-2.82-1.58-5.89-1.81-8.92
		c-1.25-15.32-4.06-30.5-8.24-45.28c-2.57-8.87-5.09-17.99-10.52-25.62c-9.23-13.54-25.69-19.94-41.49-21.43
		c9.63-4.52,18.92-10.37,25.72-18.69C889.44,102.69,893.28,88.03,896.33,73.88z"/>
	<path fill="#010007" d="M782.46,107.83c2.41,9.03,4.27,18.75,10.77,25.92c4.73,5.63,11.95,8.23,18.94,9.74
		c-6.92,2.75-13.86,7.28-16.71,14.46c-4.04,12.05-3.4,24.99-5.73,37.37c-1.83-11.63-2.82-23.82-8.55-34.35
		c-3.74-6.34-11.19-8.94-17.98-10.51c5.25-3.27,10.78-6.96,13.42-12.78C780.92,128.39,782.75,118.03,782.46,107.83z"/>
	<path fill="#010007" d="M624.9,218.63c28.55-15.88,63.28-21.35,95.01-12.84c3.66,0.98,7.45,0.07,11.17,0.05
		c18.7-0.7,38.25,1.8,54.6,11.51c12.41,7.05,21.88,19.54,24.04,33.79c11.66,5.64,22.69,14.16,27.9,26.36
		c2.45,5.01,2.41,10.71,3.93,15.97c1.82,4.38,5,8.08,6.6,12.58c2.87,6.68,1.35,14.47,4.88,20.95c4.98,9.3,4.64,20.37,2.54,30.42
		c10.8,8.71,18.04,21.72,19.35,35.56c1.2,11.26-1.82,22.69-7.57,32.36c-3.84,6.11-3.74,13.66-7.15,19.94
		c-6.2,12.38-17.56,21.43-29.79,27.45c-17.19,7.91-37.12,10.75-55.52,5.65c-13.85-3.64-26.85-13.85-30.23-28.27
		c-2.87,0.17-5.76,0.57-8.61,0.16c-3.41-0.66-4.05-6.51-0.58-7.59c4.68-1.32,10.06-1.03,14.04-4.24c6.6-4.9,8.76-13.62,8.59-21.46
		c0.12-8.28-4.5-15.47-6.94-23.12c-5.39-4.94-9.99-10.95-16.58-14.4c-6.7-3.78-15.11-5.65-22.46-2.63
		c-4.35,1.7-7.16,5.63-10.07,9.08c-1.46,0.11-2.91,0.22-4.35,0.33c-1.86,6.45-2.17,13.22-1.47,19.87
		c-4.48-3.83-8.65-8.02-12.23-12.7c-8.46,1.5-17.05,2-25.62,1.66c-7.29,8.04-20.29,11.42-29.81,5.34c-2.32-1.87-5.08-0.38-7.46,0.48
		c-18.08,7.11-37.77,9.67-57.11,8.47c0.22,0.68,0.67,2.04,0.89,2.72c-0.22-0.64-0.67-1.93-0.9-2.58
		c-6.69,3.77-14.04,6.68-21.81,6.85c-4.31,6.76-12.09,11.51-20.27,10.57c-5.1-0.3-10.87-3.3-11.77-8.76
		c-0.89-4.95,2.87-8.95,6.41-11.8c-8-1.18-14.98-8.13-15.12-16.39c-0.41-4.95,2.25-9.34,4.95-13.25
		c-4.9-11.63-4.78-25.26,0.66-36.68c1.84-3.39,2.09-7.28,2.08-11.06c0.07-12.85,6.22-24.88,14.3-34.56
		c3.61-4.24,5.32-9.8,9.32-13.73c3.58-3.87,9.729-4.76,12.15-9.78c13.44-23.89,38.29-39.2,64.03-46.83
		C614.33,222.52,619.97,221.51,624.9,218.63z"/>
	<g>
		<path fill="#010007" d="M414.51,267.69c15.11-2.8,30.01,8.73,33.44,23.24c4.74,16.25-4.23,36.15-21.07,40.84
			c-13.02,4.28-27.66-3.06-33.72-14.96c-8.08-14.19-4.36-34.03,8.93-43.75C405.72,270.31,410.02,268.45,414.51,267.69z
			 M413.58,271.72c-6.93,1.65-12.95,6.36-16.59,12.44c-7.25,11.75-5.33,28.45,4.77,37.98c4.8,4.69,11.5,7.42,18.24,7.02
			c10.35-0.21,19.47-7.83,23.09-17.27c4.59-11.14,2.18-25-6.59-33.43C430.58,272.65,421.74,269.67,413.58,271.72z"/>
	</g>
	<g>
		<path fill="#010007" d="M475.4,285.57c8.28-3.35,18.08,2.91,19.66,11.43c2.19,8.59-4.13,18.55-13.13,19.4
			c-8.71,1.2-16.86-6.83-16.73-15.42C464.94,294.4,469.15,287.79,475.4,285.57z M477.51,288.62c-5.45,1.28-8.88,6.98-8.68,12.37
			c0,4.63,3.04,8.97,7.21,10.84c5.75,2.41,12.96-1.09,14.75-7.03C494.35,296.8,486.28,286.11,477.51,288.62z"/>
	</g>
	<path fill="#010007" d="M722.98,387.01c1.58-3.31,7.45-2.81,7.9,1.03c2.65,12.24,4.66,24.6,7.12,36.87
		c0.27,2.08,1.13,4.69-0.67,6.35c-1.99,2.33-6.45,1.23-7.01-1.8c-1.71-6.07-2.12-12.42-3.75-18.51c-0.15-0.96-0.66-1.65-1.53-2.06
		c-3.83-2.29-8.29-3.44-11.82-6.21c-2.26-2.34-0.41-6.71,2.75-7.01c3,0.49,5.69,2.02,8.47,3.2
		C723.77,394.98,722.19,391,722.98,387.01z"/>
	<path fill="#010007" d="M609.82,427.95c6.64-1.13,14.15-1.97,19.98,2.18c-12.82,9.65-27.01,17.42-39.27,27.84
		c-4.5,3.53-8.8,7.44-13.96,10.01c-2.16-7.52,1.09-15.08,5.03-21.37C587.79,436.7,598.41,430.03,609.82,427.95z"/>
	<path fill="#010007" d="M608.34,469.1c7.51-14.97,25.95-23.32,42.18-19.44c4.25,1.23,3.16,8.46-1.38,8.02
		c-6.42-0.54-13.23-0.8-19.08,2.35c6.06,2.12,12.07,6.35,13.79,12.86c1.47,4.16-1.69,8.86-5.9,9.61
		c-8.44,1.65-17.19-3.47-20.89-11.04c-1.53,1.31-2.88,3.26-5.11,3.24C609.68,473.94,607.33,471.67,608.34,469.1z"/>
	<g>
		<path fill="#010007" d="M498.7,513.04c22.81-14.71,46.8-27.52,70.1-41.44c7.58,15.28,15.37,30.46,22.8,45.83
			c-19.44,10.95-38.92,21.82-58.25,32.96c12.55,12.88,25.39,25.49,37.84,38.47c-13.15,9.67-26.36,19.27-39.45,29.03
			c23.04,54.24,39.07,111.36,48.65,169.48c-10.55-8.86-20.92-18.28-33.34-24.5c-3.44-1.56-7.78-3.34-11.32-1.19
			c-3.88,3.41-2.43,9.11-1.99,13.57c-12.51-5.83-25.08-12.18-38.83-14.47c-3.62-0.68-7.11,1.04-10.03,3c2.51-2.22,5.8-3.11,9.05-3.5
			c0.81-35.62-3.86-71.2-11.85-105.87c-54.86,40.09-109.55,80.42-164.32,120.63c-5.3-6.3-10.43-12.73-15.7-19.05
			c-21.27,13.02-42.44,26.19-63.7,39.23c-8.29-9.8-16.63-19.54-24.81-29.43c16.93-18.59,33.73-37.31,50.62-55.94
			c-5.65-7.25-11.65-14.21-17.36-21.4c75.31-66.47,150.55-133.03,225.92-199.43c6.45,6.63,13.04,13.12,19.43,19.81
			c1.74,1.89,3.83,3.42,6.06,4.69c-0.74,0.77-1.44,1.57-2.15,2.37c11.35,11.93,22.27,24.26,33.69,36.13
			c0.97-0.88,1.95-1.75,2.94-2.6C521.39,537.26,510.43,524.79,498.7,513.04z M429.54,539.71c-18.43,3.44-33.89,18.31-38.27,36.51
			c-4.17,15.86,0.45,33.81,11.96,45.53c9.41,9.95,23,16,36.75,15.73c10.67-0.42,21.34-3.95,29.63-10.78
			c10.83-8.63,18.05-21.85,18.78-35.74c0.88-15.3-5.85-30.84-17.65-40.63C459.55,540.84,443.94,536.68,429.54,539.71z M526,620.98
			c-14.07,10.07-27.78,20.64-41.91,30.62c0.74,1.16,1.48,2.31,2.23,3.48c14.74-10.52,29.17-21.48,43.84-32.1
			c-0.49-1-0.98-2-1.46-2.99C527.7,620.08,526.8,620.41,526,620.98z M264.38,711.5c11.38,14.41,22.57,28.97,33.74,43.54
			c1.14-0.8,2.3-1.57,3.47-2.32c-11.25-14.61-22.64-29.11-33.8-43.78C266.65,709.79,265.48,710.59,264.38,711.5z"/>
	</g>
	<path fill="#010007" d="M675.72,529.66c2.94-3.14,8.6,1.73,6.2,5.16c-5.96,8.27-11.84,16.66-18.79,24.15
		c-2.05-1.41-3.93-3.04-5.86-4.59C662.88,545.76,669.07,537.5,675.72,529.66z"/>
	<path fill="#010007" d="M434.08,543.1c21.57-2.85,43.85,12.57,48.79,33.76c4.17,14.69-0.55,31.12-10.89,42.15
		c-9.97,10.87-25.62,16.24-40.15,13.66c-8.4-1.3-16.31-5.19-22.69-10.76c-11.85-10.48-17.8-27.46-14.35-42.98
		C398.59,560.3,415.06,544.98,434.08,543.1z"/>
	<path fill="#010007" d="M783.56,647.41c0.95-2.92,5.13-3.14,7-1c2.06,2.16,0.06,5.15-0.56,7.55
		c-12.11,29.19-23.36,58.75-35.85,87.79c-0.37,0.74-1.13,2.23-1.51,2.97c-3.16-0.36-7.85-2.82-5.77-6.65
		C758.94,707.79,771.09,677.53,783.56,647.41z"/>
	<path fill="#010007" d="M85.89,685.07c6.54-9.76,7.39-21.88,8.62-33.23c1.6,9.77,4.41,19.93,11.6,27.14
		c4.73,4.88,11.4,7.01,17.9,8.3c-7.24,2.94-14.6,7.74-17.31,15.45c-3.57,11.86-3.27,24.4-5.34,36.52
		c-2.02-9.48-2.6-19.33-6.09-28.45c-1.52-3.85-3.31-7.86-6.69-10.43c-3.99-3.16-8.98-4.53-13.75-6.02
		C78.55,691.32,83.18,689.24,85.89,685.07z"/>
	<path fill="#010007" d="M898.09,694.17c3.33-1.29,7.16,2.88,5.16,6.03c-14.08,31.19-28.19,62.38-42.54,93.45
		c-1.55,3.66-7.96,2.33-7.9-1.66c0.52-3.38,2.3-6.36,3.68-9.43c12.71-27.96,25.479-55.89,38.12-83.88
		C895.46,697.01,896.19,694.91,898.09,694.17z"/>
	<path fill="#010007" d="M764.87,747.51c25.88,12.85,51.28,26.63,77.02,39.76c-4.87,9.19-10.04,18.22-15.58,27.02
		C805.81,792.04,785.29,769.82,764.87,747.51z"/>
	<path fill="#010007" d="M544.39,785.66c-2.78-3.5,3.17-8.52,6.17-5.3c7.2,8.48,13.2,17.91,20.21,26.55c2.37,0.27,4.87,0.22,7.1,1.2
		c3.26,1.72,2.02,7.8-1.85,7.6c-3.79,0-8.85,1.24-11.34-2.49C557.98,803.99,550.88,795.04,544.39,785.66z"/>
	<g>
		<path fill="#010007" d="M492.46,786.81c3.34,2.65,6.71,5.25,10.06,7.89c-6.18,15.21-11.61,30.92-13.63,47.3
			c-0.57,5.4-1.26,11.14,0.85,16.32c4.86,10.9,15.32,19.17,27.14,21.09c9.44,1.41,18.91,2.6,28.29,4.39
			c7.34,1.47,14.99,1.86,21.97,4.78c7.23,3.07,14.5,6.05,21.97,8.5c0.26,34.4-2.01,68.82-6.62,102.92H244.94
			c-10.51-30.82-20.15-61.94-30.28-92.89c-10.89-0.19-21.79,0.14-32.68-0.12c-6.04,0.04-11.41-4.99-12.03-10.94
			c-0.41-2.52,0.63-4.92,1.43-7.23c0.08-0.15,0.24-0.44,0.31-0.58c2.51-3.63,6.81-5.92,11.26-5.69c41.67-0.01,83.35-0.02,125.02,0
			c6.05-0.32,11.84,4.38,12.8,10.35c1.21,6.51-4,13.46-10.63,13.98c-7.44,0.51-14.92-0.01-22.38,0.22
			c17.17,13.8,36.18,25.65,56.94,33.21c17.83,6.36,37.7,9,56.11,3.55c0.56-0.19,1.67-0.58,2.23-0.77
			c21.55-6.82,38.63-23.25,51.35-41.42c0.06-0.08,0.17-0.24,0.23-0.32c11.25-16.24,19.64-34.38,25.46-53.23
			c0.19-0.56,0.58-1.68,0.77-2.24C486.93,826.71,490.51,806.81,492.46,786.81z M220.38,910.88c22.18-0.02,44.36-0.09,66.53,0.03
			c-0.04-1.79-0.06-3.59-0.07-5.36c-22.14,0.09-44.28,0.03-66.42,0.03C220.42,907.33,220.41,909.1,220.38,910.88z"/>
	</g>
	<path fill="#010007" d="M516.16,789.3c1.75-0.88,4.1-0.2,5.09,1.5c2.68,4.28,5.38,8.6,7.26,13.3c1.02,3.67-4.81,6.69-7.1,3.51
		c-2.85-3.97-5.1-8.34-7.31-12.68C512.92,792.89,514.13,790.21,516.16,789.3z"/>
	<path fill="#010007" d="M505.18,805.09c2.1-1.24,4.79-0.22,6.1,1.68c1.83,2.55,3.3,5.35,4.72,8.15c1.28,4.1-5.08,7.53-7.4,3.54
		C506.3,814.72,500.39,809.05,505.18,805.09z"/>
	<path fill="#010007" d="M496.28,818.23c1.95-0.99,4.66-0.2,5.56,1.86c1.79,3.47,3.77,7.04,4.14,11c-0.49,3.5-5.86,4.53-7.66,1.58
		c-1.33-2.54-2.52-5.14-3.64-7.77C493.61,822.67,493.92,819.5,496.28,818.23z"/>
</g>
<g>
	<g>
		<path fill="#FFFFFF" d="M188.1,27.24c34.2-2.59,69.09,5.01,99.14,21.57c33.15,18.16,60.49,46.49,78.03,79.92
			c15.96,30.06,24.09,64.19,23.61,98.21c-0.22,53.73-22.64,107.2-61.63,144.32c-19.53,18.771-43.09,33.44-68.78,42.11
			c-29.28,9.86-61.12,11.98-91.46,6.1c-30.83-5.96-59.89-20.37-83.67-40.85c-28.11-24.1-49.27-56.23-60.24-91.6
			c-13.02-41-12.72-86.09,0.78-126.93c11.57-35.41,33.19-67.51,61.9-91.29C114.58,44.96,150.71,29.81,188.1,27.24z M131.46,66.65
			c-5.41,1.38-10.73,4.06-14.17,8.58c-2.7,3.44-3.6,8.36-1.77,12.42c2.37,5.42,7.67,8.91,13.09,10.82c9.77,3.29,21.09,2.6,29.99-2.8
			c4.37-2.7,8.07-7.27,8.14-12.61c-0.05-5.1-3.42-9.57-7.54-12.29C151.11,65.43,140.75,64.46,131.46,66.65z M210.36,106.59
			c-4.41,0.68-9.7,2-11.73,6.45c-0.81,5.25,3.92,9.03,7.77,11.67c13.28,8.27,29.06,11.93,44.59,12.22
			c6.28-0.16,13.27-0.36,18.32-4.59c2.87-2.1,2.1-6.36,0.08-8.78c-4.04-4.82-9.72-7.94-15.44-10.35
			C240.23,107.69,225.15,104.59,210.36,106.59z M126.26,128.07c0.79,6.33,3.17,12.35,3.8,18.7c-2.54,1.11-5.07,2.26-7.65,3.27
			c-3.13-5.95-6.45-11.79-9.88-17.57c-0.64-1.6-2.24-2.19-3.87-2.01c0.11,0.62,0.33,1.86,0.43,2.48c3.01,6.47,7.6,12.13,10.11,18.84
			c-2.76,1.51-5.16,3.74-8.05,4.95c-4.49-4.72-6.6-11.15-10.89-16.01c-1.15-1.52-4.17-0.2-2.74,1.59c3.27,5.8,7.06,11.3,10.96,16.69
			c-1.86,1.57-3.71,3.16-5.53,4.78c-5.35-3.08-10.08-7.14-13.95-11.94c-0.67,0.29-2.01,0.86-2.68,1.15
			c3.06,5.76,8.61,9.39,13.87,12.93c-1.93,2.28-3.92,4.51-5.94,6.71c-4.86-4.01-9.58-8.49-15.4-11.07c-0.5,1.59-0.35,3.39,1.26,4.26
			c4.05,2.96,8.24,5.77,11.82,9.32c-1.86,2.96-3.86,5.84-6.05,8.57c-4.47-2.45-6.33-7.5-9.87-10.91c-1.08-1.38-3.91,0.54-2.28,2.01
			c2.86,4.56,6.52,8.57,10.15,12.53c-1.1,2.19-2.3,4.32-3.55,6.44c-4.42-3.23-8.03-7.52-12.75-10.3c-1.02-0.89-3.24,0.13-2.46,1.56
			c4.24,4.48,9.32,8.07,14.13,11.91c-0.69,1.61-1.37,3.23-2.04,4.86c-8.27-1-15.73-5.04-23.9-6.43c0.28,1.59,0.8,3.33,2.64,3.65
			c6.56,2.65,13.34,4.85,20.37,5.83c-0.35,2.16-0.73,4.33-1.13,6.49c-6,0.67-12.1,0.45-18.02,1.71c-0.01,0.7-0.03,2.08-0.03,2.77
			c5.87,0.12,11.68-0.9,17.54-0.95c-0.46,8.15,1.4,17.15,7.73,22.79c5.9,5.44,14.43,6.52,22.13,5.81
			c0.44,10.12,0.42,20.4,3.07,30.27c0.64-0.23,1.91-0.67,2.55-0.89c-0.98-9.98-2.36-19.95-2.21-30.01c2.6-0.84,5.23-1.61,7.87-2.3
			c1.29,6.03,1.88,12.21,3.58,18.14c1.11,1.28,3.47-0.06,2.75-1.63c-0.83-6.03-2.15-11.97-3.19-17.95c1.6-0.68,3.21-1.36,4.82-2.04
			c3.3,5.38,5.83,11.36,10.36,15.88c0.87,1.17,3.03,2.49,3.56,0.2c-3.75-5.9-8.06-11.49-10.88-17.95c2.16-1.33,4.31-2.68,6.43-4.06
			c5.64,4.89,10.48,10.62,16.07,15.54c1.61,1.53,3.11-1.72,1.7-2.6c-4.59-5.33-10.04-9.81-14.8-14.97c2.78-2.63,5.74-5.07,8.67-7.54
			c7.22,5.04,14.64,9.78,22.08,14.49c0.29-0.96,0.58-1.93,0.88-2.88c-6.44-5.32-14.06-8.95-20.61-14.11
			c2.04-2.27,4.09-4.54,6.08-6.86c5.86,3.41,11.61,7.16,18.08,9.36c1.52,0.86,2.54-0.9,3.43-1.77c-6.56-3.28-13.44-6.06-19.42-10.4
			c1.03-1.57,2.03-3.17,2.99-4.79c7.45,2.78,15,5.48,22.89,6.73c1.48,0.19,2.04-2.73,0.56-3c-7.07-2-14.34-3.44-21.06-6.49
			c1.12-3.22,2.94-6.11,4.32-9.21c6.18,0.82,12.27,2.91,18.58,2.15c0.05-0.65,0.13-1.97,0.17-2.62c-5.79-0.87-11.64-1.4-17.34-2.81
			c0.43-1.28,0.86-2.55,1.29-3.83c6.88-0.1,13.91,0.81,20.65-0.91c1.88-0.34,3.15-1.92,3.26-3.8c-7.51,1.52-15.2,1.64-22.84,1.42
			c2.19-9.36,2.81-20.08-2.77-28.43c-3.84-6.12-11.02-9.05-17.93-9.97c-0.03-3.25,0.15-6.54-0.4-9.76
			c-0.71-0.07-2.13-0.22-2.84-0.29c-0.24,3.33-0.31,6.67-0.14,10.02c-3.78,0.38-7.53,1-11.23,1.82c-1.41-5.76-2.45-11.62-4.09-17.33
			C129.47,126.41,126.65,126.22,126.26,128.07z M311.57,165.76c-4.84,1.47-8.58,5.19-11.43,9.22c-5.36,7.68-8.45,16.66-10.77,25.65
			c-3.87,15.83-4.92,32.25-4.01,48.49c1.07,15.19,3.64,30.52,10.08,44.43c3.2,6.64,7.4,13.53,14.33,16.75
			c4.04,2.03,8.95,1.44,12.73-0.89c5.59-3.34,9.11-9.12,12.05-14.74c5.95-12.38,8.69-26.04,10.08-39.62
			c1.72-17.56,0.76-35.42-3.11-52.64c-2.69-10.81-6.28-21.83-13.61-30.45C323.99,167.4,317.7,163.75,311.57,165.76z M107.41,297.69
			c-5.99,0.86-12.48,3.6-15.25,9.34c-2.8,6.24-0.34,13.32,2.99,18.84c6.09,9.96,14.97,17.87,24.29,24.75
			c15.59,11.22,33.03,19.97,51.52,25.25c10.08,2.88,20.51,4.89,31.04,4.7c5.9-0.18,11.96-1.29,17.08-4.38c5-3.1,7.49-9.6,5.91-15.26
			c-2.19-9.38-8.76-16.87-15.43-23.47c-10.5-9.97-22.69-18.08-35.61-24.57c-13.54-6.74-27.92-11.95-42.82-14.64
			C123.31,296.89,115.27,296.4,107.41,297.69z"/>
	</g>
	<path fill="#FFFFFF" d="M413.58,271.72c8.16-2.05,17,0.93,22.92,6.74c8.77,8.43,11.18,22.29,6.59,33.43
		c-3.62,9.44-12.74,17.06-23.09,17.27c-6.74,0.4-13.44-2.33-18.24-7.02c-10.1-9.53-12.02-26.23-4.77-37.98
		C400.63,278.08,406.65,273.37,413.58,271.72z"/>
	<path fill="#FFFFFF" d="M477.51,288.62c8.77-2.51,16.84,8.18,13.28,16.18c-1.79,5.94-9,9.44-14.75,7.03
		c-4.17-1.87-7.21-6.21-7.21-10.84C468.63,295.6,472.06,289.9,477.51,288.62z"/>
	<path fill="#FFFFFF" d="M498.22,513.52l0.48-0.48c11.73,11.75,22.69,24.22,34,36.38c-0.99,0.85-1.97,1.72-2.94,2.6
		c-11.42-11.87-22.34-24.2-33.69-36.13C496.78,515.09,497.48,514.29,498.22,513.52z"/>
	<g>
		<path fill="#FFFFFF" d="M429.54,539.71c14.4-3.03,30.01,1.13,41.2,10.62c11.8,9.79,18.53,25.33,17.65,40.63
			c-0.73,13.89-7.95,27.11-18.78,35.74c-8.29,6.83-18.96,10.36-29.63,10.78c-13.75,0.27-27.34-5.78-36.75-15.73
			c-11.51-11.72-16.13-29.67-11.96-45.53C395.65,558.02,411.11,543.15,429.54,539.71z M434.08,543.1
			c-19.02,1.88-35.49,17.2-39.29,35.83c-3.45,15.52,2.5,32.5,14.35,42.98c6.38,5.57,14.29,9.46,22.69,10.76
			c14.53,2.58,30.18-2.79,40.15-13.66c10.34-11.03,15.06-27.46,10.89-42.15C477.93,555.67,455.65,540.25,434.08,543.1z"/>
	</g>
	<path fill="#FFFFFF" d="M526,620.98c0.8-0.57,1.7-0.9,2.7-0.99c0.48,0.99,0.97,1.99,1.46,2.99c-14.67,10.62-29.1,21.58-43.84,32.1
		c-0.75-1.17-1.49-2.32-2.23-3.48C498.22,641.62,511.93,631.05,526,620.98z"/>
	<path fill="#FFFFFF" d="M264.38,711.5c1.1-0.91,2.27-1.71,3.41-2.56c11.16,14.67,22.55,29.17,33.8,43.78
		c-1.17,0.75-2.33,1.52-3.47,2.32C286.95,740.47,275.76,725.91,264.38,711.5z"/>
	<path fill="#FFFFFF" d="M220.38,910.88c0.03-1.78,0.04-3.55,0.04-5.3c22.14,0,44.28,0.06,66.42-0.03c0.01,1.77,0.03,3.57,0.07,5.36
		C264.74,910.79,242.56,910.86,220.38,910.88z"/>
</g>
<g>
	<path fill="#CC4773" d="M131.46,66.65c9.29-2.19,19.65-1.22,27.74,4.12c4.12,2.72,7.49,7.19,7.54,12.29
		c-0.07,5.34-3.77,9.91-8.14,12.61c-8.9,5.4-20.22,6.09-29.99,2.8c-5.42-1.91-10.72-5.4-13.09-10.82
		c-1.83-4.06-0.93-8.98,1.77-12.42C120.73,70.71,126.05,68.03,131.46,66.65z"/>
	<path fill="#CC4773" d="M210.36,106.59c14.79-2,29.87,1.1,43.59,6.62c5.72,2.41,11.4,5.53,15.44,10.35
		c2.02,2.42,2.79,6.68-0.08,8.78c-5.05,4.23-12.04,4.43-18.32,4.59c-15.53-0.29-31.31-3.95-44.59-12.22
		c-3.85-2.64-8.58-6.42-7.77-11.67C200.66,108.59,205.95,107.27,210.36,106.59z"/>
	<path fill="#CC4773" d="M126.26,128.07c0.39-1.85,3.21-1.66,3.22,0.23c1.64,5.71,2.68,11.57,4.09,17.33
		c3.7-0.82,7.45-1.44,11.23-1.82c-0.17-3.35-0.1-6.69,0.14-10.02c0.71,0.07,2.13,0.22,2.84,0.29c0.55,3.22,0.37,6.51,0.4,9.76
		c6.91,0.92,14.09,3.85,17.93,9.97c5.58,8.35,4.96,19.07,2.77,28.43c7.64,0.22,15.33,0.1,22.84-1.42c-0.11,1.88-1.38,3.46-3.26,3.8
		c-6.74,1.72-13.77,0.81-20.65,0.91c-0.43,1.28-0.86,2.55-1.29,3.83c5.7,1.41,11.55,1.94,17.34,2.81c-0.04,0.65-0.12,1.97-0.17,2.62
		c-6.31,0.76-12.4-1.33-18.58-2.15c-1.38,3.1-3.2,5.99-4.32,9.21c6.72,3.05,13.99,4.49,21.06,6.49c1.48,0.27,0.92,3.19-0.56,3
		c-7.89-1.25-15.44-3.95-22.89-6.73c-0.96,1.62-1.96,3.22-2.99,4.79c5.98,4.34,12.86,7.12,19.42,10.4
		c-0.89,0.87-1.91,2.63-3.43,1.77c-6.47-2.2-12.22-5.95-18.08-9.36c-1.99,2.32-4.04,4.59-6.08,6.86
		c6.55,5.16,14.17,8.79,20.61,14.11c-0.3,0.95-0.59,1.92-0.88,2.88c-7.44-4.71-14.86-9.45-22.08-14.49
		c-2.93,2.47-5.89,4.91-8.67,7.54c4.76,5.16,10.21,9.64,14.8,14.97c1.41,0.88-0.09,4.13-1.7,2.6c-5.59-4.92-10.43-10.65-16.07-15.54
		c-2.12,1.38-4.27,2.73-6.43,4.06c2.82,6.46,7.13,12.05,10.88,17.95c-0.53,2.29-2.69,0.97-3.56-0.2
		c-4.53-4.52-7.06-10.5-10.36-15.88c-1.61,0.68-3.22,1.36-4.82,2.04c1.04,5.98,2.36,11.92,3.19,17.95c0.72,1.57-1.64,2.91-2.75,1.63
		c-1.7-5.93-2.29-12.11-3.58-18.14c-2.64,0.69-5.27,1.46-7.87,2.3c-0.15,10.06,1.23,20.03,2.21,30.01
		c-0.64,0.22-1.91,0.66-2.55,0.89c-2.65-9.87-2.63-20.15-3.07-30.27c-7.7,0.71-16.23-0.37-22.13-5.81
		c-6.33-5.64-8.19-14.64-7.73-22.79c-5.86,0.05-11.67,1.07-17.54,0.95c0-0.69,0.02-2.07,0.03-2.77c5.92-1.26,12.02-1.04,18.02-1.71
		c0.4-2.16,0.78-4.33,1.13-6.49c-7.03-0.98-13.81-3.18-20.37-5.83c-1.84-0.32-2.36-2.06-2.64-3.65c8.17,1.39,15.63,5.43,23.9,6.43
		c0.67-1.63,1.35-3.25,2.04-4.86c-4.81-3.84-9.89-7.43-14.13-11.91c-0.78-1.43,1.44-2.45,2.46-1.56c4.72,2.78,8.33,7.07,12.75,10.3
		c1.25-2.12,2.45-4.25,3.55-6.44c-3.63-3.96-7.29-7.97-10.15-12.53c-1.63-1.47,1.2-3.39,2.28-2.01c3.54,3.41,5.4,8.46,9.87,10.91
		c2.19-2.73,4.19-5.61,6.05-8.57c-3.58-3.55-7.77-6.36-11.82-9.32c-1.61-0.87-1.76-2.67-1.26-4.26c5.82,2.58,10.54,7.06,15.4,11.07
		c2.02-2.2,4.01-4.43,5.94-6.71c-5.26-3.54-10.81-7.17-13.87-12.93c0.67-0.29,2.01-0.86,2.68-1.15c3.87,4.8,8.6,8.86,13.95,11.94
		c1.82-1.62,3.67-3.21,5.53-4.78c-3.9-5.39-7.69-10.89-10.96-16.69c-1.43-1.79,1.59-3.11,2.74-1.59c4.29,4.86,6.4,11.29,10.89,16.01
		c2.89-1.21,5.29-3.44,8.05-4.95c-2.51-6.71-7.1-12.37-10.11-18.84c-0.1-0.62-0.32-1.86-0.43-2.48c1.63-0.18,3.23,0.41,3.87,2.01
		c3.43,5.78,6.75,11.62,9.88,17.57c2.58-1.01,5.11-2.16,7.65-3.27C129.43,140.42,127.05,134.4,126.26,128.07z"/>
	<path fill="#CC4773" d="M311.57,165.76c6.13-2.01,12.42,1.64,16.34,6.2c7.33,8.62,10.92,19.64,13.61,30.45
		c3.87,17.22,4.83,35.08,3.11,52.64c-1.39,13.58-4.13,27.24-10.08,39.62c-2.94,5.62-6.46,11.4-12.05,14.74
		c-3.78,2.33-8.69,2.92-12.73,0.89c-6.93-3.22-11.13-10.11-14.33-16.75c-6.44-13.91-9.01-29.24-10.08-44.43
		c-0.91-16.24,0.14-32.66,4.01-48.49c2.32-8.99,5.41-17.97,10.77-25.65C302.99,170.95,306.73,167.23,311.57,165.76z"/>
	<path fill="#CC4773" d="M107.41,297.69c7.86-1.29,15.9-0.8,23.72,0.56c14.9,2.69,29.28,7.9,42.82,14.64
		c12.92,6.49,25.11,14.6,35.61,24.57c6.67,6.6,13.24,14.09,15.43,23.47c1.58,5.66-0.91,12.16-5.91,15.26
		c-5.12,3.09-11.18,4.2-17.08,4.38c-10.53,0.19-20.96-1.82-31.04-4.7c-18.49-5.28-35.93-14.03-51.52-25.25
		c-9.32-6.88-18.2-14.79-24.29-24.75c-3.33-5.52-5.79-12.6-2.99-18.84C94.93,301.29,101.42,298.55,107.41,297.69z"/>
	<path fill="#CC4773" d="M742.3,768.05c-1.22-1.56-0.34-4.07,1.79-3.93C743.83,765.55,743.22,766.9,742.3,768.05z"/>
</g>
<g>
	<g>
		<path fill="#E8AE9A" d="M712.12,376.83c7.35-3.02,15.76-1.15,22.46,2.63c6.59,3.45,11.19,9.46,16.58,14.4
			c2.44,7.65,7.06,14.84,6.94,23.12c0.17,7.84-1.99,16.56-8.59,21.46c-3.98,3.21-9.36,2.92-14.04,4.24
			c-3.47,1.08-2.83,6.93,0.58,7.59c2.85,0.41,5.74,0.01,8.61-0.16c3.38,14.42,16.38,24.63,30.23,28.27
			c18.4,5.1,38.33,2.26,55.52-5.65c-0.94,2.4-1.87,4.8-2.76,7.22c3.66,7.09,7.36,14.16,11.18,21.17
			c13.73,25.03,26.35,50.67,40.46,75.49c-34.78,14.87-70.72,27.24-107.57,35.81c-8.16-16.98-16.44-33.9-24.44-50.95
			c-12.03,9.41-24.34,19.27-39.22,23.69c-4.97,1.4-11.18,1.9-15.13-2.09c-5.52-4.83-5.76-12.72-9.34-18.71
			c-2.29-3.07-6.52-0.93-9.64-0.95c-4.25,0.92-7.57-2.3-10.82-4.44c6.95-7.49,12.83-15.88,18.79-24.15c2.4-3.43-3.26-8.3-6.2-5.16
			c-6.65,7.84-12.84,16.1-18.45,24.72c-3.02-1.64-8.51-1.91-8.59-6.33c1.06-6.64,2.89-13.4,1.11-20.11
			c-4.66,0.47-8.98,2.31-13.42,3.63c-7.58,2.25-16.33-4.59-15.76-12.52c0.58-3.81,2.24-7.34,3.22-11.05
			c1.65-6.22,3.11-13.23,0.54-19.37c-9.35-12.2-23.5-19.42-33.84-30.66c12.26-10.42,26.45-18.19,39.27-27.84
			c-5.83-4.15-13.34-3.31-19.98-2.18c-11.41,2.08-22.03,8.75-28.22,18.66c-7.38-10.53-12.62-22.39-16.71-34.53
			c-0.22-0.68-0.67-2.04-0.89-2.72c19.34,1.2,39.03-1.36,57.11-8.47c2.38-0.86,5.14-2.35,7.46-0.48c9.52,6.08,22.52,2.7,29.81-5.34
			c8.57,0.34,17.16-0.16,25.62-1.66c3.58,4.68,7.75,8.87,12.23,12.7c-0.7-6.65-0.39-13.42,1.47-19.87c1.44-0.11,2.89-0.22,4.35-0.33
			C704.96,382.46,707.77,378.53,712.12,376.83z M722.98,387.01c-0.79,3.99,0.79,7.97,1.46,11.86c-2.78-1.18-5.47-2.71-8.47-3.2
			c-3.16,0.3-5.01,4.67-2.75,7.01c3.53,2.77,7.99,3.92,11.82,6.21c0.87,0.41,1.38,1.1,1.53,2.06c1.63,6.09,2.04,12.44,3.75,18.51
			c0.56,3.03,5.02,4.13,7.01,1.8c1.8-1.66,0.94-4.27,0.67-6.35c-2.46-12.27-4.47-24.63-7.12-36.87
			C730.43,384.2,724.56,383.7,722.98,387.01z M608.34,469.1c-1.01,2.57,1.34,4.84,3.61,5.6c2.23,0.02,3.58-1.93,5.11-3.24
			c3.7,7.57,12.45,12.69,20.89,11.04c4.21-0.75,7.37-5.45,5.9-9.61c-1.72-6.51-7.73-10.74-13.79-12.86
			c5.85-3.15,12.66-2.89,19.08-2.35c4.54,0.44,5.63-6.79,1.38-8.02C634.29,445.78,615.85,454.13,608.34,469.1z"/>
	</g>
	<g>
		<path fill="#E8AE9A" d="M754.15,741.75c3.62,1.82,7.18,3.77,10.72,5.76c20.42,22.31,40.94,44.53,61.44,66.78
			c-14.7,23.37-31.91,45.1-50.6,65.4c-4.62,4.99-11.27,7.09-17.31,9.77c-14.33,6.26-29.32,10.9-44.55,14.36
			c-41.17,9.08-84.76,6.5-124.74-6.74c-7.47-2.45-14.74-5.43-21.97-8.5c-6.98-2.92-14.63-3.31-21.97-4.78
			c-9.38-1.79-18.85-2.98-28.29-4.39c-11.82-1.92-22.28-10.19-27.14-21.09c-2.11-5.18-1.42-10.92-0.85-16.32
			c2.02-16.38,7.45-32.09,13.63-47.3c-3.35-2.64-6.72-5.24-10.06-7.89c-4.17-3.46-9.05-6.45-11.78-11.28
			c-1.36-4.33,1.17-8.78,4.2-11.75c2.92-1.96,6.41-3.68,10.03-3c13.75,2.29,26.32,8.64,38.83,14.47
			c-0.44-4.46-1.89-10.16,1.99-13.57c3.54-2.15,7.88-0.37,11.32,1.19c12.42,6.22,22.79,15.64,33.34,24.5
			c6.12,7.49,7.4,17.54,12.91,25.39c2.85,4.1,5.66,8.26,8.88,12.09c1.29,1.89,3.81,1.33,5.77,1.41
			c36.39-1.91,72.78-3.65,109.17-5.49c2.5,0.14,3.34-2.63,4.26-4.43c3.84-9.31,8.04-18.47,11.79-27.82
			c3.39-6.66,6.16-13.62,9.13-20.47c0.92-1.15,1.53-2.5,1.79-3.93c2.61-6.57,5.5-13.02,8.55-19.4
			C753.02,743.98,753.78,742.49,754.15,741.75z M544.39,785.66c6.49,9.38,13.59,18.33,20.29,27.56c2.49,3.73,7.55,2.49,11.34,2.49
			c3.87,0.2,5.11-5.88,1.85-7.6c-2.23-0.98-4.73-0.93-7.1-1.2c-7.01-8.64-13.01-18.07-20.21-26.55
			C547.56,777.14,541.61,782.16,544.39,785.66z M516.16,789.3c-2.03,0.91-3.24,3.59-2.06,5.63c2.21,4.34,4.46,8.71,7.31,12.68
			c2.29,3.18,8.12,0.16,7.1-3.51c-1.88-4.7-4.58-9.02-7.26-13.3C520.26,789.1,517.91,788.42,516.16,789.3z M505.18,805.09
			c-4.79,3.96,1.12,9.63,3.42,13.37c2.32,3.99,8.68,0.56,7.4-3.54c-1.42-2.8-2.89-5.6-4.72-8.15
			C509.97,804.87,507.28,803.85,505.18,805.09z M496.28,818.23c-2.36,1.27-2.67,4.44-1.6,6.67c1.12,2.63,2.31,5.23,3.64,7.77
			c1.8,2.95,7.17,1.92,7.66-1.58c-0.37-3.96-2.35-7.53-4.14-11C500.94,818.03,498.23,817.24,496.28,818.23z"/>
	</g>
</g>
<g>
	<g>
		<path fill="#EF5040" d="M879.29,576.61c0.6-0.12,1.8-0.36,2.4-0.48c4.9,6.34,8.77,13.38,12.77,20.29
			c17.67,29.74,32.63,61.07,44.72,93.48c29.91,79.85,41.59,166.11,36.56,251.12c-1.01,19.75-3.49,39.37-5.94,58.98H701.32
			c-0.21-4.42,0.75-8.75,1.25-13.11c3.52-27.72,7.21-55.42,11.28-83.07c15.23-3.46,30.22-8.1,44.55-14.36
			c6.04-2.68,12.69-4.78,17.31-9.77c18.69-20.3,35.9-42.03,50.6-65.4c5.54-8.8,10.71-17.83,15.58-27.02
			c-25.74-13.13-51.14-26.91-77.02-39.76c-3.54-1.99-7.1-3.94-10.72-5.76c12.49-29.04,23.74-58.6,35.85-87.79
			c0.62-2.4,2.62-5.39,0.56-7.55c-1.87-2.14-6.05-1.92-7,1c-12.47,30.12-24.62,60.38-36.69,90.66c-2.08,3.83,2.61,6.29,5.77,6.65
			c-3.05,6.38-5.94,12.83-8.55,19.4c-2.13-0.14-3.01,2.37-1.79,3.93c-2.97,6.85-5.74,13.81-9.13,20.47
			c9.38-56.86,21.83-113.17,34.09-169.47c0.49-2.74,1.53-5.69,4.46-6.63C808.57,603.85,844.51,591.48,879.29,576.61z M898.09,694.17
			c-1.9,0.74-2.63,2.84-3.48,4.51c-12.64,27.99-25.41,55.92-38.12,83.88c-1.38,3.07-3.16,6.05-3.68,9.43
			c-0.06,3.99,6.35,5.32,7.9,1.66c14.35-31.07,28.46-62.26,42.54-93.45C905.25,697.05,901.42,692.88,898.09,694.17z"/>
	</g>
	<path fill="#EF5040" d="M479.66,847.31c0.29-0.35,0.89-1.07,1.19-1.43c-0.19,0.56-0.58,1.68-0.77,2.24L479.66,847.31z"/>
	<path fill="#EF5040" d="M171.38,888.82c0.08-0.15,0.24-0.44,0.31-0.58C171.62,888.38,171.46,888.67,171.38,888.82z"/>
	<path fill="#EF5040" d="M454.39,901.67c0.06-0.08,0.17-0.24,0.23-0.32C454.56,901.43,454.45,901.59,454.39,901.67z"/>
	<path fill="#EF5040" d="M400.81,943.86c0.35-0.3,1.07-0.9,1.43-1.2l0.8,0.43C402.48,943.28,401.37,943.67,400.81,943.86z"/>
</g>
</svg>
