<?xml version="1.0" encoding="utf-8"?>
<!-- Generator: Adobe Illustrator 16.0.0, SVG Export Plug-In . SVG Version: 6.00 Build 0)  -->
<!DOCTYPE svg PUBLIC "-//W3C//DTD SVG 1.1//EN" "http://www.w3.org/Graphics/SVG/1.1/DTD/svg11.dtd">
<svg version="1.1" id="Layer_1" xmlns="http://www.w3.org/2000/svg" xmlns:xlink="http://www.w3.org/1999/xlink" x="0px" y="0px"
	 width="1000px" height="1000px" viewBox="0 0 1000 1000" enable-background="new 0 0 1000 1000" xml:space="preserve">
<g>
	<path fill="#D9A736" d="M0,0h1000v1000h-58.73c-0.15-45.94,0.15-91.89-0.15-137.82c-11.7-0.01-23.39,0.1-35.08,0.01
		c-3.22,0.09-5.69-2.19-8.12-3.94c11.69-1.23,23.6,0.05,35.2-2.17c3.45-0.55,7.06-3.89,5.51-7.62c-2.39-4.89-8.24-6.24-12.79-8.34
		c-7.74-3.02-15.68-5.48-23.34-8.68c1.99-1.35,4.42-1.65,6.71-2.23c9.23-2.24,18.71-3.8,27.48-7.57c3.31-1.15,5.47-5.54,3.35-8.61
		c-2.14-2.72-5.73-3.55-8.93-4.27c-9.95-2.02-20.1-2.67-30.08-4.5c10.28-7.16,23.13-10.16,32.63-18.59c3.31-3,0.9-9.32-3.52-9.47
		c-12.49-1.33-24.8,1.96-37.22,2.55c8.57-9.29,19.82-15.97,27.19-26.4c2.66-3.92-1.61-9.77-6.14-8.51
		c-12.29,2.46-23.16,9.05-34.95,13.02c4.82-10.2,12.2-19,16.43-29.51c0.86-2.31,2.1-4.82,1.34-7.33c-1.41-3.45-5.99-4.83-9.25-3.31
		c-12.52,6.12-21.87,16.92-33.79,23.96c-0.93-11.54,0.55-23.1-0.03-34.65c-0.28-3.64-0.54-7.71-3.17-10.51
		c-2.14-2.39-6.05-2.38-8.44-0.39c-3.8,2.93-6.17,7.23-8.45,11.36c-5.54-7.62-9.95-16.03-15.14-23.9
		c-11.44-18.37-23.41-36.4-34.79-54.81c7.17-9.3,14.17-18.75,21-28.31c-42.24-47.82-91.97-89.16-147.33-120.96
		c-8.2-4.8-16.73-9.01-24.66-14.26c-25.71-16.92-57.9-23.33-88.2-18.3c-1.77-20.32-3.29-40.67-4.61-61.02
		c0.23-1.47,1.81-2.13,2.74-3.14c18.14-15.25,31.09-37.01,34.17-60.65c1.48-11.7,0.52-23.5,0.95-35.25
		c9.62,0.11,19.65-3.73,25.25-11.84c11.84-15.4,7.3-40.85-10.12-50.14c2.93-7.91,2.18-16.51,1.86-24.69
		c8.36-11.35,12.44-26.35,8.61-40.17c-3.26-14.14-14.02-25.38-26.47-32.19c-2.94-10.81-10.5-20.19-20.36-25.47
		c-7.39-4.23-15.93-5.71-24.3-6.42c-2.04-15.12-11.35-29.22-24.86-36.46c-12.9-7.26-29.17-7.74-42.67-1.84
		c-9.21,3.95-16.86,11.03-22.06,19.54c-12.08,0.12-24.57,3.41-33.69,11.69c-6.59-1.05-13.81-1.28-19.7,2.36
		c-6.39,3.43-10.15,10.08-12.14,16.83c-17.99,3.37-34.77,14.42-43.76,30.54c-11.13,19.13-9.91,44.84,3.44,62.58
		c3.71,4.55,3.13,10.97,6.29,15.81c2.22,3.74,5.74,6.5,9.55,8.52c-5.23,5.09-10.06,10.98-11.84,18.22
		c-3.55,13.27,0.89,29,12.61,36.81c5.17,4.12,11.96,4.43,18.27,4.81c0.14,13.58-0.86,27.27,1.42,40.73
		c4.03,21.73,15.86,41.93,32.93,55.98c1.62,1.35,3.32,2.62,4.82,4.11c1.99,1.66,1.22,4.52,1.18,6.76
		c-1.63,15.37-2.71,30.78-4.47,46.13c-0.19,2.47-0.67,4.89-1.35,7.27c-22.5-4.1-46.2-0.64-66.85,9.08
		c-17.38,8.81-34.87,17.44-51.72,27.25c-36.46,21.47-71.18,46.06-102.69,74.33c0.49,0.17,1.48,0.5,1.97,0.67
		c-26.91-3.57-54,0.03-81-0.28c-3.61-0.43-8.13,0.42-10.99-2.02c13.59-9.11,28.86-15.21,43.05-23.28
		c15.9-8.71,31.86-18.45,43.33-32.78c7.55-9.59,11.89-22.27,9.33-34.45c-2.71-14.15-11.85-25.97-21.7-36.03
		c-2.14,1.96-4.1,4.1-6.07,6.24c8.24,8.85,16.61,18.6,19.03,30.82c1.97,8.28-0.27,17.06-4.82,24.11
		c-4.27,6.83-10.26,12.37-16.49,17.38c-0.06,0.05-0.18,0.14-0.23,0.19c-1.24,0.88-2.45,1.83-3.69,2.72
		c-0.12,0.09-0.36,0.26-0.48,0.35c-15.66,11.24-33.27,19.26-50.29,28.14c-5.38,2.88-10.92,5.59-15.69,9.43
		c-2.81,2.35-5.74,5.69-4.87,9.66c0.47,2.97,2.92,5.13,5.63,6.12c5.71,2.26,11.97,2.05,17.99,2.18c22.17,0.04,44.32-2.1,66.49-0.89
		c-12.54,11.97-25.35,23.71-36.76,36.79c6.91,10.01,15.05,19.1,22.61,28.63c0.6,1.42,1.36,2.77,2.23,4.06
		c-32.25,49.31-62.9,99.66-91.73,151.04c-3.06,5.21-7.63,9.51-9.74,15.27c-3.27,7.84-3.72,16.48-3.3,24.87
		c0.38,13.24,5.98,26.48,15.85,35.42c8.13,7.4,19.44,10.77,30.33,9.97c6.41-0.19,12.62-1.86,18.88-3.11
		c17.22-1.96,34.41-5.3,50.59-11.69c18.47-7.05,35.27-18.04,49.96-31.19c7.47-6.49,14.36-13.6,21.48-20.45
		c1.88-1.73,3.69-3.67,6.13-4.6c0.03,2.28,0.07,4.57,0.12,6.87c-0.95,14.09-3.53,28.01-4.66,42.08c-6.72,0.01-13.45-0.01-20.17,0.01
		c-0.03,14.83,0.01,29.67-0.02,44.5c29.16,15.01,55.45,35.23,85.65,48.28c0.29,0.33,0.87,0.98,1.16,1.31l0.88-0.3
		c15.01,6.05,30.76,10.61,46.98,11.68c20.71,1.77,41.57-2.04,61-9.17c23.51-8.54,44.77-21.9,66.34-34.33
		c8.15-4.49,16.49-9.31,25.83-10.73c6.19-0.98,13.06,1.43,16.42,6.92c3.83,5.75,3.29,13.02,2.57,19.56
		c-1.64,13.25-6.13,26.58-3.16,39.99l-0.24,0.87c0.3,0.3,0.89,0.92,1.18,1.22c1.75,4.83,5.37,8.9,10.02,11.11
		c0.53,0.22,1.6,0.68,2.13,0.9c11.45,1.99,22.86-0.73,34.11-2.61c7.92-1.3,15.87-2.58,23.91-2.92c5.58-0.17,11.18,0.62,16.76,0.16
		c7.17,1.13,14.32,2.65,21.11,5.28c0.51,0.27,1.53,0.8,2.05,1.06c4.72,1.83,9.06,4.51,13.271,7.3c0.12,0.09,0.36,0.25,0.479,0.34
		c4.87,3.36,9.34,7.24,13.63,11.32h-8.94c-10.85-9.39-24.08-16.32-38.33-18.56c-17.44-2.94-34.93,0.89-52.12,3.64
		c-10.09,1.37-20.87,3.69-30.61-0.47c-7.93-3.13-12.93-11.03-14.64-19.1c-2.2-10.44,0.05-21.07,1.83-31.39
		c1.28-7.35,3.18-15.08,0.82-22.42c-1.59-4.93-7.51-7.08-12.25-5.94c-10.98,2.32-20.45,8.68-30.13,14.04
		c-23.34,13.92-47.28,27.52-73.56,35.08c-25.38,6.96-52.59,7.34-77.98,0.2c-38.98-11.03-71.16-36.61-106.35-55.52
		c-0.03,18.52,0.01,37.04-0.02,55.56c-40.27,0.05-80.54-0.06-120.8,0.05c0.04,14.94,0.02,29.88,0.01,44.83H0V0z"/>
	<path fill="#D9A736" d="M838.49,715.67c1.79-3.75,4-7.27,6.28-10.74c0.74,6.99,0.31,14.05-0.09,21.06
		C842.92,722.37,840.8,718.95,838.49,715.67z"/>
	<path fill="#D9A736" d="M858,748.28c9.59-5.88,17.87-13.57,26.94-20.18c-0.23,2.03-1.52,3.69-2.46,5.45
		c-4.81,8.34-10.59,16.26-13.68,25.47c-1.23,3.67,2.04,8.32,6.09,7.49c10.61-1.64,20.14-6.93,29.92-11.03
		c-3.79,4.94-9.18,8.42-13.63,12.74c-3.61,3.57-8,6.89-9.72,11.84c-1.19,3.56,2.19,6.71,5.52,7.04c10.44,1.09,20.75-1.86,31.14-1.95
		c-9.67,5.96-21.15,9.21-29.57,17.21C879.09,783.93,868.39,766.19,858,748.28z"/>
	<path fill="#D9A736" d="M682.81,734.63c6.02,1.46,12.03,3.04,18.12,4.21c1.01-0.82,2.02-1.63,3.05-2.43
		c4.77,12.72,13.45,23.45,18.77,35.89c-13.55,0.21-26.88-3.26-40.44-2.62C682.69,758.01,682.23,746.31,682.81,734.63z"/>
	<path fill="#D9A736" d="M717.09,744.19c3.27,2.38,5.24,6.13,7.95,9.09c6.49,7.12,12.64,14.53,18.9,21.85
		c7.63,9.31,15.7,18.27,23.06,27.8c-14.9,4.46-30.07,8.14-44.47,14.11c-4.81,0.61-9.59,1.86-14.47,1.55
		c5.38-2.53,12.2-3.52,15.65-8.88c1.62-2.13-0.05-5.13-2.09-6.28c-3.51-1.85-7.65-1.83-11.51-2.01c2.7-1.62,6.1-1.03,8.98-2.24
		c2.62-0.78,5.13-3.25,4.62-6.17c-0.45-2.41-2.69-3.84-4.71-4.85c-7.07-3.49-14.6-5.91-22.01-8.53c8.24-0.86,16.7,2.22,25.08,1.17
		c2.52-0.4,5.42-0.52,7.4-2.36c2.22-2.19,2.42-5.78,1.38-8.58C727.55,760.67,721.94,752.59,717.09,744.19z"/>
	<path fill="#D9A736" d="M682.43,783.04c7.97,3.7,16.46,6.11,24.58,9.43c-8.23,1.28-16.52,2.03-24.75,3.26
		C682.2,791.49,682.33,787.26,682.43,783.04z"/>
	<path fill="#D9A736" d="M682.22,808.17c8.18,0.91,16.43,1.11,24.66,1.53c-8.14,3.81-16.75,6.56-24.82,10.55
		C682.07,816.22,682.08,812.19,682.22,808.17z"/>
	<path fill="#D9A736" d="M896.73,812.49c9.09,1.44,18.27,2.35,27.34,3.96c-7.36,2.59-15.18,3.59-22.65,5.81
		C900.17,818.85,898.2,815.79,896.73,812.49z"/>
	<path fill="#D9A736" d="M905.29,841.82c5.47,2.58,11.92,3.32,16.85,6.87c-6.05,0.07-12.1,0.34-18.14,0.43
		C904.36,846.67,904.79,844.23,905.29,841.82z"/>
	<path fill="#FCBA27" d="M821.39,894.05c9.7,4.79,19.19,9.98,28.77,15.02c-9.26,8.22-19.48,15.42-29.06,23.32
		c0.06,0.28,0.19,0.84,0.25,1.12c7.22,3.95,14.4,7.98,21.66,11.86c-12.33,11.24-25.54,21.58-38.24,32.43
		c-6.26,5.06-12.19,10.54-18.63,15.34c9.01-15.21,19.71-29.43,28.76-44.61c-9.36-2.13-18.61-4.68-27.94-6.9
		c0.51-2.08,2.18-3.57,3.33-5.3C800.55,922.16,811.11,908.21,821.39,894.05z"/>
	<path fill="#D9A736" d="M681.44,921.56c4.63,0.06,9.26,0.16,13.89,0.47c-0.24,25.99-0.08,51.98-0.08,77.97h-18.69
		c1.81-3.19,4.96-6.04,4.54-10.03C681.09,967.16,681.37,944.36,681.44,921.56z"/>
</g>
<g>
	<path fill="#000007" d="M464.73,56.66c13.5-5.9,29.77-5.42,42.67,1.84c13.51,7.24,22.82,21.34,24.86,36.46
		c8.37,0.71,16.91,2.19,24.3,6.42c9.86,5.28,17.42,14.66,20.36,25.47c12.45,6.81,23.21,18.05,26.47,32.19
		c3.83,13.82-0.25,28.82-8.61,40.17c0.32,8.18,1.07,16.78-1.86,24.69c-2.33,5.75-5.44,11.91-11.36,14.65
		c-4.45,2.31-9.98,0.72-13.46-2.6c-5.11-4.64-7.2-11.46-8.96-17.91c-18.19,1.33-37.37-6.73-47.56-22.17
		c-9.45,8.33-20.98,14.65-33.63,16.17c-13.97,2.07-28.19-1.94-39.97-9.46c-15.86,20.24-44.52,28.39-68.93,20.95
		c-5.18,2.15-11.01,2.77-16.39,1c-3.81-2.02-7.33-4.78-9.55-8.52c-3.16-4.84-2.58-11.26-6.29-15.81
		c-13.35-17.74-14.57-43.45-3.44-62.58c8.99-16.12,25.77-27.17,43.76-30.54c1.99-6.75,5.75-13.4,12.14-16.83
		c5.89-3.64,13.11-3.41,19.7-2.36c9.12-8.28,21.61-11.57,33.69-11.69C447.87,67.69,455.52,60.61,464.73,56.66z"/>
	<path fill="#000007" d="M429.94,244.26c11.78,0.04,23.55-0.84,35.23-2.34c4.36,6.44,4.36,15.06,1.06,21.96
		c-16.38-1.58-32.85-3.85-49.33-2.38c-8.09,0.74-15.51,4.61-21.82,9.55c-0.86-7.95,0.66-18.13,8.99-21.61
		C412.05,245.45,421.12,244.36,429.94,244.26z"/>
	<path fill="#000007" d="M503.09,247.39c11.29,1.18,22.61,2.3,33.98,2.25c10.43,0.02,21.48,1.16,30.41,7
		c5.83,4.45,6.4,12.47,6.06,19.22c-1.19,0.08-2.02-0.8-2.91-1.42c-6.27-4.64-13.93-7.47-21.75-7.78
		c-15.45-0.77-30.91,0.8-46.21,2.79C498.64,262.76,499.23,254.02,503.09,247.39z"/>
	<path fill="#000007" d="M406.33,290.3c8.93-9.34,23.62-13.27,35.72-8.19c6,2.39,11.38,6.38,15.4,11.44
		c1.84,2.47-0.37,6.55-3.42,6.49c-2.24,0.11-3.43-2.11-5.33-2.87c-2.54,9.44-16.31,11.7-22.71,4.91c-1.74-1.93-3.27-4.48-2.74-7.19
		c0.3-2.41,1.89-4.34,3.17-6.3c-5.63,1.19-10.41,4.54-14.98,7.86C408.02,298.76,403.55,293.26,406.33,290.3z"/>
	<path fill="#000007" d="M517.01,280.22c10.44-1.58,21.51,2.37,28.79,9.97c3.17,2.96-1.69,8.75-5.14,6.18
		c-4.39-3.46-9.29-6.24-14.58-8.05c2.03,3.43,4.57,7.91,1.76,11.68c-5.38,9.28-21.55,7.34-24.58-2.99c-1.75,1.42-3.86,4.05-6.4,2.72
		c-2.56-0.92-3.57-4.59-1.72-6.63C500.68,286.52,508.46,281.63,517.01,280.22z"/>
	<path fill="#000007" d="M461.88,337.27c9.56-1.22,19.23-1.2,28.84-1.74C483.6,343.38,470.16,343.62,461.88,337.27z"/>
	<path fill="#000007" d="M510.45,353.65c3.76-1.71,7.56,4.46,4.11,6.96c-6.78,5.56-15.01,9.35-23.63,10.93
		c-17.03,2.55-35.21,2-50.96-5.6c-2.96-0.95-3.5-5.38-0.98-7.11c1.66-1.65,4.08-0.63,5.94,0.06c8.87,3.59,18.41,5.81,28.01,5.45
		c8.08-0.31,16.44-0.18,24.06-3.27C501.83,359.27,505.99,356.16,510.45,353.65z"/>
	<path fill="#000007" d="M486.94,373.06c2.58-0.4,5.86-1.19,7.85,1.09c2.15,2.28,0.32,6.57-2.72,6.83
		c-9.69,1.18-19.36,2.63-29.1,3.38c-4.31,0.26-5.29-7.21-1.04-8.06C470.2,374.75,478.62,374.25,486.94,373.06z"/>
	<path fill="#000007" d="M502.92,402.24c6.04-1.35,11.67-4.19,17.54-5.89c-4.42,14.13-11.76,28.23-24.42,36.6
		c-9.8,6.93-23.45,7.71-33.99,2c-13.87-7.43-22.04-21.93-27.1-36.29C456.53,406.76,480.61,408.22,502.92,402.24z"/>
	<g>
		<path fill="#000007" d="M779.57,633.52c-2.62,7.98-6.67,15.46-9.81,23.26c-6.24,14.68-13,29.16-18.98,43.94
			c2.73,0.83,5.54,1.84,7.65,3.86c9.23,9.16,15.17,21.06,24.4,30.21c3.38-12.04,3.87-24.68,7.36-36.7c1.08-3.65,3.47-8.01,7.8-8.06
			c4.42,0.29,6.87,4.58,8.61,8.14c4.97,10.88,7.77,22.6,12.77,33.48c5.84-7.71,9.68-16.71,14.29-25.17
			c2.28-4.13,4.65-8.43,8.45-11.36c2.39-1.99,6.3-2,8.44,0.39c2.63,2.8,2.89,6.87,3.17,10.51c0.58,11.55-0.9,23.11,0.03,34.65
			c11.92-7.04,21.27-17.84,33.79-23.96c3.26-1.52,7.84-0.14,9.25,3.31c0.76,2.51-0.48,5.02-1.34,7.33
			c-4.23,10.51-11.61,19.31-16.43,29.51c11.79-3.97,22.66-10.56,34.95-13.02c4.53-1.26,8.8,4.59,6.14,8.51
			c-7.37,10.43-18.62,17.11-27.19,26.4c12.42-0.59,24.73-3.88,37.22-2.55c4.42,0.15,6.83,6.47,3.52,9.47
			c-9.5,8.43-22.35,11.43-32.63,18.59c9.98,1.83,20.13,2.48,30.08,4.5c3.2,0.72,6.79,1.55,8.93,4.27c2.12,3.07-0.04,7.46-3.35,8.61
			c-8.77,3.77-18.25,5.33-27.48,7.57c-2.29,0.58-4.72,0.88-6.71,2.23c7.66,3.2,15.6,5.66,23.34,8.68c4.55,2.1,10.4,3.45,12.79,8.34
			c1.55,3.73-2.06,7.07-5.51,7.62c-11.6,2.22-23.51,0.94-35.2,2.17c2.43,1.75,4.9,4.03,8.12,3.94c11.69,0.09,23.38-0.02,35.08-0.01
			c0.3,45.93,0,91.88,0.15,137.82H695.25c0-25.99-0.16-51.98,0.08-77.97c0.27-19.91,0.08-39.84,0.1-59.76
			c1.85-0.2,4.11,0.22,5.41-1.47c5.62-5.62,12.09-10.34,17.59-16.06c-9.16,2.67-17.89,6.98-27.4,8.39c-2.55,0.3-5.46-1.27-5.82-3.97
			c-0.58-2.43,1.32-4.43,2.96-5.91c7.11-6.03,15.43-10.37,22.98-15.8c-10.16,1.32-20.15,3.96-30.43,4.22
			c-1.75-1.14-4.229-2.2-4.229-4.66c-0.49-3.45,3.11-5.26,5.57-6.76c8.07-3.99,16.68-6.74,24.82-10.55
			c-8.23-0.42-16.48-0.62-24.66-1.53c-2.7-0.62-5.65-0.79-8-2.39c-2.27-1.56-2.47-5.19-0.45-7.01c2.31-2.08,5.56-2.44,8.49-3.04
			c8.23-1.23,16.52-1.98,24.75-3.26c-8.12-3.32-16.61-5.73-24.58-9.43c-2.77-1.69-6.98-3.13-7.02-7.01c-0.01-3.7,3.8-5.59,6.9-6.35
			c13.56-0.64,26.89,2.83,40.44,2.62c-5.32-12.44-14-23.17-18.77-35.89c0.02-2.63-0.59-5.82,1.54-7.83
			c2.47-1.96,6.05-2.45,7.76-5.34C735.32,693.29,757.63,663.54,779.57,633.52z M798.45,701.02c-3.92,11.86-3.61,24.68-7.79,36.48
			c-1.04,2.98-3.23,6.17-6.62,6.55c-2.73,0.13-5.17-1.44-7.12-3.17c-9.23-8.67-14.81-20.47-23.82-29.3
			c0.58,12.53,3.94,24.83,3.72,37.4c0.17,4.33-2.86,9.29-7.76,8.53c-7.17-1.25-12.83-6.29-18.88-9.97
			c-0.89,2.49-1.95,5.67-5.14,5.74c-2.71-2.96-4.68-6.71-7.95-9.09c4.85,8.4,10.46,16.48,13.76,25.67c1.04,2.8,0.84,6.39-1.38,8.58
			c-1.979,1.84-4.88,1.96-7.4,2.36c-8.38,1.05-16.84-2.03-25.08-1.17c7.41,2.62,14.94,5.04,22.01,8.53
			c2.02,1.01,4.26,2.44,4.71,4.85c0.51,2.92-2,5.39-4.62,6.17c-2.88,1.21-6.28,0.62-8.98,2.24c3.86,0.18,8,0.16,11.51,2.01
			c2.04,1.15,3.71,4.15,2.09,6.28c-3.45,5.36-10.27,6.35-15.65,8.88c4.88,0.31,9.66-0.94,14.47-1.55c3.26,0.66,7.69,3.19,5.85,7.19
			c-4.3,6.15-11.4,9.39-17.37,13.63c7.06-1.38,13.57-5.41,20.95-5.34c3.39,0.33,5.37,4.95,3.21,7.63
			c-3.83,6.25-10.75,9.77-14.97,15.57c6.43-3.33,12.78-7.11,19.86-8.88c3.35-0.91,6.5,3.04,5.49,6.19
			c-0.96,3.43-3.36,6.15-5.17,9.15c49.34,0.12,98.68-0.06,148.02,0.09c-1.8-2.61-4.39-6.5-1.59-9.35c4.73-4.09,11.42-3.12,17.19-3.8
			c6.04-0.09,12.09-0.36,18.14-0.43c-4.93-3.55-11.38-4.29-16.85-6.87c-4.54-2.09-9.5-3.47-13.42-6.7
			c-2.18-1.69-3.11-5.23-1.16-7.43c2.64-3.26,6.99-4.01,10.71-5.43c7.47-2.22,15.29-3.22,22.65-5.81
			c-9.07-1.61-18.25-2.52-27.34-3.96l-0.14-0.3c-2.6-1.13-5.76-1.72-7.44-4.22c-0.76-1.78-0.36-3.75-0.6-5.61
			c8.42-8,19.9-11.25,29.57-17.21c-10.39,0.09-20.7,3.04-31.14,1.95c-3.33-0.33-6.71-3.48-5.52-7.04c1.72-4.95,6.11-8.27,9.72-11.84
			c4.45-4.32,9.84-7.8,13.63-12.74c-9.78,4.1-19.31,9.39-29.92,11.03c-4.05,0.83-7.32-3.82-6.09-7.49
			c3.09-9.21,8.87-17.13,13.68-25.47c0.94-1.76,2.23-3.42,2.46-5.45c-9.07,6.61-17.35,14.3-26.94,20.18
			c-2.6,0.63-5.37,1.73-8.01,0.7c-2.37-1-3.38-3.61-4.12-5.87c-1.73-5.57-0.3-11.49-1.19-17.12c0.4-7.01,0.83-14.07,0.09-21.06
			c-2.28,3.47-4.49,6.99-6.28,10.74c-3.78,7.04-7.11,14.4-11.98,20.79c-1.83,2.34-4.44,4.61-7.59,4.47
			c-3.34-0.36-5.65-3.19-7.11-5.96C806.1,724.18,803.87,711.91,798.45,701.02z M744.51,713.93c-2.85,8.83-7.93,16.79-10.41,25.77
			c4.53,3.38,9.3,6.48,14.35,9.04C748.07,737.05,745.74,725.53,744.51,713.93z M727.28,861.26c0.27,0.35,0.81,1.05,1.08,1.4
			c1.16-0.27,2.33-0.7,2.97-1.8C730.89,858.26,728.15,859.9,727.28,861.26z M821.39,894.05c-10.28,14.16-20.84,28.11-31.1,42.28
			c-1.15,1.73-2.82,3.22-3.33,5.3c9.33,2.22,18.58,4.77,27.94,6.9c-9.05,15.18-19.75,29.4-28.76,44.61
			c6.44-4.8,12.37-10.28,18.63-15.34c12.7-10.85,25.91-21.19,38.24-32.43c-7.26-3.88-14.44-7.91-21.66-11.86
			c-0.06-0.28-0.19-0.84-0.25-1.12c9.58-7.9,19.8-15.1,29.06-23.32C840.58,904.03,831.09,898.84,821.39,894.05z"/>
	</g>
	<path fill="#000007" d="M169.23,639.82c14.35,17.42,28.25,35.22,42.58,52.65c-4.61,2.59-9.47,4.73-14.18,7.14
		C188.13,679.7,178.47,659.85,169.23,639.82z"/>
	<g>
		<path fill="#000007" d="M482.87,713.67c20.38-1.27,41.41,0.89,60.23,9.22c16.11,7.02,29.71,19.84,37.17,35.79
			c20.23,2.25,40.16,10.93,54.13,25.97c14.01,15.32,20.86,36.09,21.92,56.58c0.61-0.21,1.82-0.63,2.43-0.84
			c-0.79,0.36-1.58,0.71-2.37,1.05c0.09,2.26,0.19,4.52,0.27,6.8c6.43,0,12.86,0.04,19.3-0.03c0.08,24.29,0.1,48.59-0.01,72.88
			c-0.12,26.3-0.09,52.61-0.02,78.91h-6.57c-4.29-4.08-8.76-7.96-13.63-11.32c-0.12-0.09-0.36-0.25-0.479-0.34
			c-4.21-2.79-8.55-5.47-13.271-7.3c-0.52-0.26-1.54-0.79-2.05-1.06c-6.79-2.63-13.94-4.15-21.11-5.28
			c-5.09-1.17-10.43-0.23-15.61-0.33c4.44-3.83,8.62-8.27,10.32-14.03c3.18-9.24,1.33-20.19-5.45-27.38
			c-8.66-9.96-24.72-12.11-35.64-4.63c-9.13,6.02-14.29,17.78-11.82,28.54c1.7,9.37,8.97,16.91,17.53,20.59
			c-11.25,1.88-22.66,4.6-34.11,2.61c-0.53-0.22-1.6-0.68-2.13-0.9c-4.65-2.21-8.27-6.28-10.02-11.11
			c-0.23-0.52-0.71-1.57-0.94-2.09c-2.97-13.41,1.52-26.74,3.16-39.99c0.72-6.54,1.26-13.81-2.57-19.56
			c-3.36-5.49-10.23-7.9-16.42-6.92c-9.34,1.42-17.68,6.24-25.83,10.73c-21.57,12.43-42.83,25.79-66.34,34.33
			c-19.43,7.13-40.29,10.94-61,9.17c-16.22-1.07-31.97-5.63-46.98-11.68c-0.51-0.25-1.53-0.76-2.04-1.01
			c-30.2-13.05-56.49-33.27-85.65-48.28c0.03-14.83-0.01-29.67,0.02-44.5c6.72-0.02,13.45,0,20.17-0.01
			c9.92,0.04,19.85-0.09,29.77,0.06c10.28-22.63,25.2-43.02,43.12-60.21c0.78,3.35,1.25,6.78,1.88,10.17
			c-14.39,14.55-26.78,31.28-35.32,49.93c26.36,0.12,52.72,0.01,79.09,0.05c5.66,0.04,11.35-0.3,16.99,0.41
			c2.93,0.48,5.9,0.48,8.83,0.03c3.3-0.4,6.62-0.52,9.94-0.74c6.93-15.49,16.65-30.88,31.87-39.32c8.8-5.13,19.42-6.33,29.36-4.64
			c11.54,1.69,21.91,7.35,32.39,12.14c-0.08-2.36,0.02-4.7,0.13-7.04c0.04,2.51,0.18,5.04,0.36,7.56c7.94,2.74,15.37,7.79,24.1,7.83
			c6.3,0.6,12-4.19,13.72-10.05c3.77-13.09,1.61-27.83,8.98-39.84c5.77-9.88,17.25-14.68,28.2-15.85
			c-8.2-14.94-22.72-25.76-38.75-31.09c-14.99-4.92-30.98-6.51-46.7-5.55c-15.34,0.7-30.51,3.4-45.36,7.22
			c-41.13,11.09-79.8,32.07-110.54,61.69c-0.72-3.29-1.3-6.59-1.88-9.89c31.01-28.54,69.3-48.79,109.89-59.83
			C452.37,717.35,467.54,714.73,482.87,713.67z M549.98,778.98c-7.71,13.31-3.09,30.04-10.61,43.42
			c-4.68,8.15-14.78,12.15-23.87,10.27c-17.95-3.46-32.7-15.64-50.48-19.63c-8.75-2.15-18.38-1.8-26.42,2.56
			c-13.03,6.74-21.29,19.63-27.65,32.39c8.29,0.56,16.65,0.11,24.97,0.26c46.06-0.01,92.11,0.07,138.16-0.05
			c6.12-25.8,9.52-53.48,1.11-79.17c0.09-2.61-2.67-1.63-4.16-1.55C562.94,768.34,554.22,771.58,549.98,778.98z M584.05,767.95
			c7.86,26.14,5.07,54.1-1.16,80.27c21.58,0.03,43.16,0.15,64.74-0.23c0.25-19.33-4.85-39.29-17-54.63
			C619.22,779.17,601.79,770.83,584.05,767.95z"/>
	</g>
	<path fill="#000007" d="M227.09,899.56c35.19,18.91,67.37,44.49,106.35,55.52c-9.82,0.35-19.66,0.15-29.49,0.11
		c-0.53,10.2-0.13,20.46-0.21,30.68c45.36,0,90.72,0,136.07,0.01c0.04-10.21,0.03-20.42,0-30.63c-9.46-0.2-18.96,0.42-28.39-0.37
		c26.28-7.56,50.22-21.16,73.56-35.08c9.68-5.36,19.15-11.72,30.13-14.04c4.74-1.14,10.66,1.01,12.25,5.94
		c2.36,7.34,0.46,15.07-0.82,22.42c-1.78,10.32-4.03,20.95-1.83,31.39c1.71,8.07,6.71,15.97,14.64,19.1
		c9.74,4.16,20.52,1.84,30.61,0.47c17.19-2.75,34.68-6.58,52.12-3.64c14.25,2.24,27.48,9.17,38.33,18.56H106.28
		c0.01-14.95,0.03-29.89-0.01-44.83c40.26-0.11,80.53,0,120.8-0.05C227.1,936.6,227.06,918.08,227.09,899.56z"/>
</g>
<g>
	<g>
		<path fill="#E8AE9A" d="M477.95,212.04c12.65-1.52,24.18-7.84,33.63-16.17c10.19,15.44,29.37,23.5,47.56,22.17
			c1.76,6.45,3.85,13.27,8.96,17.91c3.48,3.32,9.01,4.91,13.46,2.6c5.92-2.74,9.03-8.9,11.36-14.65
			c17.42,9.29,21.96,34.74,10.12,50.14c-5.6,8.11-15.63,11.95-25.25,11.84c-0.43,11.75,0.53,23.55-0.95,35.25
			c-3.08,23.64-16.03,45.4-34.17,60.65c-0.93,1.01-2.51,1.67-2.74,3.14c1.32,20.35,2.84,40.7,4.61,61.02
			c-9.67,11.55-22.22,20.63-36.07,26.49c-18.85,7.85-40.57,8.85-59.88,2.06c-16.52-5.44-31.32-15.71-42.36-29.14
			c0.68-2.38,1.16-4.8,1.35-7.27c1.76-15.35,2.84-30.76,4.47-46.13c0.04-2.24,0.81-5.1-1.18-6.76c-1.5-1.49-3.2-2.76-4.82-4.11
			c-17.07-14.05-28.9-34.25-32.93-55.98c-2.28-13.46-1.28-27.15-1.42-40.73c-6.31-0.38-13.1-0.69-18.27-4.81
			c-11.72-7.81-16.16-23.54-12.61-36.81c1.78-7.24,6.61-13.13,11.84-18.22c5.38,1.77,11.21,1.15,16.39-1
			c24.41,7.44,53.07-0.71,68.93-20.95C449.76,210.1,463.98,214.11,477.95,212.04z M429.94,244.26c-8.82,0.1-17.89,1.19-25.87,5.18
			c-8.33,3.48-9.85,13.66-8.99,21.61c6.31-4.94,13.73-8.81,21.82-9.55c16.48-1.47,32.95,0.8,49.33,2.38
			c3.3-6.9,3.3-15.52-1.06-21.96C453.49,243.42,441.72,244.3,429.94,244.26z M503.09,247.39c-3.86,6.63-4.45,15.37-0.42,22.06
			c15.3-1.99,30.76-3.56,46.21-2.79c7.82,0.31,15.48,3.14,21.75,7.78c0.89,0.62,1.72,1.5,2.91,1.42c0.34-6.75-0.23-14.77-6.06-19.22
			c-8.93-5.84-19.98-6.98-30.41-7C525.7,249.69,514.38,248.57,503.09,247.39z M406.33,290.3c-2.78,2.96,1.69,8.46,5.11,6.15
			c4.57-3.32,9.35-6.67,14.98-7.86c-1.28,1.96-2.87,3.89-3.17,6.3c-0.53,2.71,1,5.26,2.74,7.19c6.4,6.79,20.17,4.53,22.71-4.91
			c1.9,0.76,3.09,2.98,5.33,2.87c3.05,0.06,5.26-4.02,3.42-6.49c-4.02-5.06-9.4-9.05-15.4-11.44
			C429.95,277.03,415.26,280.96,406.33,290.3z M517.01,280.22c-8.55,1.41-16.33,6.3-21.87,12.88c-1.85,2.04-0.84,5.71,1.72,6.63
			c2.54,1.33,4.65-1.3,6.4-2.72c3.03,10.33,19.2,12.271,24.58,2.99c2.81-3.77,0.27-8.25-1.76-11.68c5.29,1.81,10.19,4.59,14.58,8.05
			c3.45,2.57,8.31-3.22,5.14-6.18C538.52,282.59,527.45,278.64,517.01,280.22z M461.88,337.27c8.28,6.35,21.72,6.11,28.84-1.74
			C481.11,336.07,471.44,336.05,461.88,337.27z M510.45,353.65c-4.46,2.51-8.62,5.62-13.45,7.42c-7.62,3.09-15.98,2.96-24.06,3.27
			c-9.6,0.36-19.14-1.86-28.01-5.45c-1.86-0.69-4.28-1.71-5.94-0.06c-2.52,1.73-1.98,6.16,0.98,7.11c15.75,7.6,33.93,8.15,50.96,5.6
			c8.62-1.58,16.85-5.37,23.63-10.93C518.01,358.11,514.21,351.94,510.45,353.65z M486.94,373.06c-8.32,1.19-16.74,1.69-25.01,3.24
			c-4.25,0.85-3.27,8.32,1.04,8.06c9.74-0.75,19.41-2.2,29.1-3.38c3.04-0.26,4.87-4.55,2.72-6.83
			C492.8,371.87,489.52,372.66,486.94,373.06z M502.92,402.24c-22.31,5.98-46.39,4.52-67.97-3.58c5.06,14.36,13.23,28.86,27.1,36.29
			c10.54,5.71,24.19,4.93,33.99-2c12.66-8.37,20-22.47,24.42-36.6C514.59,398.05,508.96,400.89,502.92,402.24z"/>
	</g>
	<g>
		<path fill="#E8AE9A" d="M389.96,550.86c8.3-1.65,16.58-3.74,25.05-4.35c3.24,0.19,7.14,0.27,9.39,2.99
			c2.22,2.52,1.19,6.13,2.07,9.11c2.47,3.13,5.68,5.59,8.46,8.43c9.43,8.56,18.46,17.56,27.43,26.6c6.43,6.56,9.6,15.55,11.27,24.42
			c4.06,21.07,1.77,42.67-0.68,63.79c-14.64,4.14-29.25,8.38-43.9,12.49c-12.4,3.43-24.74,7.04-37.11,10.56
			c-4.21,1.14-8.57,3.02-12.97,1.78c-8.07-1.87-15.94-4.54-24.04-6.25c-2.72-0.84-4.59,1.63-6.44,3.13
			c-16.43,15.2-33.15,30.12-48.64,46.29c-9.15-3.11-18.79-4.15-28.28-5.63c-4.19-0.86-8.89-1.42-12.03-4.62
			c-2.74-3.07-1.51-7.65,0.22-10.91c5.75-10.83,15.17-19.19,20.79-30.1c3.59-6.42,5-14.66,1.41-21.39
			c-3.41-6.62-10.29-10.21-16.83-13.06c3.58-3.17,7.75-5.54,11.56-8.4c20.19-14.44,38.88-31.05,55.22-49.76
			c2.86-3.08,3.69-7.3,4.68-11.24c2.68-10.94,5.83-21.76,8.4-32.72c0.53-2.01,1.31-5,3.94-4.86
			C362.69,555.69,376.37,553.49,389.96,550.86z M367.33,575.35c-0.44,2.61-0.33,5.27-0.22,7.92c6.97-1.64,13.16-5.51,19.9-7.84
			C380.5,574.43,373.88,575.91,367.33,575.35z"/>
	</g>
	<path fill="#E8AE9A" d="M194,557.98c0.55,0.2,1.63,0.61,2.18,0.82C195.63,558.59,194.55,558.18,194,557.98z"/>
	<path fill="#E8AE9A" d="M779.57,633.52c1.19-2.05,2.65-3.92,4.16-5.75c11.38,18.41,23.35,36.44,34.79,54.81
		c5.19,7.87,9.6,16.28,15.14,23.9c-4.61,8.46-8.45,17.46-14.29,25.17c-5-10.88-7.8-22.6-12.77-33.48c-1.74-3.56-4.19-7.85-8.61-8.14
		c-4.33,0.05-6.72,4.41-7.8,8.06c-3.49,12.02-3.98,24.66-7.36,36.7c-9.23-9.15-15.17-21.05-24.4-30.21
		c-2.11-2.02-4.92-3.03-7.65-3.86c5.98-14.78,12.74-29.26,18.98-43.94C772.9,648.98,776.95,641.5,779.57,633.52z"/>
	<path fill="#E8AE9A" d="M161.32,629.71c2.97,3.09,5.36,6.67,7.91,10.11c9.24,20.03,18.9,39.88,28.4,59.79
		c4.71-2.41,9.57-4.55,14.18-7.14c14.52-7.23,28.85-14.85,43.13-22.53c6.19,2.51,13.26,4.02,17.82,9.31
		c3.47,3.55,2.85,9.21,0.9,13.37c-5.7,12.09-16.44,20.89-22.18,32.96c-2.76,5.48-3.43,12.5,0.01,17.85
		c3.19,5.36,9.52,7.61,15.31,8.85c8.22,1.62,16.6,2.36,24.77,4.26c-2.48,3.79-5.95,6.76-9.02,10.04
		c-9.61,9.7-19.43,19.22-28.41,29.52c-2.69,2.65-1.12,6.73-2.02,10.07c-0.05-2.3-0.09-4.59-0.12-6.87c-2.44,0.93-4.25,2.87-6.13,4.6
		c-7.12,6.85-14.01,13.96-21.48,20.45c-14.69,13.15-31.49,24.14-49.96,31.19c-16.18,6.39-33.37,9.73-50.59,11.69
		c-6.26,1.25-12.47,2.92-18.88,3.11c-10.89,0.8-22.2-2.57-30.33-9.97c-9.87-8.94-15.47-22.18-15.85-35.42
		c-0.42-8.39,0.03-17.03,3.3-24.87c2.11-5.76,6.68-10.06,9.74-15.27c28.83-51.38,59.48-101.73,91.73-151.04
		C162.68,632.48,161.92,631.13,161.32,629.71z"/>
	<path fill="#E8AE9A" d="M241.01,655.94c0.46,0.05,1.38,0.17,1.83,0.23l0.31,0.77C242.62,656.69,241.55,656.19,241.01,655.94z"/>
	<path fill="#E8AE9A" d="M260.32,662.42c0.09,0.03,0.28,0.1,0.37,0.14C260.6,662.52,260.41,662.45,260.32,662.42z"/>
	<path fill="#E8AE9A" d="M798.45,701.02c5.42,10.89,7.65,23.16,13.36,33.95c1.46,2.77,3.77,5.6,7.11,5.96
		c3.15,0.14,5.76-2.13,7.59-4.47c4.87-6.39,8.2-13.75,11.98-20.79c2.31,3.28,4.43,6.7,6.19,10.32c0.89,5.63-0.54,11.55,1.19,17.12
		c0.74,2.26,1.75,4.87,4.12,5.87c2.64,1.03,5.41-0.07,8.01-0.7c10.39,17.91,21.09,35.65,30.55,54.08c0.24,1.86-0.16,3.83,0.6,5.61
		c1.68,2.5,4.84,3.09,7.44,4.22l0.14,0.3c1.47,3.3,3.44,6.36,4.69,9.77c-3.72,1.42-8.07,2.17-10.71,5.43
		c-1.95,2.2-1.02,5.74,1.16,7.43c3.92,3.23,8.88,4.61,13.42,6.7c-0.5,2.41-0.93,4.85-1.29,7.3c-5.77,0.68-12.46-0.29-17.19,3.8
		c-2.8,2.85-0.21,6.74,1.59,9.35c-49.34-0.15-98.68,0.03-148.02-0.09c1.81-3,4.21-5.72,5.17-9.15c1.01-3.15-2.14-7.1-5.49-6.19
		c-7.08,1.77-13.43,5.55-19.86,8.88c4.22-5.8,11.14-9.32,14.97-15.57c2.16-2.68,0.18-7.3-3.21-7.63
		c-7.38-0.07-13.89,3.96-20.95,5.34c5.97-4.24,13.07-7.48,17.37-13.63c1.84-4-2.59-6.53-5.85-7.19c14.4-5.97,29.57-9.65,44.47-14.11
		c-7.36-9.53-15.43-18.49-23.06-27.8c-6.26-7.32-12.41-14.73-18.9-21.85c3.19-0.07,4.25-3.25,5.14-5.74
		c6.05,3.68,11.71,8.72,18.88,9.97c4.9,0.76,7.93-4.2,7.76-8.53c0.22-12.57-3.14-24.87-3.72-37.4c9.01,8.83,14.59,20.63,23.82,29.3
		c1.95,1.73,4.39,3.3,7.12,3.17c3.39-0.38,5.58-3.57,6.62-6.55C794.84,725.7,794.53,712.88,798.45,701.02z"/>
	<path fill="#E8AE9A" d="M744.51,713.93c1.23,11.6,3.56,23.12,3.94,34.81c-5.05-2.56-9.82-5.66-14.35-9.04
		C736.58,730.72,741.66,722.76,744.51,713.93z"/>
	<path fill="#E8AE9A" d="M303.09,750.84c0.51,0.28,1.54,0.83,2.05,1.11C304.63,751.67,303.6,751.12,303.09,750.84z"/>
	<path fill="#E8AE9A" d="M338.92,806.94c0.46,0.04,1.39,0.12,1.85,0.16l0.32,0.79C340.55,807.65,339.46,807.18,338.92,806.94z"/>
	<path fill="#E8AE9A" d="M374.41,810.38c0.05,0.02,0.16,0.07,0.22,0.09C374.57,810.45,374.46,810.4,374.41,810.38z"/>
	<path fill="#E8AE9A" d="M680.72,831.67c10.28-0.26,20.271-2.9,30.43-4.22c-7.55,5.43-15.87,9.77-22.98,15.8
		c-1.64,1.48-3.54,3.48-2.96,5.91c0.36,2.7,3.27,4.27,5.82,3.97c9.51-1.41,18.24-5.72,27.4-8.39c-5.5,5.72-11.97,10.44-17.59,16.06
		c-1.3,1.69-3.56,1.27-5.41,1.47c-0.02,19.92,0.17,39.85-0.1,59.76c-4.63-0.31-9.26-0.41-13.89-0.47c-1.85-0.1-3.68-0.3-5.5-0.47
		c0.11-24.29,0.09-48.59,0.01-72.88c-6.44,0.07-12.87,0.03-19.3,0.03c-0.08-2.28-0.18-4.54-0.27-6.8c0.79-0.34,1.58-0.69,2.37-1.05
		C666.13,837.63,673.61,835.1,680.72,831.67z"/>
	<path fill="#E8AE9A" d="M727.28,861.26c0.87-1.36,3.61-3,4.05-0.4c-0.64,1.1-1.81,1.53-2.97,1.8
		C728.09,862.31,727.55,861.61,727.28,861.26z"/>
</g>
<g>
	<path fill="#544899" d="M162.89,434.08c1.97-2.14,3.93-4.28,6.07-6.24c9.85,10.06,18.99,21.88,21.7,36.03
		c2.56,12.18-1.78,24.86-9.33,34.45c-11.47,14.33-27.43,24.07-43.33,32.78c-14.19,8.07-29.46,14.17-43.05,23.28
		c2.86,2.44,7.38,1.59,10.99,2.02c27,0.31,54.09-3.29,81,0.28c2.34,0.48,4.69,0.96,7.06,1.3c0.55,0.2,1.63,0.61,2.18,0.82
		c7.13,2.1,14.68,6.21,17.36,13.59c2.66,7.36,0.03,15.22-3.25,21.91c-2.5,5.4-5.89,10.73-6.3,16.81c0.78,3.87,5.57,4.58,8.89,4.85
		c16.37,0.28,31.98-5.43,48.01-7.81c3.81-0.27,8.93-1.16,11.33,2.66c2.21,3.32-0.09,7.34-2.72,9.62
		c-9.48,8.32-21.08,14.07-29.7,23.4c-1.8,2.06-3.67,4.44-3.81,7.28c0.36,2.56,3,3.73,5.02,4.83c0.54,0.25,1.61,0.75,2.14,1
		c5.59,2.22,11.44,3.66,17.17,5.48c0.09,0.03,0.28,0.1,0.37,0.14c1.48,0.45,2.99,0.98,4.44,1.58c6.54,2.85,13.42,6.44,16.83,13.06
		c3.59,6.73,2.18,14.97-1.41,21.39c-5.62,10.91-15.04,19.27-20.79,30.1c-1.73,3.26-2.96,7.84-0.22,10.91
		c3.14,3.2,7.84,3.76,12.03,4.62c9.49,1.48,19.13,2.52,28.28,5.63c1.07,0.33,2.16,0.66,3.24,0.99c0.51,0.28,1.54,0.83,2.05,1.11
		c11.31,5.75,20.09,16.63,22.5,29.17c0.58,3.3,1.16,6.6,1.88,9.89c0.92,6.18,3.31,13.1,9.4,15.93c0.54,0.24,1.63,0.71,2.17,0.95
		c10.88,3.37,22.61-1.97,33.32,2.49c0.05,0.02,0.16,0.07,0.22,0.09c6.26,2.65,10.99,8.14,13.5,14.38
		c3.13,7.53,3.42,15.81,3.69,23.84c-2.93,0.45-5.9,0.45-8.83-0.03c0.06-8.99-0.35-19.02-6.4-26.26c-4.48-5.36-12.18-5.7-18.61-5.08
		c-7.6,0.81-15.79,1.15-22.74-2.55c-6.42-3.33-11.38-9.42-13.01-16.5c-0.63-3.39-1.1-6.82-1.88-10.17
		c-1.32-7.88-4.02-15.92-9.8-21.67c-5.18-5.03-11.87-8.61-18.98-9.89c-8.17-1.9-16.55-2.64-24.77-4.26
		c-5.79-1.24-12.12-3.49-15.31-8.85c-3.44-5.35-2.77-12.37-0.01-17.85c5.74-12.07,16.48-20.87,22.18-32.96
		c1.95-4.16,2.57-9.82-0.9-13.37c-4.56-5.29-11.63-6.8-17.82-9.31c-8.25-3.02-17.73-4.19-24.22-10.68
		c-4.56-4.53-3.91-12.13-0.48-17.12c5.42-7.86,13.35-13.46,21.06-18.88c2.66-1.97,5.66-3.53,7.89-6.04
		c-15.65,2.79-31.1,8.04-47.18,7.29c-5.3-0.22-10.86-2.16-14.24-6.42c-1.98-2.52-2.75-5.85-2.32-9
		c1.08-10.83,9.73-19.22,10.54-30.12c0.38-4.48-3.21-8.14-6.99-9.92c-7.32-3.43-15.53-4.47-23.53-4.76
		c-22.17-1.21-44.32,0.93-66.49,0.89c-6.02-0.13-12.28,0.08-17.99-2.18c-2.71-0.99-5.16-3.15-5.63-6.12
		c-0.87-3.97,2.06-7.31,4.87-9.66c4.77-3.84,10.31-6.55,15.69-9.43c17.02-8.88,34.63-16.9,50.29-28.14
		c0.12-0.09,0.36-0.26,0.48-0.35c1.24-0.89,2.45-1.84,3.69-2.72c0.05-0.05,0.17-0.14,0.23-0.19c6.23-5.01,12.22-10.55,16.49-17.38
		c4.55-7.05,6.79-15.83,4.82-24.11C179.5,452.68,171.13,442.93,162.89,434.08z"/>
	<path fill="#544899" d="M429.05,694.34c14.65-4.11,29.26-8.35,43.9-12.49c2.74,10.77,6.65,21.2,9.92,31.82
		c-15.33,1.06-30.5,3.68-45.34,7.62C434.92,712.24,431.79,703.35,429.05,694.34z"/>
	<path fill="#544899" d="M440.06,729.32c14.85-3.82,30.02-6.52,45.36-7.22c5.99,17.99,11.68,36.1,17.43,54.17
		c-10.86,3.72-21.89,6.89-32.76,10.57c-3.51,1.09-6.97,2.4-10.6,3.09C453.23,769.66,446.8,749.44,440.06,729.32z"/>
	<path fill="#544899" d="M530.94,965.97c0.23,0.52,0.71,1.57,0.94,2.09c-0.29-0.3-0.88-0.92-1.18-1.22L530.94,965.97z"/>
</g>
<g>
	<path fill="#EEF1EE" d="M339.38,454.43c20.65-9.72,44.35-13.18,66.85-9.08c11.04,13.43,25.84,23.7,42.36,29.14
		c19.31,6.79,41.03,5.79,59.88-2.06c13.85-5.86,26.4-14.94,36.07-26.49c30.3-5.03,62.49,1.38,88.2,18.3
		c7.93,5.25,16.46,9.46,24.66,14.26c55.36,31.8,105.09,73.14,147.33,120.96c-6.83,9.56-13.83,19.01-21,28.31
		c-1.51,1.83-2.97,3.7-4.16,5.75c-21.94,30.02-44.25,59.77-66.29,89.72c-1.71,2.89-5.29,3.38-7.76,5.34
		c-2.13,2.01-1.52,5.2-1.54,7.83c-1.03,0.8-2.04,1.61-3.05,2.43c-6.09-1.17-12.1-2.75-18.12-4.21c-0.58,11.68-0.12,23.38-0.5,35.05
		c-3.1,0.76-6.91,2.65-6.9,6.35c0.04,3.88,4.25,5.32,7.02,7.01c-0.1,4.22-0.23,8.45-0.17,12.69c-2.93,0.6-6.18,0.96-8.49,3.04
		c-2.02,1.82-1.82,5.45,0.45,7.01c2.35,1.6,5.3,1.77,8,2.39c-0.14,4.02-0.15,8.05-0.16,12.08c-2.46,1.5-6.06,3.31-5.57,6.76
		c0,2.46,2.479,3.52,4.229,4.66c-7.11,3.43-14.59,5.96-21.97,8.72c-0.61,0.21-1.82,0.63-2.43,0.84
		c-1.06-20.49-7.91-41.26-21.92-56.58c-13.97-15.04-33.9-23.72-54.13-25.97c-7.46-15.95-21.06-28.77-37.17-35.79
		c-18.82-8.33-39.85-10.49-60.23-9.22c-3.27-10.62-7.18-21.05-9.92-31.82c2.45-21.12,4.74-42.72,0.68-63.79
		c-1.67-8.87-4.84-17.86-11.27-24.42c-8.97-9.04-18-18.04-27.43-26.6c-2.78-2.84-5.99-5.3-8.46-8.43c-0.88-2.98,0.15-6.59-2.07-9.11
		c-2.25-2.72-6.15-2.8-9.39-2.99c-8.47,0.61-16.75,2.7-25.05,4.35c-13.59,2.63-27.27,4.83-41.03,6.3c-2.63-0.14-3.41,2.85-3.94,4.86
		c-2.57,10.96-5.72,21.78-8.4,32.72c-0.99,3.94-1.82,8.16-4.68,11.24c-16.34,18.71-35.03,35.32-55.22,49.76
		c-3.81,2.86-7.98,5.23-11.56,8.4c-1.45-0.6-2.96-1.13-4.44-1.58c-0.09-0.04-0.28-0.11-0.37-0.14c-5.73-1.82-11.58-3.26-17.17-5.48
		l-0.31-0.77c-0.45-0.06-1.37-0.18-1.83-0.23c-2.02-1.1-4.66-2.27-5.02-4.83c0.14-2.84,2.01-5.22,3.81-7.28
		c8.62-9.33,20.22-15.08,29.7-23.4c2.63-2.28,4.93-6.3,2.72-9.62c-2.4-3.82-7.52-2.93-11.33-2.66c-16.03,2.38-31.64,8.09-48.01,7.81
		c-3.32-0.27-8.11-0.98-8.89-4.85c0.41-6.08,3.8-11.41,6.3-16.81c3.28-6.69,5.91-14.55,3.25-21.91
		c-2.68-7.38-10.23-11.49-17.36-13.59c-0.55-0.21-1.63-0.62-2.18-0.82c-2.37-0.34-4.72-0.82-7.06-1.3c-0.49-0.17-1.48-0.5-1.97-0.67
		c31.51-28.27,66.23-52.86,102.69-74.33C304.51,471.87,322,463.24,339.38,454.43z"/>
	<path fill="#EEF1EE" d="M175.47,564.29c8,0.29,16.21,1.33,23.53,4.76c3.78,1.78,7.37,5.44,6.99,9.92
		c-0.81,10.9-9.46,19.29-10.54,30.12c-0.43,3.15,0.34,6.48,2.32,9c3.38,4.26,8.94,6.2,14.24,6.42c16.08,0.75,31.53-4.5,47.18-7.29
		c-2.23,2.51-5.23,4.07-7.89,6.04c-7.71,5.42-15.64,11.02-21.06,18.88c-3.43,4.99-4.08,12.59,0.48,17.12
		c6.49,6.49,15.97,7.66,24.22,10.68c-14.28,7.68-28.61,15.3-43.13,22.53c-14.33-17.43-28.23-35.23-42.58-52.65
		c-2.55-3.44-4.94-7.02-7.91-10.11c-7.56-9.53-15.7-18.62-22.61-28.63C150.12,588,162.93,576.26,175.47,564.29z"/>
	<path fill="#EEF1EE" d="M367.33,575.35c6.55,0.56,13.17-0.92,19.68,0.08c-6.74,2.33-12.93,6.2-19.9,7.84
		C367,580.62,366.89,577.96,367.33,575.35z"/>
	<path fill="#EEF1EE" d="M391.94,704.9c12.37-3.52,24.71-7.13,37.11-10.56c2.74,9.01,5.87,17.9,8.48,26.95
		c-40.59,11.04-78.88,31.29-109.89,59.83c-2.41-12.54-11.19-23.42-22.5-29.17c-0.51-0.28-1.54-0.83-2.05-1.11
		c-1.08-0.33-2.17-0.66-3.24-0.99c15.49-16.17,32.21-31.09,48.64-46.29c1.85-1.5,3.72-3.97,6.44-3.13
		c8.1,1.71,15.97,4.38,24.04,6.25C383.37,707.92,387.73,706.04,391.94,704.9z"/>
	<path fill="#EEF1EE" d="M485.42,722.1c15.72-0.96,31.71,0.63,46.7,5.55c16.03,5.33,30.55,16.15,38.75,31.09
		c-10.95,1.17-22.43,5.97-28.2,15.85c-7.37,12.01-5.21,26.75-8.98,39.84c-1.72,5.86-7.42,10.65-13.72,10.05
		c-8.729-0.04-16.16-5.09-24.1-7.83c-0.18-2.52-0.32-5.05-0.36-7.56c-0.11,2.34-0.21,4.68-0.13,7.04
		c-10.48-4.79-20.85-10.45-32.39-12.14c-9.94-1.69-20.56-0.49-29.36,4.64c-15.22,8.44-24.94,23.83-31.87,39.32
		c-3.32,0.22-6.64,0.34-9.94,0.74c-0.27-8.03-0.56-16.31-3.69-23.84c-2.51-6.24-7.24-11.73-13.5-14.38
		c-0.06-0.02-0.17-0.07-0.22-0.09c-10.71-4.46-22.44,0.88-33.32-2.49l-0.32-0.79c-0.46-0.04-1.39-0.12-1.85-0.16
		c-6.09-2.83-8.48-9.75-9.4-15.93c30.74-29.62,69.41-50.6,110.54-61.69c6.74,20.12,13.17,40.34,19.43,60.61
		c3.63-0.69,7.09-2,10.6-3.09c10.87-3.68,21.9-6.85,32.76-10.57C497.1,758.2,491.41,740.09,485.42,722.1z"/>
	<path fill="#EEF1EE" d="M291.57,756.54c7.11,1.28,13.8,4.86,18.98,9.89c5.78,5.75,8.48,13.79,9.8,21.67
		c-17.92,17.19-32.84,37.58-43.12,60.21c-9.92-0.15-19.85-0.02-29.77-0.06c1.13-14.07,3.71-27.99,4.66-42.08
		c0.9-3.34-0.67-7.42,2.02-10.07c8.98-10.3,18.8-19.82,28.41-29.52C285.62,763.3,289.09,760.33,291.57,756.54z"/>
	<path fill="#EEF1EE" d="M549.98,778.98c4.24-7.4,12.96-10.64,21.05-11.5c1.49-0.08,4.25-1.06,4.16,1.55
		c8.41,25.69,5.01,53.37-1.11,79.17c-46.05,0.12-92.1,0.04-138.16,0.05c-8.32-0.15-16.68,0.3-24.97-0.26
		c6.36-12.76,14.62-25.65,27.65-32.39c8.04-4.36,17.67-4.71,26.42-2.56c17.78,3.99,32.53,16.17,50.48,19.63
		c9.09,1.88,19.19-2.12,23.87-10.27C546.89,809.02,542.27,792.29,549.98,778.98z"/>
	<path fill="#EEF1EE" d="M584.05,767.95c17.74,2.88,35.17,11.22,46.58,25.41c12.15,15.34,17.25,35.3,17,54.63
		c-21.58,0.38-43.16,0.26-64.74,0.23C589.12,822.05,591.91,794.09,584.05,767.95z"/>
	<path fill="#EEF1EE" d="M286.91,848.2c8.54-18.65,20.93-35.38,35.32-49.93c1.63,7.08,6.59,13.17,13.01,16.5
		c6.95,3.7,15.14,3.36,22.74,2.55c6.43-0.62,14.13-0.28,18.61,5.08c6.05,7.24,6.46,17.27,6.4,26.26
		c-5.64-0.71-11.33-0.37-16.99-0.41C339.63,848.21,313.27,848.32,286.91,848.2z"/>
	<path fill="#EEF1EE" d="M675.94,921.09c1.82,0.17,3.65,0.37,5.5,0.47c-0.07,22.8-0.35,45.6-0.34,68.41
		c0.42,3.99-2.73,6.84-4.54,10.03h-0.64C675.85,973.7,675.82,947.39,675.94,921.09z"/>
</g>
<g>
	<path fill="#CC4773" d="M160.38,506.58c0.05-0.05,0.17-0.14,0.23-0.19C160.55,506.44,160.43,506.53,160.38,506.58z"/>
	<path fill="#CC4773" d="M156.21,509.65c0.12-0.09,0.36-0.26,0.48-0.35C156.57,509.39,156.33,509.56,156.21,509.65z"/>
	<path fill="#CC4773" d="M572.43,928.33c10.92-7.48,26.98-5.33,35.64,4.63c6.78,7.19,8.63,18.14,5.45,27.38
		c-1.7,5.76-5.88,10.2-10.32,14.03c5.18,0.1,10.52-0.84,15.61,0.33c-5.58,0.46-11.18-0.33-16.76-0.16
		c-8.04,0.34-15.99,1.62-23.91,2.92c-8.56-3.68-15.83-11.22-17.53-20.59C558.14,946.11,563.3,934.35,572.43,928.33z"/>
	<path fill="#CC4773" d="M312.92,941.04c0.51,0.25,1.53,0.76,2.04,1.01l-0.88,0.3C313.79,942.02,313.21,941.37,312.92,941.04z"/>
	<path fill="#CC4773" d="M303.95,955.19c9.83,0.04,19.67,0.24,29.49-0.11c25.39,7.14,52.6,6.76,77.98-0.2
		c9.43,0.79,18.93,0.17,28.39,0.37c0.03,10.21,0.04,20.42,0,30.63c-45.35-0.01-90.71-0.01-136.07-0.01
		C303.82,975.65,303.42,965.39,303.95,955.19z"/>
	<path fill="#CC4773" d="M541.9,979.17c0.53,0.22,1.6,0.68,2.13,0.9C543.5,979.85,542.43,979.39,541.9,979.17z"/>
	<path fill="#CC4773" d="M639.92,979.98c0.51,0.27,1.53,0.8,2.05,1.06C641.45,980.78,640.43,980.25,639.92,979.98z"/>
	<path fill="#CC4773" d="M655.24,988.34c0.12,0.09,0.36,0.25,0.479,0.34C655.6,988.59,655.36,988.43,655.24,988.34z"/>
</g>
</svg>
