<?xml version="1.0" encoding="utf-8"?>
<!-- Generator: Adobe Illustrator 16.0.0, SVG Export Plug-In . SVG Version: 6.00 Build 0)  -->
<!DOCTYPE svg PUBLIC "-//W3C//DTD SVG 1.1//EN" "http://www.w3.org/Graphics/SVG/1.1/DTD/svg11.dtd">
<svg version="1.1" id="Layer_1" xmlns="http://www.w3.org/2000/svg" xmlns:xlink="http://www.w3.org/1999/xlink" x="0px" y="0px"
	 width="1000px" height="1000px" viewBox="0 0 1000 1000" enable-background="new 0 0 1000 1000" xml:space="preserve">
<g>
	<path fill="#C19530" d="M0,0h1000v1000H709.45c-2.181-2.04-4.08-4.34-5.74-6.79c8.59-1.56,17.44-1.51,25.91-3.75
		c2.59-0.72,5.72-2.41,5.63-5.51c-0.22-3.92-3.9-6.181-6.65-8.37c5.021-5.75,10.62-11.4,13.091-18.811
		c4.75-12.489,2.13-26.319-2.631-38.369c0.61-1.91,2-3.841,1.391-5.9c-0.96-2.02-2.96-3.23-4.73-4.44
		c-2.359-7.76-4.95-15.449-7.17-23.25c1.761-2.149,4.271-4.71,3.23-7.75c-1.12-3.109-4.851-3.55-7.66-4.079
		c-7.66-22.87-15.19-45.79-23.67-68.37c4.31-3.181,9.11-5.681,13.229-9.12c-14.85-25.29-28.949-51.03-43.51-76.49
		c-3.16-5.18-8.45-8.48-13.32-11.86c-9.27-6.02-19.789-10.229-30.76-11.739c-7.8-1.131-15.76-0.33-23.53-1.721
		c-11.859-2.05-23.689-4.25-35.55-6.25c-0.21-3.76-0.64-7.489-0.85-11.229c25.58-14.811,46.46-37.54,58.68-64.47
		c4.73-10.12,7.98-20.82,11.12-31.511c5.271,0.66,10.92,1.07,15.81-1.42c8.431-4.18,13.961-12.649,16.54-21.489
		c3.44-11.87,2.421-25.16-3.5-36.091c-2.77-5.02-6.72-9.51-11.739-12.38c-3.851-2.2-8.37-2.55-12.69-3.01
		c1.94-7.82,1.71-15.94,2.58-23.89c1.69-4.061,4.73-7.391,6.68-11.33c7.58-14.561,4.95-33.2-5.22-45.86
		c7.44-9.84,8.36-23.51,3.55-34.7c-3.34-7.49-7.34-14.94-13.45-20.55c-5.35-4.96-12.51-7.34-19.55-8.64
		c-11.569-2.06-23.33-2.63-34.989-3.95c-10.311-1.13-20.66-2-31.03-1.85c-5.891-6.11-13.3-11.27-21.86-12.5
		c-12.24-1.98-24.32,1.67-36.26,3.81c-24.4,4.54-47.36,18.31-61.54,38.87c-4.47,6.4-6.14,14.13-8.65,21.37
		c-9.84,8.54-18.6,18.85-23.04,31.279c-7.729,21.83-7.63,46.591,1.17,68.091c-5.71,0.039-11.75,0.789-16.489,4.229
		c-7.92,5.82-12.63,15.18-14.25,24.73c-1.86,10.989-0.17,22.77,5.63,32.39c3.34,5.58,8.42,10.27,14.62,12.45
		c4.33,1.6,9.02,0.79,13.51,0.45c7.72,31.8,24.63,61.96,50.34,82.619c4.48,3.551,9.43,6.53,13.641,10.41
		c0.92,4.28-0.23,8.721-0.19,13.061c-19.23,2.25-38.43,4.8-57.66,7.02c-11.71,0.94-22.91,5.07-33.359,10.25
		c-7.79,4.46-16.19,9.21-20.601,17.391c-14,25.02-28.25,49.89-42.28,74.89c4.41,2.95,8.971,5.67,13.21,8.86
		c-12.109,32.5-22.79,65.52-33.859,98.38c-2.36,6.71-8.23,11.29-11.34,17.59c-4.59,9.22-7.28,19.81-5.43,30.11
		c0.83,4.22,2.29,8.47,5.09,11.81c10.25,11.75,24.09,20.87,39.64,23.5c15.359,2.479,31.14-1.24,44.92-8.07
		c-0.19,2.641-0.17,5.29-0.24,7.95c-1.81,0.11-4.609-0.3-5.18,2.03c0.06,2.41,1.16,4.66,1.75,6.99c-2.12-1.681-4.2-3.4-6.29-5.091
		c-1.04,1.32-2.42,2.48-2.93,4.141c0.55,2.06,1.489,4,2.439,5.93h-0.87c-1.95-1.35-3.84-4.05-6.52-3.2
		c-1.061,0.851-1.62,2.12-2.41,3.2H0V0z"/>
	<path fill="#C19530" d="M502.97,350.08c8.521-1.76,17.561-3.34,26.12-0.92c3.76,1.23,7.22,3.3,10.29,5.78
		c-22.66-0.98-45.71,1-67.29,8.35c-8.34,2.67-16.149,6.68-23.95,10.59c9.311-7.52,19.561-14.03,30.9-18.02
		C486.76,352.98,494.99,351.99,502.97,350.08z"/>
	<path fill="#C19530" d="M585.74,364.25c12.58-0.19,25.74,1.08,37.09,6.94c7.11,3.68,13.04,9.88,15.49,17.6
		c3.18,9.42,2.449,19.69,0.109,29.22c-2.979-2.17-6.08-4.14-9.1-6.22c1.34-9.53-2.39-19.26-8.79-26.26
		C611.21,375.35,598.75,368.52,585.74,364.25z"/>
	<path fill="#D4A335" d="M685.02,973.82c4.66,3,9.431,6.18,14.961,7.319c7.46,1.521,15.21,0.271,22.21-2.54
		c2.229,1.44,4.27,3.16,6.1,5.08c-8.05,1.53-16.31,1.67-24.33,3.381c-2.81,0.63-6.12,1.859-7.01,4.92
		c-0.601,3.189,1.89,5.789,3.81,8.02H685.78C685.49,991.27,685.21,982.55,685.02,973.82z"/>
</g>
<g>
	<g>
		<path fill="#000007" d="M490.83,346.37c11.939-2.14,24.02-5.79,36.26-3.81c8.561,1.23,15.97,6.39,21.86,12.5
			c10.37-0.15,20.72,0.72,31.03,1.85c11.659,1.32,23.42,1.89,34.989,3.95c7.04,1.3,14.2,3.68,19.55,8.64
			c6.11,5.61,10.11,13.06,13.45,20.55c4.811,11.19,3.891,24.86-3.55,34.7c10.17,12.66,12.8,31.3,5.22,45.86
			c-1.95,3.939-4.989,7.27-6.68,11.33c-0.87,7.949-0.64,16.069-2.58,23.89c-1.45,5.42-2.78,11.51-7.38,15.21
			c-2.3,2.07-5.61,0.28-7.07-1.89c-4.75-6.71-5.649-15.12-6.97-23c-6.26,2.83-11.92,6.88-18.41,9.21
			c-17.26,6.29-36.609,6.63-54.09,0.989c-1.72-0.38-3.6-1.71-5.31-0.609c-4.74,2.189-7.391,6.939-10.95,10.51
			c-7.73,7.98-17.73,14.92-29.19,15.29c-12.78,0.06-25.38-3.8-36.45-10.07c-16.05-9.109-28.96-23.229-37.59-39.46
			c-2.93-4.68-4.62-10.14-8.08-14.439c-2.34,10.5-4.42,21.09-7.85,31.31c-1.57,4.601-3.13,9.53-6.99,12.78
			c-2.43-1.18-4.01-3.391-5.28-5.68c-8.8-21.5-8.899-46.261-1.17-68.091c4.44-12.43,13.2-22.739,23.04-31.279
			c2.511-7.24,4.181-14.97,8.65-21.37C443.47,364.68,466.43,350.91,490.83,346.37z M502.97,350.08c-7.979,1.91-16.21,2.9-23.93,5.78
			c-11.34,3.99-21.59,10.5-30.9,18.02c7.801-3.91,15.61-7.92,23.95-10.59c21.58-7.35,44.63-9.33,67.29-8.35
			c-3.07-2.48-6.53-4.55-10.29-5.78C520.53,346.74,511.49,348.32,502.97,350.08z M585.74,364.25c13.01,4.27,25.47,11.1,34.8,21.28
			c6.4,7,10.13,16.729,8.79,26.26c3.02,2.08,6.12,4.05,9.1,6.22c2.34-9.529,3.07-19.8-0.109-29.22
			c-2.45-7.72-8.381-13.92-15.49-17.6C611.48,365.33,598.32,364.06,585.74,364.25z"/>
	</g>
	<path fill="#000007" d="M426.01,544.9c14.41-8.86,32.45-12.011,48.88-7.61c8.341,2.29,17.03,5.42,22.87,12.13
		c0.42,1.62-1.79,1.46-2.76,1.95c-2.3,0.5-4.67,0.32-7,0.35c-20.03-0.21-40.07,0.19-60.1,0.8c-2.841,0.12-5.681-0.22-8.45-0.829
		C420.98,548.87,423.32,546.59,426.01,544.9z"/>
	<path fill="#000007" d="M541.93,551.88c18.03-12.1,42.59-13.39,61.94-3.64c4.689,2.26,9.939,4.93,11.939,10.09
		c-2.6,0.31-5.21,0.62-7.819,0.58c-19.971-0.561-39.95-1.03-59.92-0.82c-3.221-0.01-6.49,0.141-9.63-0.649
		C537.1,554.98,540.34,553.23,541.93,551.88z"/>
	<path fill="#000007" d="M432.04,575.79c9.8-4.87,20.979-7.78,31.94-6.06c10.64,1.689,20.64,8.52,25.39,18.27
		c0.62,3.5-3.25,4.75-5.86,5.49c-5.71,9.93-22.21,11.649-28.67,1.649c-4.18-6.05-0.31-13.84,5.01-17.729
		c-8.77-0.13-17.369,2.359-25.1,6.38c-2.42,1.89-6.2,0.14-6.58-2.81C427.76,578.44,430.02,576.72,432.04,575.79z"/>
	<path fill="#000007" d="M550.22,590.07c5.66-10.34,16.92-17.36,28.69-18c10.1-0.66,20.149,2.229,29.06,6.84
		c1.54,0.8,3.23,2.08,3.181,4.02c0.33,3.021-3.45,5.551-6.061,3.92c-7.82-3.989-16.439-6.75-25.3-6.529
		c3.03,2.939,6.18,6.279,6.42,10.77c0.58,6.9-5.81,12.521-12.271,13.33c-7,1.13-14.609-2.09-18.21-8.29
		C552.83,595.74,548.63,593.65,550.22,590.07z"/>
	<path fill="#000007" d="M508.32,632.73c2.51-3.66,7.76-3.301,11.71-3.511c3.739,0.37,8.51-0.08,10.95,3.431
		C523.69,635.31,515.65,635.14,508.32,632.73z"/>
	<path fill="#000007" d="M545.18,644.32c4.351-2.391,8.101,4.29,4.261,7.02c-16.971,8.46-36.811,11.18-55.44,7.58
		c-3.04-0.16-4.85-4.24-2.84-6.55c1.649-2.51,4.95-1.42,7.39-1.18C514.35,653.71,530.68,650.88,545.18,644.32z"/>
	<path fill="#000007" d="M530,663.12c2.39-0.4,5.28-1.24,7.34,0.58c2.46,1.96,1.16,6.479-1.899,6.979
		c-5.811,1.051-11.66,2.13-17.561,2.561c-3.54-0.45-4.52-5.931-1.41-7.63C520.82,664.12,525.5,664,530,663.12z"/>
	<path fill="#000007" d="M479.11,680.19c10.62,4.68,21.58,8.71,32.939,11.159c4.24,1.021,8.69,1.08,12.95,0.12
		c9.98-2.2,19.73-5.39,29.13-9.39c-4.43,9.57-11.57,18.29-21.18,22.97c-9.2,4.62-20.47,5.061-29.9,0.86
		C491.85,701.21,483.8,691.13,479.11,680.19z"/>
	<path fill="#000007" d="M680.37,817.53c6.02-3.87,11.93-7.91,18.13-11.49c-5.68,7.92-11.84,15.479-17.58,23.35
		C680.61,825.44,680.51,821.48,680.37,817.53z"/>
	<path fill="#000007" d="M327.56,806.79c11.45,6.18,21.891,14.02,32.96,20.84c0.271,7.64,0.98,15.351,0.32,22.98
		C349.62,836.1,338.35,821.62,327.56,806.79z"/>
	<g>
		<path fill="#000007" d="M518.41,827.7c3.25,0.7,6.54,1.189,9.81,1.819l-0.899,1.061c-8.11,9.57-16.181,19.18-24.07,28.939
			c11.88,0.07,23.77-0.14,35.65,0.11l0.159,1.28c23.98,0.12,47.971,0.03,71.95,0.05c1.5,0.21,2.79-0.43,3.9-1.38
			c12.109-0.11,24.22-0.05,36.33-0.021c0.149,29.54-0.061,59.08,0.1,88.62c-0.189,17.25-0.02,34.551-0.07,51.82H387.13
			c-2.36-5.95-4.37-12.03-6.41-18.09c-0.8,0.34-1.59,0.689-2.38,1.05c-0.59-1.22-1.189-2.42-1.78-3.61c1.2-0.09,2.41-0.04,3.61,0.15
			c12.3,1.95,24.58,4.03,36.91,5.81c8.35,0.671,16.59-1.34,24.87-2.069c11.38-1.67,23.3-1.98,33.95-6.7
			c-5.44-3.22-11.931-3.07-18.011-3.771c-9.609-0.67-19.26-1.76-28.899-1.289c3.92-1.271,8.05-1.62,12.1-2.32
			c14.04-2.29,28.15-4.521,41.83-8.53c3.89-1.09,7.73-2.87,10.4-6.01c-0.15-0.24-0.44-0.71-0.59-0.95
			c-6.07-1.66-12.44-1.27-18.66-1.13c-13.66,0.59-27.33,1.02-41.011,1.05c13.98-1.84,28.04-3.2,41.95-5.59
			c8.101-1.48,16.61-2.19,23.87-6.44c-3.35-1.89-7.14-2.67-10.87-3.409c-1.689,1.579-3.27,4.31-6.01,3.63
			c-7.73-0.841-15.44-1.96-23.14-3.011c-2.7-0.13-4.17-2.649-5.591-4.569c1.221-1.24,2.341-2.61,3.801-3.58
			c6.88-0.3,13.6,1.7,20.449,2.149c4.03,0.2,8.62,1.11,10.57,5.131c3.28-0.12,6.54-0.54,9.75-1.211
			c-4.89-4.279-11.21-6.21-17.29-8.09c-19.7-6.37-40.16-10.359-60.79-12.04c-1.12,2.04-2.09,4.86-4.76,5.23
			c-13.3,2.18-26.5,4.96-39.84,6.87c-1.4,0.12-3.08,0.529-4.22-0.54c-2.24-1.8-2.011-6.42,1.149-7.021
			c12.92-2.99,26.15-4.46,39.11-7.3c-15.471-5.9-33.351-2.61-47.29,5.76c0.16-20,0.029-40.01,0.069-60.02
			c6.41-0.04,12.811-0.021,19.221-0.01c0.39,0.239,1.149,0.71,1.529,0.939c1.7,0.61,3.54,0.48,5.33,0.51
			c23.221-0.12,46.45,0.221,69.67-0.18l0.051-1.24c10.67-0.02,21.34-0.13,32.01,0.101C500.89,849.2,509.79,838.56,518.41,827.7z
			 M386.25,880.32c-5.85,2.04-7.02,10.92-1.86,14.34c4.721,3.91,12.65,0.25,13.24-5.69C398.61,883.07,391.65,877.79,386.25,880.32z
			 M421.33,880.55c-5.32,2.25-6.4,10.36-1.75,13.84c4.26,3.87,12.05,1.271,13.32-4.279C435.07,883.77,427.13,877.21,421.33,880.55z
			 M515.15,928.93c0,14.351,0.02,28.7-0.011,43.051c38.53-0.011,77.061,0.13,115.58-0.07c-0.09-14.29-0.1-28.58,0-42.87
			c-3.89-0.38-7.81-0.11-11.71-0.18C584.39,928.9,549.77,928.77,515.15,928.93z"/>
	</g>
	<path fill="#000007" d="M681.21,867.25c1.82-0.44,3.66-0.78,5.49-1.22c2.03,1.859,4.08,3.7,6.08,5.609
		c-0.271,2.101-0.511,4.25-0.15,6.38c2.61,3.261,7.04,3.15,10.84,3.24c2.92,3.17,6.521,5.681,9.16,9.12
		c-2.13,1.66-4.189,3.42-6.03,5.4c-7.779-7.351-15.819-14.42-23.55-21.811c-1.96-1.479-1.609-4.09-2.08-6.2L681.21,867.25z"/>
	<path fill="#000007" d="M710.72,901.01c2.07-2.399,4.32-4.64,6.78-6.63c4.17,3.811,8.48,7.51,12.05,11.92
		C723.16,905.03,716.51,904.21,710.72,901.01z"/>
	<path fill="#000007" d="M303.51,903.72c20.23-2.489,41.88,3.9,56.41,18.45c3.18,3.811-3.08,9.13-6.35,5.25
		c-11.78-10.59-27.641-16.51-43.5-15.72c-4.28-0.03-8.49,1.359-12.76,0.91c-3.29-1.061-3.36-6.351-0.26-7.67
		C299.13,904.23,301.34,904.04,303.51,903.72z"/>
	<path fill="#000007" d="M444.03,929.19c2.71-0.221,6.04-1.69,8.34,0.489c2.36,2.051,0.97,6.641-2.14,7.03
		c-8.681,1.58-17.44,2.76-26.15,4.16c-2.65,0.54-5.49-2.21-4.79-4.9c0.17-1.92,1.95-3.13,3.71-3.43
		C429.98,931.27,437.03,930.4,444.03,929.19z"/>
	<path fill="#000007" d="M364.17,976.86c3.36,0.51,6.76,0.84,10.04,1.77c0.13,3.16,0.8,6.26,1.69,9.3
		c-1.471-2.22-2.91-4.529-4.98-6.239c-1.79-0.561-3.58,0.449-5.26,0.989c0.78,2.811,1.47,5.65,2.13,8.511
		c-1.38-1.74-2.76-3.45-4.12-5.19c0.07-2.66,0.05-5.31,0.24-7.95L364.17,976.86z"/>
</g>
<g>
	<g>
		<path fill="#E8AE9A" d="M418.89,467.57c3.46,4.3,5.15,9.76,8.08,14.439c8.63,16.23,21.54,30.351,37.59,39.46
			c11.07,6.271,23.671,10.13,36.45,10.07c11.46-0.37,21.46-7.31,29.19-15.29c3.56-3.57,6.21-8.32,10.95-10.51
			c1.71-1.101,3.59,0.229,5.31,0.609c17.48,5.641,36.83,5.301,54.09-0.989c6.49-2.33,12.15-6.38,18.41-9.21
			c1.32,7.88,2.22,16.29,6.97,23c1.46,2.17,4.771,3.96,7.07,1.89c4.6-3.7,5.93-9.79,7.38-15.21c4.32,0.46,8.84,0.81,12.69,3.01
			c5.02,2.87,8.97,7.36,11.739,12.38c5.921,10.931,6.94,24.221,3.5,36.091c-2.579,8.84-8.109,17.31-16.54,21.489
			c-4.89,2.49-10.539,2.08-15.81,1.42c-3.14,10.69-6.39,21.391-11.12,31.511c-12.22,26.93-33.1,49.659-58.68,64.47
			c0.21,3.74,0.64,7.47,0.85,11.229c0.471,16.631-5.17,33.7-16.71,45.87c-7.37,7.74-17.47,13.46-28.34,13.73
			c-12.72,0.37-25.05-5.141-34.53-13.391c-13.59-11.699-21.52-29.449-21.85-47.319c-0.04-4.34,1.109-8.78,0.189-13.061
			c-4.21-3.88-9.159-6.859-13.64-10.41c-25.71-20.659-42.62-50.819-50.34-82.619c-4.49,0.34-9.18,1.149-13.51-0.45
			c-6.2-2.181-11.28-6.87-14.62-12.45c-5.8-9.62-7.49-21.4-5.63-32.39c1.62-9.551,6.33-18.91,14.25-24.73
			c4.739-3.44,10.779-4.19,16.489-4.229c1.271,2.289,2.851,4.5,5.28,5.68c3.86-3.25,5.42-8.18,6.99-12.78
			C414.47,488.66,416.55,478.07,418.89,467.57z M426.01,544.9c-2.689,1.689-5.029,3.97-6.56,6.79c2.77,0.609,5.609,0.949,8.45,0.829
			c20.029-0.609,40.069-1.01,60.1-0.8c2.33-0.029,4.7,0.15,7-0.35c0.97-0.49,3.18-0.33,2.76-1.95
			c-5.84-6.71-14.529-9.84-22.87-12.13C458.46,532.89,440.42,536.04,426.01,544.9z M541.93,551.88
			c-1.59,1.351-4.83,3.101-3.489,5.561c3.14,0.79,6.409,0.64,9.63,0.649c19.97-0.21,39.949,0.26,59.92,0.82
			c2.609,0.04,5.22-0.271,7.819-0.58c-2-5.16-7.25-7.83-11.939-10.09C584.52,538.49,559.96,539.78,541.93,551.88z M432.04,575.79
			c-2.021,0.93-4.28,2.65-3.87,5.19c0.38,2.949,4.16,4.699,6.58,2.81c7.73-4.021,16.33-6.51,25.1-6.38
			c-5.319,3.89-9.189,11.68-5.01,17.729c6.46,10,22.96,8.28,28.67-1.649c2.61-0.74,6.48-1.99,5.86-5.49
			c-4.75-9.75-14.75-16.58-25.39-18.271C453.02,568.01,441.84,570.92,432.04,575.79z M550.22,590.07
			c-1.59,3.58,2.61,5.67,5.511,6.06c3.6,6.2,11.21,9.42,18.21,8.29c6.46-0.81,12.85-6.43,12.27-13.33
			c-0.24-4.49-3.39-7.83-6.42-10.77c8.86-0.221,17.479,2.54,25.3,6.529c2.61,1.631,6.391-0.899,6.061-3.92
			c0.05-1.939-1.641-3.22-3.181-4.02c-8.909-4.61-18.96-7.5-29.06-6.84C567.14,572.71,555.88,579.73,550.22,590.07z M508.32,632.73
			c7.33,2.409,15.37,2.579,22.66-0.08c-2.44-3.511-7.211-3.061-10.95-3.431C516.08,629.43,510.83,629.07,508.32,632.73z
			 M545.18,644.32c-14.5,6.56-30.83,9.39-46.63,6.87c-2.439-0.24-5.74-1.33-7.39,1.18c-2.01,2.31-0.2,6.39,2.84,6.55
			c18.63,3.6,38.47,0.88,55.439-7.58C553.28,648.61,549.53,641.93,545.18,644.32z M530,663.12c-4.5,0.88-9.18,1-13.53,2.49
			c-3.109,1.699-2.13,7.18,1.41,7.63c5.9-0.431,11.75-1.51,17.56-2.561c3.061-0.5,4.36-5.02,1.9-6.979
			C535.28,661.88,532.39,662.72,530,663.12z M479.11,680.19c4.689,10.939,12.739,21.02,23.939,25.72c9.431,4.2,20.7,3.76,29.9-0.86
			c9.609-4.68,16.75-13.399,21.18-22.97c-9.399,4-19.149,7.189-29.13,9.39c-4.26,0.96-8.71,0.9-12.95-0.12
			C500.69,688.9,489.73,684.87,479.11,680.19z"/>
	</g>
	<g>
		<path fill="#E8AE9A" d="M324.89,804.73c0.891,0.659,1.78,1.359,2.67,2.06c10.79,14.83,22.061,29.31,33.28,43.82
			c0.36,1.43,0.55,2.909,0.58,4.42c0.48,21.71,1.3,43.42,1.59,65.14c0.23-0.15,0.67-0.46,0.9-0.61
			c13.939-8.369,31.82-11.659,47.29-5.76c-12.96,2.84-26.19,4.311-39.11,7.3c-3.16,0.601-3.39,5.221-1.149,7.021
			c1.14,1.07,2.819,0.66,4.22,0.54c13.34-1.91,26.54-4.69,39.84-6.87c2.67-0.37,3.64-3.19,4.76-5.23
			c20.63,1.681,41.09,5.671,60.79,12.04c6.08,1.881,12.4,3.811,17.29,8.091c-3.21,0.67-6.47,1.09-9.75,1.21
			c-1.95-4.021-6.54-4.931-10.569-5.131c-6.851-0.449-13.57-2.449-20.45-2.149c-1.46,0.97-2.58,2.34-3.8,3.58
			c1.42,1.92,2.89,4.439,5.59,4.569c7.7,1.051,15.41,2.171,23.14,3.011c2.74,0.68,4.32-2.05,6.01-3.63
			c3.73,0.739,7.521,1.52,10.87,3.409c-7.26,4.25-15.77,4.96-23.87,6.44c-13.91,2.39-27.97,3.75-41.949,5.59
			c13.68-0.03,27.35-0.46,41.01-1.05c6.22-0.14,12.59-0.53,18.66,1.13c0.149,0.24,0.439,0.71,0.59,0.95
			c-2.67,3.14-6.51,4.92-10.4,6.01c-13.68,4.01-27.79,6.24-41.83,8.53c-4.05,0.7-8.18,1.05-12.1,2.32
			c9.64-0.471,19.29,0.619,28.899,1.29c6.08,0.699,12.57,0.55,18.011,3.77c-10.65,4.72-22.57,5.03-33.95,6.7
			c-8.28,0.729-16.521,2.74-24.87,2.07c-12.33-1.78-24.61-3.86-36.91-5.811c-1.2-0.189-2.41-0.24-3.609-0.15
			c-0.591-0.18-1.761-0.539-2.351-0.72c-3.28-0.93-6.68-1.26-10.04-1.77l-0.26,1.189c-13.78,6.83-29.561,10.55-44.92,8.07
			c-15.55-2.63-29.39-11.75-39.64-23.5c-2.8-3.34-4.26-7.59-5.09-11.81c-1.85-10.301,0.84-20.891,5.43-30.11
			c3.11-6.3,8.98-10.88,11.34-17.59C302.1,870.25,312.78,837.23,324.89,804.73z M303.51,903.72c-2.17,0.32-4.38,0.511-6.46,1.22
			c-3.1,1.32-3.03,6.61,0.26,7.671c4.27,0.449,8.48-0.94,12.76-0.91c15.859-0.79,31.72,5.13,43.5,15.72
			c3.27,3.88,9.529-1.44,6.35-5.25C345.39,907.62,323.74,901.23,303.51,903.72z M444.03,929.19c-7,1.21-14.05,2.079-21.03,3.35
			c-1.76,0.3-3.54,1.51-3.71,3.43c-0.7,2.69,2.14,5.44,4.79,4.9c8.71-1.4,17.47-2.58,26.15-4.16c3.109-0.39,4.5-4.979,2.14-7.03
			C450.07,927.5,446.74,928.97,444.03,929.19z"/>
	</g>
	<path fill="#E8AE9A" d="M698.5,806.04c0.64-0.49,1.29-0.97,1.95-1.43c8.479,22.58,16.01,45.5,23.67,68.37
		c-8.5,0.55-16.95,2.01-25.49,1.97c2.86-9.17,9.65-16.641,12.16-25.97c0.729-2.5-0.6-6.721-3.8-6.181
		c-4.95,1.72-8.311,6.07-12.891,8.47c1.82-4.8,5.181-9.08,5.74-14.3c0.49-2.109-2.189-3.06-3.82-2.87
		c-4.43,2.551-7.18,7.08-11.109,10.25c0.899-4.55,2.96-8.81,3.49-13.43c0.359-2.18-2-3.18-3.36-4.3
		c-1.38,1.22-2.771,2.439-4.08,3.74l-0.04-0.971C686.66,821.52,692.82,813.96,698.5,806.04z"/>
	<path fill="#E8AE9A" d="M624.36,837.93c0.479,3.25,0.21,6.811,1.859,9.78c0.931,1.83,3.91,2.59,5.25,0.78
		c2.061-2.72,2.34-6.29,3.32-9.46c1.34,3.899-0.271,9.75,4.47,11.63c3.88-1.12,4.33-5.9,6.271-8.87c0.22,2.35,0.25,4.75,0.79,7.08
		c0.449,1.76,2.35,3.69,4.29,2.67c2.109-1.4,2.81-4.13,4.84-5.65c0.54,2.681-0.2,6.38,2.55,8.051c3.56,0.54,4.96-3.521,7.13-5.521
		c0.11,2.37,0.07,4.771,0.42,7.13c1.22,1,2.84,1.33,4.26,2.03c4.17,2.87,7.49,6.74,11.16,10.189c0.47,2.11,0.12,4.721,2.08,6.2
		c7.73,7.391,15.771,14.46,23.55,21.811c-1.689,2.31-3.939,5.069-2.93,8.13c1.42,2.55,4.3,3.67,6.93,4.55
		c6.94,2.19,14.271,2.8,21.2,5c0.36,0.29,1.101,0.86,1.46,1.14c-7.84,4.99-17.31,7.12-24.5,13.17c-2.729,1.94-2.62,6.421,0.04,8.37
		c7.44,5.9,17.14,7.721,24.93,13.04c-8.67,4.25-19,4.11-27.329,9.28c-2.631,1.65-2.98,5.771-0.771,7.93
		c4.61,5.17,10.87,8.391,16.56,12.21c-7,2.811-14.75,4.061-22.21,2.54c-5.529-1.14-10.3-4.319-14.96-7.319
		c-11.75-7.801-23.359-16.051-33.489-25.87c-0.171-29.51-0.221-59.03,0-88.54c-12.5-0.11-25.021,0.35-37.511-0.21
		c-0.02-4.771,0.32-9.54,0.141-14.3c0.76,1.54,1.58,3.06,2.66,4.43c1.289,0.29,2.609,0.32,3.939,0.45
		C622.33,845.94,623.1,841.86,624.36,837.93z"/>
	<path fill="#E8AE9A" d="M686.7,866.03c5.25-3.42,9.45-8.21,14.819-11.46c-2.84,7.88-9.739,14.51-8.89,23.449
		c-0.36-2.13-0.12-4.279,0.15-6.38C690.78,869.73,688.73,867.89,686.7,866.03z"/>
	<path fill="#E8AE9A" d="M703.47,881.26c6.95-0.6,13.88-2.069,20.891-1.6c-3.19,4.3-7.63,7.38-11.73,10.72
		C709.99,886.94,706.39,884.43,703.47,881.26z"/>
	<path fill="#E8AE9A" d="M717.5,894.38c3.76-3.1,7.6-6.13,11.05-9.57c2.22,7.801,4.811,15.49,7.17,23.25
		c-2.03-0.689-4.1-1.27-6.17-1.76C725.98,901.89,721.67,898.19,717.5,894.38z"/>
	<path fill="#E8AE9A" d="M713.53,932.08c7.7-6.01,17.51-8.2,25.53-13.68c4.76,12.05,7.38,25.88,2.63,38.369
		c-2.471,7.41-8.07,13.061-13.091,18.811c-5.77-4.58-13.08-7.3-17.72-13.2c8.96-2.99,18.69-3.939,27.101-8.439
		c3.46-1.5,3.659-6.511,0.729-8.631C731.32,939.17,721.44,937.35,713.53,932.08z"/>
</g>
<g>
	<path fill="#33B161" d="M407.92,693.34c19.23-2.22,38.43-4.77,57.66-7.02c0.33,17.87,8.26,35.62,21.85,47.319
		c9.48,8.25,21.811,13.761,34.53,13.391c10.87-0.271,20.97-5.99,28.34-13.73c11.54-12.17,17.181-29.239,16.71-45.87
		c11.86,2,23.69,4.2,35.551,6.25c7.77,1.391,15.729,0.591,23.529,1.721c10.971,1.51,21.49,5.72,30.76,11.739
		c4.87,3.38,10.16,6.681,13.32,11.86c14.561,25.46,28.66,51.2,43.51,76.49c-4.119,3.439-8.92,5.939-13.229,9.12
		c-0.66,0.46-1.31,0.939-1.95,1.43c-6.2,3.58-12.109,7.62-18.13,11.49c0.14,3.95,0.24,7.909,0.55,11.859l0.04,0.971
		c-2.53,3.43-4.7,7.1-6.92,10.739c0.51-5.739,2.98-11.319,2.16-17.14c-0.94-1.7-3.71-2.67-5.05-0.92
		c-3.61,4.1-5.49,9.32-7.87,14.149c0.229-5.64,1.66-11.329,0.53-16.949c-1.101-1.601-3.841-2.57-5.11-0.63
		c-3.25,4.34-4.51,9.739-6.47,14.72c-0.12-5.33,0.54-10.75-0.78-15.98c-0.58-2.05-3.88-2.93-5.16-1.06
		c-2.91,3.86-3.29,8.82-4.53,13.34c-0.369,0.1-1.1,0.3-1.46,0.41c0.061-5.18,1.091-11.42-2.71-15.57
		c-3.09-1.79-4.689,2.59-6.149,4.55c-1.67-1.76-3.36-3.5-5.091-5.18c-3.34-3.37-7.22-6.59-8.739-11.24
		c-4.181-12.229-8.42-24.449-12.62-36.66c-2.61-0.84-5.521,0.221-8.22,0.32c9.68-13.59,21.529-25.49,31.409-38.899
		c-7.72-6.48-15.22-13.24-23.35-19.21c-13.01,15.569-26.05,31.109-39.02,46.71c-4.421,5.569-9.28,10.819-13.23,16.75
		c-5.96,0.739-11.91,1.59-17.89,2.17c-6.261,17.38-12.9,34.68-18.21,52.37c0.479,0.14,1.449,0.409,1.93,0.55
		c-8.62,10.859-17.521,21.5-26.62,31.96c-10.67-0.23-21.34-0.12-32.01-0.101c0-10.72,0.02-21.43-0.05-32.14
		c-24.891-0.03-49.79,0.08-74.69-0.06c-0.54,11.02-0.01,22.079-0.31,33.109c-0.381-0.229-1.141-0.7-1.53-0.939
		c-6.41-0.011-12.811-0.03-19.22,0.01c-0.04,20.01,0.09,40.02-0.07,60.02c-0.23,0.15-0.67,0.46-0.9,0.61
		c-0.29-21.72-1.109-43.43-1.59-65.14c-0.03-1.511-0.22-2.99-0.58-4.42c0.66-7.631-0.05-15.341-0.319-22.98
		c-11.07-6.82-21.511-14.66-32.96-20.84c-0.891-0.7-1.78-1.4-2.671-2.061c-4.239-3.189-8.8-5.909-13.21-8.859
		c14.03-25,28.28-49.87,42.28-74.891c4.41-8.18,12.811-12.93,20.601-17.39C385.01,698.41,396.21,694.28,407.92,693.34z"/>
	<path fill="#33B161" d="M527.32,830.58c0.31-0.28,0.93-0.84,1.25-1.12c3.439,0.74,6.91,1.37,10.39,1.94
		c-0.04,9.409,0.08,18.819-0.06,28.229c-11.881-0.25-23.771-0.04-35.65-0.11C511.14,849.76,519.21,840.15,527.32,830.58z"/>
	<path fill="#33B161" d="M669.81,857.58c1.671-2.17,3.351-4.33,5.021-6.5c-0.46,2.93-1.5,5.89-1.1,8.89
		c2.319,2.771,5.6,0.181,7.979-1.1c-0.25,2.78-0.33,5.58-0.5,8.38l-0.24,0.521C677.3,864.32,673.98,860.45,669.81,857.58z"/>
	<path fill="#33B161" d="M651.34,948.18l0.19-0.229c10.13,9.819,21.739,18.069,33.489,25.87c0.19,8.729,0.471,17.449,0.761,26.18
		H651.27C651.32,982.73,651.15,965.43,651.34,948.18z"/>
</g>
<g>
	<path fill="#5A459C" d="M565.81,755.86c12.971-15.601,26.011-31.141,39.021-46.71c8.13,5.97,15.63,12.729,23.35,19.21
		c-9.88,13.409-21.729,25.31-31.41,38.899c-14.699,1.971-29.43,3.79-44.189,5.351C556.53,766.68,561.39,761.43,565.81,755.86z"/>
</g>
<g>
	<path fill="#F38384" d="M596.77,767.26c2.7-0.1,5.61-1.16,8.221-0.319c4.2,12.21,8.439,24.43,12.62,36.659
		c1.52,4.65,5.399,7.87,8.739,11.24c-1.51-0.12-3.01-0.229-4.5-0.33c-1.949,4.97-2.899,10.24-3.39,15.54
		c-1.8-4.58-2.07-9.729-4.64-13.99c-1.45-1.08-4.301-1.069-4.86,0.971c-1.59,4.54-1.64,9.42-2.42,14.14
		c-1.63-5.29-2.01-11.35-6.25-15.4c-0.56,3.96-2.771,7.91-0.91,11.881c-20.1,0.09-40.21-0.171-60.3,0.13
		c-0.03,0.909-0.09,2.72-0.12,3.62c-3.479-0.57-6.95-1.2-10.39-1.94c-0.32,0.28-0.94,0.84-1.25,1.12l0.899-1.061
		c-3.27-0.63-6.56-1.119-9.81-1.819c-0.48-0.141-1.45-0.41-1.93-0.55c5.31-17.69,11.949-34.99,18.21-52.37
		c5.979-0.58,11.93-1.431,17.89-2.17C567.34,771.05,582.07,769.23,596.77,767.26z"/>
</g>
<g>
	<path fill="#EEF1EE" d="M621.85,814.51c1.49,0.101,2.99,0.21,4.5,0.33c1.73,1.68,3.42,3.42,5.091,5.18
		c1.46-1.96,3.06-6.34,6.149-4.55c3.8,4.15,2.771,10.391,2.71,15.57c0.36-0.11,1.09-0.31,1.46-0.41c1.24-4.52,1.62-9.479,4.53-13.34
		c1.28-1.87,4.58-0.99,5.16,1.06c1.32,5.23,0.66,10.65,0.78,15.98c1.96-4.98,3.22-10.38,6.47-14.72c1.27-1.94,4.01-0.971,5.11,0.63
		c1.13,5.62-0.301,11.31-0.53,16.95c2.38-4.83,4.26-10.051,7.87-14.15c1.34-1.75,4.109-0.78,5.05,0.92
		c0.819,5.82-1.65,11.4-2.16,17.14c2.22-3.64,4.39-7.31,6.92-10.739c1.31-1.3,2.7-2.521,4.08-3.74c1.36,1.12,3.72,2.12,3.36,4.3
		c-0.53,4.62-2.591,8.88-3.49,13.43c3.93-3.17,6.68-7.699,11.109-10.25c1.631-0.189,4.311,0.761,3.82,2.87
		c-0.56,5.221-3.92,9.5-5.74,14.3c4.58-2.399,7.94-6.75,12.891-8.47c3.2-0.54,4.53,3.681,3.8,6.181c-2.51,9.33-9.3,16.8-12.16,25.97
		c8.54,0.04,16.99-1.42,25.49-1.97c2.81,0.529,6.54,0.97,7.66,4.08c1.04,3.039-1.47,5.6-3.23,7.75
		c-3.45,3.439-7.29,6.47-11.05,9.569c-2.46,1.99-4.71,4.23-6.78,6.63c5.79,3.2,12.44,4.021,18.83,5.29
		c2.07,0.49,4.141,1.07,6.17,1.761c1.771,1.21,3.771,2.42,4.73,4.439c0.609,2.061-0.78,3.99-1.391,5.9
		c-8.02,5.479-17.829,7.67-25.529,13.68c7.909,5.27,17.79,7.09,25.18,13.23c2.93,2.119,2.729,7.13-0.729,8.63
		c-8.41,4.5-18.141,5.449-27.101,8.439c4.64,5.9,11.95,8.62,17.72,13.2c2.75,2.19,6.431,4.45,6.65,8.37
		c0.09,3.1-3.04,4.79-5.63,5.51c-8.47,2.24-17.32,2.19-25.91,3.75c1.66,2.45,3.56,4.75,5.74,6.79h-8.69
		c-1.92-2.229-4.41-4.83-3.81-8.02c0.89-3.061,4.2-4.29,7.01-4.92c8.021-1.711,16.28-1.851,24.33-3.381
		c-1.83-1.92-3.87-3.64-6.1-5.08c-5.69-3.819-11.95-7.039-16.561-12.21c-2.21-2.159-1.859-6.279,0.771-7.93
		c8.33-5.17,18.66-5.03,27.33-9.28c-7.79-5.319-17.49-7.14-24.931-13.04c-2.659-1.949-2.77-6.43-0.04-8.37
		c7.19-6.05,16.66-8.18,24.5-13.17c-0.359-0.279-1.1-0.85-1.46-1.14c-6.93-2.2-14.26-2.81-21.2-5c-2.63-0.88-5.51-2-6.93-4.55
		c-1.01-3.061,1.24-5.82,2.93-8.13c1.841-1.98,3.9-3.74,6.03-5.4c4.101-3.34,8.54-6.42,11.73-10.72c-7.011-0.47-13.94,1-20.891,1.6
		c-3.8-0.09-8.229,0.021-10.84-3.24c-0.85-8.939,6.05-15.569,8.891-23.449c-5.37,3.25-9.57,8.04-14.82,11.46
		c-1.83,0.439-3.67,0.78-5.49,1.22c0.17-2.8,0.25-5.6,0.5-8.38c-2.38,1.28-5.66,3.87-7.979,1.1c-0.4-3,0.64-5.96,1.1-8.89
		c-1.67,2.17-3.35,4.33-5.02,6.5c-1.421-0.7-3.04-1.03-4.261-2.03c-0.35-2.36-0.31-4.76-0.42-7.13c-2.17,2-3.569,6.06-7.13,5.52
		c-2.75-1.67-2.01-5.369-2.55-8.05c-2.03,1.521-2.73,4.25-4.84,5.65c-1.94,1.02-3.841-0.91-4.29-2.67
		c-0.54-2.33-0.57-4.73-0.79-7.08c-1.94,2.97-2.391,7.75-6.271,8.87c-4.739-1.88-3.13-7.73-4.47-11.63
		c-0.979,3.17-1.26,6.739-3.32,9.46c-1.34,1.81-4.319,1.05-5.25-0.78c-1.649-2.97-1.38-6.53-1.859-9.78
		c-1.261,3.931-2.03,8.01-3.601,11.851c-1.33-0.13-2.649-0.16-3.939-0.45c-1.08-1.37-1.9-2.891-2.66-4.43
		c-0.24-2.351-0.46-4.69-0.71-7.03c-0.88,3.67-1.13,7.52-2.521,11.06c-0.949,2.33-4.869,2.061-5.619-0.32
		c-3.271-6.56-3.94-13.989-5.931-20.96c-1.859-3.97,0.351-7.92,0.91-11.88c4.24,4.051,4.62,10.11,6.25,15.4
		c0.78-4.72,0.83-9.6,2.42-14.14c0.561-2.04,3.41-2.051,4.86-0.971c2.569,4.261,2.84,9.41,4.64,13.99
		C618.95,824.75,619.9,819.48,621.85,814.51z"/>
	<path fill="#EEF1EE" d="M374.21,978.63c0.59,0.18,1.76,0.54,2.35,0.72c0.591,1.19,1.19,2.391,1.78,3.61
		c0.79-0.36,1.58-0.71,2.38-1.05c2.04,6.06,4.05,12.14,6.41,18.09h-33.67c-0.95-1.93-1.89-3.87-2.44-5.93
		c0.511-1.66,1.891-2.82,2.931-4.141c2.09,1.69,4.17,3.41,6.29,5.09c-0.59-2.329-1.69-4.579-1.75-6.989
		c0.569-2.33,3.37-1.92,5.18-2.03c1.36,1.74,2.74,3.45,4.12,5.19c-0.66-2.86-1.35-5.7-2.13-8.511c1.68-0.54,3.47-1.55,5.26-0.989
		c2.07,1.71,3.51,4.02,4.98,6.239C375.01,984.89,374.34,981.79,374.21,978.63z"/>
	<path fill="#EEF1EE" d="M343.66,1000c0.79-1.08,1.35-2.35,2.41-3.2c2.68-0.85,4.569,1.851,6.52,3.2H343.66z"/>
</g>
<g>
	<path fill="#CC4773" d="M385.04,827.36c24.9,0.14,49.8,0.029,74.69,0.06c0.069,10.71,0.05,21.42,0.05,32.14l-0.05,1.24
		c-23.221,0.4-46.45,0.061-69.671,0.181c-1.79-0.03-3.63,0.1-5.329-0.511C385.03,849.44,384.5,838.38,385.04,827.36z"/>
	<path fill="#CC4773" d="M539.08,827.78c20.09-0.3,40.2-0.04,60.3-0.13c1.99,6.97,2.66,14.399,5.93,20.96
		c0.75,2.38,4.671,2.649,5.62,0.319c1.391-3.54,1.641-7.39,2.521-11.06c0.25,2.34,0.47,4.68,0.71,7.03
		c0.18,4.76-0.16,9.529-0.141,14.3c12.49,0.56,25.011,0.1,37.511,0.21c-0.22,29.51-0.17,59.03,0,88.54l-0.19,0.229
		c-0.16-29.54,0.05-59.08-0.1-88.619c-12.11-0.03-24.22-0.091-36.33,0.02c-1.11,0.95-2.4,1.59-3.9,1.38
		c-23.979-0.02-47.97,0.07-71.95-0.05l-0.159-1.28c0.14-9.41,0.02-18.819,0.06-28.229C538.99,830.5,539.05,828.69,539.08,827.78z"/>
	<path fill="#CC4773" d="M386.25,880.32c5.4-2.53,12.36,2.75,11.38,8.649c-0.59,5.94-8.52,9.601-13.24,5.69
		C379.23,891.24,380.4,882.36,386.25,880.32z"/>
	<path fill="#CC4773" d="M421.33,880.55c5.8-3.34,13.74,3.22,11.57,9.561c-1.271,5.55-9.061,8.149-13.32,4.279
		C414.93,890.91,416.01,882.8,421.33,880.55z"/>
	<path fill="#CC4773" d="M515.15,928.93c34.619-0.16,69.239-0.029,103.859-0.069c3.9,0.069,7.82-0.2,11.71,0.18
		c-0.1,14.29-0.09,28.58,0,42.87c-38.52,0.2-77.05,0.06-115.58,0.07C515.17,957.63,515.15,943.28,515.15,928.93z"/>
</g>
<g id="OBJECTS_1_">
	<g>
		<g>
			<path fill="#0A0A0A" d="M51.036,836.484c4.907-7.952,73.111-125.665,117.34-150.164c1.595,3.479,41.694,102.746,47.703,178.716
				L51.036,836.484z M166.701,691.167c-38.04,23.341-100.694,126.751-110.286,142.83l155.934,26.979
				C206.211,792.679,172.122,704.813,166.701,691.167z"/>
		</g>
		<g>
			<path fill="#0A0A0A" d="M54.231,836.842l-1.022-3.212l92.775-29.647l19.89-115.551l3.325,0.573l-20.241,117.563
				C147.714,806.973,55.457,836.447,54.231,836.842z"/>
		</g>
		<g>
			
				<rect x="179.163" y="790.047" transform="matrix(0.6545 -0.7561 0.7561 0.6545 -568.2073 424.9468)" fill="#0A0A0A" width="3.365" height="88.242"/>
		</g>
	</g>
</g>
<g id="OBJECTS_2_">
	<g>
		<path fill="#0A0A0A" d="M99.563,176.087c-4.838-0.662-21.779-47.869-25.281-52.522c-1.894-4.26-1.927-5.4,0.491-6.873
			c3.542-1.578,20.836-9.99,25.149-8.647c2.911,3.626-2.361,3.312-7.831,6.07c-7.613,3.745-13.587,3.929-13.116,7.495
			c2.997,6.336,7.192,15.433,9.553,19.594c3.522-1.17,17.302-5.954,18.419-5.678c7.681,3.584-11.231,7.666-15.933,9.941
			c2.713,6.704,8.4,22.017,10.649,24.445c5.798-1.208,27.551-12.214,22.128-3.203C122.159,167.832,101.585,175.435,99.563,176.087z"
			/>
		<path fill="#0A0A0A" d="M121.242,135.475c0.074-6.597,12.569-6.389,28.043-13.844c2.113-0.842,7.94-3.179,8.462-2.003
			c1.246,3.333-1.012,4.642-3.453,5.804C149.267,126.693,125.147,138.87,121.242,135.475z M126.245,146.712
			c0.074-6.603,12.57-6.389,28.043-13.847c2.114-0.839,7.938-3.178,8.461-1.998c1.248,3.333-1.011,4.642-3.449,5.807
			C154.27,137.924,130.153,150.104,126.245,146.712z"/>
		<path fill="#0A0A0A" d="M197.761,127.892c-3.432-19.689-26.788-19.262-17.51,6.405c2.997,8.584,3.233,10.177,1.973,11.872
			c-3.462,3.304-2.55-1.29-7.34-10.107c-4.802-12.767-8.944-16.707-6.071-20.809c1.93-1.154,3.675,1.872,4.832,2.612
			c3.323-8.13,11.896-11.691,20.781-6.5c7.955-16.802,26.915-10.629,30.573,7.256c4.496,10.889,4.511,11.72,1.176,11.413
			c-0.737-0.059-1.408-0.243-1.632-0.478c-5.541-12.756-16.16-38.933-25.667-13.248c2.236,5.371,7.19,18.625,6.873,19.688
			C203.328,142.299,202.09,139.444,197.761,127.892z"/>
		<path fill="#0A0A0A" d="M234.249,116.551c-6.707-9.075-4.097-25.359,9.172-27.786c4.317,0.077,11.495,2.117,9.534,5.995
			c-0.686,1.39-1.054,1.625-2.788,0.657c-10.193-5.178-17.069,6.198-12.604,14.226c11.124,22.01,21.689-6.647,25.383-0.676
			C262.935,120.285,241.956,129.847,234.249,116.551z"/>
		<path fill="#0A0A0A" d="M261.775,81.131c11.16-37.08-12.338-34.155-4.713-21.424c-0.263,2.771-3.293,1.677-4.453-2.412
			c-4.495-9.865,12.393-12.464,14.423-3.252c3.003,6.752-1.003,21.915-1.936,27.884c3.314-1.384,12.226-5.836,14.135-2.354
			c-0.925,2.098-12.815,4.104-14.396,6.11C260.533,88.155,260.409,87.141,261.775,81.131z"/>
	</g>
</g>
<g id="OBJECTS_3_">
	<g>
		<g>
			<g>
				<path fill="#0A0A0A" d="M784.112,298.1c-4.612-2.349-76.357-39.141-77.953-89.483c-1.607-44.292,30.481-90.898,75.667-91.096
					c45.186-0.87,78.429,44.796,77.943,89.16C859.46,257.038,788.656,295.631,784.112,298.1z M782.679,122.312
					c-42.955-0.286-73.25,44.257-71.722,86.259c0.544,43.278,63.804,79.075,73.087,84.093c9.152-5.255,71.488-42.658,70.932-85.919
					C855.405,165.266,824.923,122.049,782.679,122.312z"/>
			</g>
			<path fill="#0A0A0A" d="M811.787,295.036c-1.35-1.15-64.157,3.508-62.165-1.5c0.798-2.064-2.194-13.542,2.112-13.296
				l59.854-0.754c4.223-0.382,1.715,11.215,2.444,13.24C814.057,293.981,813.041,295.012,811.787,295.036z"/>
			<path fill="#0A0A0A" d="M808.414,308.412l-52.766,0.667c-4.229,0.365-1.729-11.225-2.457-13.248c-0.018-1.246,1-2.293,2.25-2.31
				l52.766-0.667c4.23-0.365,1.73,11.209,2.461,13.24C810.684,307.356,809.667,308.396,808.414,308.412z"/>
			<path fill="#0A0A0A" d="M802.396,321.818l-40.402,0.517c-4.219,0.366-1.731-11.224-2.453-13.24
				c-0.021-1.254,0.996-2.302,2.25-2.317l40.4-0.508c4.223-0.373,1.729,11.208,2.453,13.24
				C804.667,320.763,803.65,321.803,802.396,321.818z"/>
			<g>
				<path fill="#0A0A0A" d="M798.301,286.059l-2.969-0.135c0.032-0.563,2.049-45.189,3.255-73.623
					c-5.621,0.842-11.804,0.182-16.678-2.238c-3.397,6.302-9.74,14.533-17.908,13.796l5.544,59.278l-2.96,0.27l-5.601-60.08
					c-47.591-26.235,3.023-80.541,2.73-2.469c6.878,1.056,12.764-6.922,15.598-12.336c-12.621-8.175-7.191-35.283,8.391-27.008
					c0.023,1.984,0.929,13.117-4.505,25.849c4.489,2.255,10.34,2.778,15.514,1.906c-3.571-60.314,38.118-7.676,2.866,2.428
					C800.38,240.115,798.333,285.487,798.301,286.059z M750.25,183.198c-14.462,6.338-2.83,31.549,10.434,36.898
					C759.06,211.904,760.977,185.88,750.25,183.198z M806.413,183.499c-5.461,1.437-3.938,17.261-4.7,25.103
					C816.249,207.063,814.104,185.595,806.413,183.499z M781.85,183.206c-9.053-0.286-8.111,18.205-1.227,22.547
					c3.949-9.271,4.219-19.042,4.195-22.138C784.096,183.42,783.012,183.19,781.85,183.206z"/>
			</g>
		</g>
		<g>
			<path fill="#0A0A0A" d="M691.951,226.097c-2.096-1.397-55.084,4.207-52.572-2.588c-2.894-6.683,50.67-2.492,52.492-3.905
				C696.058,219.493,696.169,226.113,691.951,226.097z"/>
		</g>
		<g>
			<path fill="#0A0A0A" d="M689.808,167.298c-0.58,0.009-1.161-0.134-1.698-0.451l-42.349-25.223
				c-1.536-0.921-2.047-2.909-1.13-4.449c1.016-7.216,44.51,24.353,46.792,24.095C694.237,162.805,692.958,167.382,689.808,167.298z
				"/>
		</g>
		<g>
			<path fill="#0A0A0A" d="M722.476,123.064c-2.604,2.625-25.508-44.054-26.75-44.804c-2.093-3.64,3.691-6.867,5.672-3.144
				l23.864,43.13C726.488,120.31,724.849,123.088,722.476,123.064z"/>
		</g>
		<g>
			<path fill="#0A0A0A" d="M923.233,228.764c-2.097-1.389-55.08,4.207-52.572-2.572c-2.891-6.7,50.659-2.5,52.492-3.913
				C927.352,222.159,927.463,228.772,923.233,228.764z"/>
		</g>
		<g>
			<path fill="#0A0A0A" d="M874.662,176.161c-3.128,0.156-4.542-4.374-1.763-5.993c2.492,0.1,44.769-32.382,46.167-25.277
				c0.952,1.521,0.508,3.52-1.018,4.477l-41.705,26.29C875.829,175.991,875.25,176.149,874.662,176.161z"/>
		</g>
		<g>
			<path fill="#0A0A0A" d="M850.928,129.277c-2.365,0.079-4.08-2.644-2.914-4.748c2.199-1.171,22.36-50.535,27.14-45.098
				c1.596,0.83,2.207,2.791,1.381,4.373C875.201,84.758,853.706,131.69,850.928,129.277z"/>
		</g>
		<g>
			<path fill="#0A0A0A" d="M782.738,103.892c-6.072,2.925-5.651-50.437-7.088-52.135c-0.385-4.18,6.199-4.708,6.47-0.505
				C780.825,53.502,790.101,106.412,782.738,103.892z"/>
		</g>
	</g>
</g>
<g id="OBJECTS_4_">
	<g>
		<path fill="#0A0A0A" d="M150.636,495.166c-54.063-18.043,27.41-229.789,79.613-206.915
			C284.307,306.289,202.833,518.033,150.636,495.166z M229.476,290.236c-49.794-20.9-129.039,185.096-78.069,202.936
			C201.195,514.069,280.44,308.075,229.476,290.236z"/>
		<path fill="#0A0A0A" d="M174.729,432.55c-135.684-51.832-104-134.175,31.428-81.687C341.84,402.688,310.15,485.041,174.729,432.55
			z M205.388,352.854C71.66,302.427,42.456,378.35,175.494,430.556C309.219,480.98,338.426,405.058,205.388,352.854z"/>
		<path fill="#0A0A0A" d="M224.001,487.193c-49.023-22.485-90.623-95.197-100.059-146.845c-9.586-48.59,22.875-58.622,53.725-31.682
			c35.109,26.754,72.833,90.719,79.271,134.392C262.147,475.363,252.78,497.354,224.001,487.193z M156.07,298.15
			c-59.477-15.272-20.796,85.227-1.486,114.698c14.835,25.157,32.575,46.538,49.949,60.221
			c29.38,25.573,59.518,17.142,50.292-29.669C245.524,392.434,204.35,320.465,156.07,298.15z"/>
		<path fill="#0A0A0A" d="M104.434,453.178c-46.878-26.814,33.28-83.88,65.692-100.236c36.097-17.572,72.376-32.1,106.32-22.712
			C341.266,372.893,156.777,476.858,104.434,453.178z M275.657,332.179c-33.318-8.966-69.007,5.357-104.542,22.655
			c-30.807,15.705-109.543,70.603-65.901,96.4c33.331,8.965,69.007-5.354,104.549-22.658
			C240.589,412.858,319.487,358.091,275.657,332.179z"/>
		<path fill="#0A0A0A" d="M203.744,396.556c-6.375,17.33-33.45,6.91-26.563-10.225C183.559,369,210.629,379.416,203.744,396.556z"/>
		<path fill="#0A0A0A" d="M238.38,295.087c-4.508,12.248-23.64,4.887-18.776-7.228C224.113,275.615,243.245,282.978,238.38,295.087z
			"/>
		<path fill="#0A0A0A" d="M252.892,489.977c-4.508,12.252-23.64,4.886-18.776-7.226
			C238.614,470.509,257.751,477.861,252.892,489.977z"/>
		<path fill="#0A0A0A" d="M101.653,444.69c-4.508,12.253-23.64,4.89-18.773-7.227C87.386,425.223,106.518,432.58,101.653,444.69z"/>
		<path fill="#0A0A0A" d="M136.317,359.075c-4.508,12.25-23.64,4.887-18.778-7.228C122.05,339.605,141.184,346.968,136.317,359.075z
			"/>
	</g>
</g>
<g id="OBJECTS_5_">
	<g>
		<path fill="#0A0A0A" d="M824.277,628.217c-38.325,12.557-52.951,72.018-31.65,104.169c40.475,42.34,130.334,43.079,146.615-23.006
			c20.914-83.755-50.59-142.912-121.784-81.167c-1.824,1.253-0.191,4.336,1.654,3.061c14.708-10.18,29.97-20.795,47.761-24.602
			c48.896-11.699,79.689,47.078,71.926,89.089c-4.239,31.016-27.792,60.54-60.479,62.729c-30.979,0.521-71.515-7.043-87.824-36.294
			c-10.925-30.764,0.595-79.627,34.556-90.579C827.226,631.049,826.454,627.657,824.277,628.217L824.277,628.217z"/>
		<path fill="#0A0A0A" d="M800.485,651.598c91.467,46.213,68.32,57.204,55.499-42.088c-0.373-2.21-3.763-1.418-3.394,0.782
			c4.251,25.33,8.503,50.658,12.754,75.986c0.873-0.621,1.75-1.242,2.619-1.868C861.583,682.178,795.289,639.797,800.485,651.598z"
			/>
		<path fill="#0A0A0A" d="M845.021,684.184c4.314-15.5,17.125-27.929,32.777-31.705c6.9-12.447-34.743,10.72-36.1,30.672
			C841.101,685.309,844.423,686.347,845.021,684.184L845.021,684.184z"/>
		<path fill="#0A0A0A" d="M794.066,595.933c-0.692-0.252-0.769-0.875-0.658-1.512c-1.159-0.048-2.321-0.098-3.477-0.146
			c1.279,15.315,8.16,13.916,12.878,0.911c-1.135-0.195-2.269-0.395-3.402-0.591c-0.983,3.814,7.942,30.318,10.792,20.181
			c-11.383-12.415-1.813-34.191-16.567-11.758c0.906,0.146,1.817,0.292,2.724,0.44c-2.697-2.021-2.146-15.076-6.424-9.185
			C788.7,599.896,798.505,600.985,794.066,595.933L794.066,595.933z"/>
		<path fill="#0A0A0A" d="M820.458,590.646c-8.427-4.438-13.731,8.493-6.26,12.99c2.045,1.667,10.021,3.569,6.723,7.039
			c0.026-0.015-0.479,0.07-0.285,0.065c-0.213,0-0.182-0.065-0.059,0.042c-1.563-1.62-4.108,0.782-2.534,2.386
			c4.887,3.793,9.783-3.882,5.612-7.728c-1.82-2.145-4.516-2.855-6.839-4.247c-4.278-1.703-3.368-9.619,1.795-7.591
			C820.535,594.751,822.385,591.799,820.458,590.646L820.458,590.646z"/>
		<path fill="#0A0A0A" d="M834.795,585.202c-5.252-3.026-11.952,4.522-7.476,9.072c3.87,4.256,12.225,0.747,10.131-5.232
			c-2.718-8.44-13.323-2.623-5.979-1.106c0.708,0.043,0.276-0.045,1.023,0.198c0.24,0.085-0.184-0.088-0.188-0.088
			c1.201,0.742,1.085,0.623,1.761,1.836c0.072,0.165,0.124,0.484-0.013-0.059c0.088,0.309,0.183,0.614,0.217,0.934
			c0.081,0.641-0.661,2.336-3.026,1.865c0.905,0.141-0.603-0.122-0.753-0.263c-0.191-0.072,0.364,0.182,0.187,0.089
			c-0.209-0.037-1.206-0.854-0.545-0.293c-0.202-0.145-0.823-0.887-0.415-0.377c-0.854-1.354-0.318-2.64,1.752-3.656
			c-0.691,0.33,0.151-0.081,0.349-0.073c0.177-0.034,0.627-0.034,0.013-0.025c0.844-0.013,0.56-0.034,1.218,0.175
			C833.977,589.185,837.138,586.95,834.795,585.202L834.795,585.202z"/>
	</g>
</g>
</svg>
